<?xml version="1.0" encoding="utf-8"?>
<!-- Generator: Adobe Illustrator 19.2.1, SVG Export Plug-In . SVG Version: 6.00 Build 0)  -->
<!DOCTYPE svg PUBLIC "-//W3C//DTD SVG 1.1//EN" "http://www.w3.org/Graphics/SVG/1.1/DTD/svg11.dtd">
<svg version="1.1" id="Layer_1" xmlns="http://www.w3.org/2000/svg" xmlns:xlink="http://www.w3.org/1999/xlink" x="0px" y="0px"
	 viewBox="0 0 426.1 158.5" style="enable-background:new 0 0 426.1 158.5;" xml:space="preserve">
<style type="text/css">
	.st0{fill:#D50000;}
</style>
<g>
	<path class="st0" d="M235.7,122.5c-24,0-43.5-19.5-43.5-43.5s19.5-43.5,43.5-43.5S279.2,55,279.2,79S259.7,122.5,235.7,122.5z
		 M235.7,50.5c-15.7,0-28.5,12.8-28.5,28.5s12.8,28.5,28.5,28.5s28.5-12.8,28.5-28.5S251.4,50.5,235.7,50.5z"/>
</g>
<g>
	<path class="st0" d="M382.6,122.5c-24,0-43.5-19.5-43.5-43.5s19.5-43.5,43.5-43.5S426.1,55,426.1,79S406.6,122.5,382.6,122.5z
		 M382.6,50.5c-15.7,0-28.5,12.8-28.5,28.5s12.8,28.5,28.5,28.5s28.5-12.8,28.5-28.5S398.3,50.5,382.6,50.5z"/>
</g>
<path class="st0" d="M43.4,35.5C19.4,35.5,0,55,0,79s19.4,43.5,43.4,43.5c10.9,0,21.4-4,28.4-10.7V123h15V79
	C86.7,55,67.4,35.5,43.4,35.5z M43.6,107.5c-15.7,0-28.5-12.8-28.5-28.5s12.8-28.5,28.5-28.5S72.1,63.3,72.1,79
	S59.3,107.5,43.6,107.5z"/>
<path class="st0" d="M139.4,35.5c-10.9,0-20.7,4-28.7,10.7V0h-15v79c0,24,19.7,43.5,43.7,43.5S182.9,103,182.9,79
	S163.4,35.5,139.4,35.5z M139.6,107.5c-15.7,0-28.5-12.8-28.5-28.5s12.8-28.5,28.5-28.5s28.5,12.8,28.5,28.5
	S155.3,107.5,139.6,107.5z"/>
<g>
	<rect x="192.2" y="79.2" class="st0" width="15" height="79.2"/>
</g>
<path class="st0" d="M332.6,36c-24,0-43.9,19-43.9,43v1.5v6V123h15V86.5v-6V79c0-15.7,13.2-28,28.9-28h7.1V36H332.6z"/>
</svg>
