<?xml version="1.0" encoding="utf-8"?>
<!-- Generator: Adobe Illustrator 19.2.1, SVG Export Plug-In . SVG Version: 6.00 Build 0)  -->
<!DOCTYPE svg PUBLIC "-//W3C//DTD SVG 1.1//EN" "http://www.w3.org/Graphics/SVG/1.1/DTD/svg11.dtd">
<svg version="1.1" id="Layer_1" xmlns="http://www.w3.org/2000/svg" xmlns:xlink="http://www.w3.org/1999/xlink" x="0px" y="0px"
	 viewBox="0 0 1280 800" style="enable-background:new 0 0 1280 800;" xml:space="preserve">

<style type="text/css">
	.st0{fill:#999999;}
	.st1{font-family:'ProximaNova-Regular';}
	.st2{font-size:36.15px;}
	.st3{font-size:20px;}
	.st4{font-family:'ProximaNova-Bold';}
	.st5{enable-background:new    ;}
</style>
<title>abpro-technology-2</title>
<text transform="matrix(1 0 0 1 518.33 388.47)" class="st0 st1 st2">DiversImmune</text>
<text transform="matrix(1 0 0 1 558.17 427.03)" class="st0 st1 st2">Platfor</text>
<text transform="matrix(1 0 0 1 657 427.03)" class="st0 st1 st2">m</text>
<text transform="matrix(1 0 0 1 685.42 427.03)" class="st0 st1 st2">™</text>
<g class="item">
    <circle cx="531" cy="115" r="85" stroke="#999999" stroke-width="1" fill="transparent"></circle>
	<!-- <path class="st0" d="M531.6,30.5c46.4,0,84,37.6,84,84c0,46.4-37.6,84-84,84s-84-37.6-84-84c0-22.3,8.8-43.7,24.6-59.4
		C488,39.3,509.3,30.5,531.6,30.5 M531.6,29.5c-46.9,0-85,38-85,85c0,46.9,38,85,85,85c46.9,0,85-38,85-85c0-22.6-9-44.2-24.9-60.1
		C575.8,38.4,554.1,29.4,531.6,29.5L531.6,29.5z"/> -->
	<text transform="matrix(1 0 0 1 301.83 108.9)" class="st0 st1 st3">Bioinformatics</text>
	<text transform="matrix(1 0 0 1 348.93 130.9)" class="st0 st4 st3">BioMax™</text>
	<path class="st0" d="M505.5,144.5c0.6,2.4,0.8,4.8,0.7,7.2l-9.2-9.2c0.7,0.1,1.5,0.4,2.2,0.6C501.3,143.5,503.4,144.1,505.5,144.5z
		 M505.6,136.5c-0.1-0.4-0.3-1.1-0.4-1.5l8.7,8.7c-2.2,0-4.5-0.3-6.7-0.7C506.7,140.8,506.1,138.6,505.6,136.5L505.6,136.5z
		 M524.1,108.5c0.5,2.2,1.1,4.3,1.6,6.5c0.1,0.7,0.4,1.2,0.5,1.9l-9-9C519.6,107.8,521.9,108,524.1,108.5L524.1,108.5z M525.2,100.1
		l8.8,8.8c-0.7-0.1-1.1-0.3-1.8-0.4l-6.5-1.6C525.3,104.6,525.1,102.3,525.2,100.1L525.2,100.1z M553.9,88.2l6.5,1.6
		c0.5,2.2,0.7,4.5,0.5,6.8l-8.8-8.8C552.7,88,553.3,88.1,553.9,88.2z M560.3,81.8c-0.1-0.7-0.3-1.1-0.4-1.8l8.8,8.8
		c-2.3,0-4.6-0.2-6.8-0.5C561.5,86,560.8,84,560.3,81.8L560.3,81.8z M571.2,88.6l-12.3-12.2c-0.7-2.5-1-5-1.1-7.6l18.1,18.1
		C574.5,87.8,572.8,88.4,571.2,88.6L571.2,88.6z M552.9,109.5c-1.6,0.7-3.4,1.2-5.2,1.4l-19.6-19.6c0.4-0.4,0.7-0.9,1.1-1.4
		c0.7-0.7,1.5-1.2,2.2-1.9L552.9,109.5z M548.5,86.8l12.2,12.2c-0.3,1.7-0.9,3.3-1.8,4.8l-18.1-18.1C543.4,86,545.9,86.3,548.5,86.8
		L548.5,86.8z M538.3,85.8l19.6,19.6c-0.4,0.4-0.7,1-1.1,1.4c-0.7,0.7-1.5,1.2-2.2,1.9l-21.5-21.4C534.7,86.5,536.5,86,538.3,85.8
		L538.3,85.8z M527.1,93l17.9,17.9c-2.6-0.1-5.1-0.5-7.6-1.1l-12.2-12.2C525.7,96,526.3,94.5,527.1,93z M525.7,137.3
		c-0.5,0.7-1.1,1.4-1.8,2c-0.4,0.4-0.9,0.8-1.4,1.1L503.2,121c0.1-1.8,0.6-3.6,1.4-5.2l21.3,21.3L525.7,137.3z M528.2,130.5
		c-0.1,1.8-0.6,3.6-1.4,5.2l-21.4-21.4c0.5-0.8,1.1-1.6,1.8-2.3l1.2-1.2L528.2,130.5z M514.7,108.1l12.4,12.4c0.7,2.5,1,5,1.1,7.6
		L510,109.8C511.5,109,513.1,108.4,514.7,108.1L514.7,108.1z M503,123.8l18,18c-1.5,0.9-3.1,1.5-4.8,1.8l-12.1-12.1
		C503.6,128.9,503.2,126.4,503,123.8z M485.7,140.5c2.5,0.1,5,0.4,7.5,0.9l0,0l12.5,12.5c-0.3,1.7-0.9,3.3-1.8,4.8L485.7,140.5z
		 M473.2,143.3c-0.3,0.5-0.1,1.1,0.4,1.4c0.3,0.2,0.7,0.2,1,0c2.3-2.3,5.4-3.8,8.7-4.1l19.7,19.7l-1.1,1.1c-0.5,0.3-0.7,0.9-0.4,1.4
		s0.9,0.7,1.4,0.4c0.2-0.1,0.3-0.2,0.4-0.4c5-5,5.3-11.3,4.2-17.8c2.8,0.6,5.6,0.7,8.4,0.3l0.1-0.1c3.5-0.4,6.8-2,9.2-4.6
		c7.2-7.2,4.8-17,2.2-26.4c-0.5-1.9-1-3.7-1.4-5.4c1.8,0.4,3.7,0.9,5.4,1.4c8,2,16.3,4.3,23,0.4l0,0c1.2-0.7,2.3-1.5,3.3-2.4
		c0.6-0.6,1.2-1.2,1.6-1.9l0.1-0.1c0.1-0.1,0.3-0.3,0.1-0.4c3-4.6,3.1-9.9,2.2-15.5c6.5,1.1,12.8,0.8,17.8-4.2
		c0.3-0.5,0.1-1.1-0.4-1.4c-0.3-0.2-0.7-0.2-1,0c-0.4,0.4-0.8,0.8-1.3,1.1l-19.2-19.2c0.2-3.4,1.7-6.6,4.1-9
		c0.5-0.3,0.7-0.9,0.4-1.4c-0.3-0.5-0.9-0.7-1.4-0.4c-0.2,0.1-0.3,0.3-0.4,0.4c-7.2,7.2-4.8,17-2.2,26.4c0.5,1.9,1,3.7,1.4,5.4
		c-1.8-0.4-3.7-0.9-5.4-1.4c-8-2-16.3-4.3-23-0.4l-0.1,0.1c-1.2,0.6-2.3,1.5-3.3,2.4c-5,5-5.3,11.3-4.2,17.8
		c-6.5-1.1-12.8-0.8-17.8,4.2c-7.2,7.2-4.8,17-2.2,26.4c0.5,1.9,1,3.7,1.4,5.4c-1.8-0.4-3.7-0.9-5.4-1.4
		C490.1,138.6,480.5,136.1,473.2,143.3L473.2,143.3z"/>
</g>
<g class="item">
	    <circle cx="399" cy="610" r="85" stroke="#999999" stroke-width="1" fill="transparent"></circle>
<!-- 	<path class="st0" d="M398.9,526.2c46.4,0,84,37.6,84,84c0,46.4-37.6,84-84,84s-84-37.6-84-84c0-22.3,8.8-43.7,24.6-59.4
		C355.2,535.1,376.6,526.2,398.9,526.2 M398.8,525.2c-46.9,0-85,38-85,85c0,46.9,38,85,85,85s85-38,85-85c0-22.6-9-44.2-24.9-60.1
		C443,534.1,421.4,525.2,398.8,525.2L398.8,525.2z"/> -->
	<text transform="matrix(1 0 0 1 211.511 605.8643)" class="st5"><tspan x="0" y="0" class="st0 st1 st3">Antibody  </tspan><tspan x="-21.6" y="20" class="st0 st1 st3">Engineering</tspan></text>
	<path class="st0" d="M418.3,623.4c-4.8,2.1-5.5,4.9-6.9,6.7s-8,5.4-8.5,5.8s-1.5,0-2,0c-0.5,0-0.9,0-1.4,0.1
		c-2.1-0.2-2.2,0.5-2.6,1c-0.3,0-0.7,0.1-1,0.2c0.4-0.4,0.7-0.9,1.1-1.2c1.2-1.2,2.2-5.3,2.3-5.9c1.8-1.9,3.3-4.2,4.2-6.7
		c0.6,0.4,1.3,0.6,2,0.5c1.9-1,3.6-2.4,4.9-4.1c1,0.6,7.5,2.8,7.8,3S418.6,623.1,418.3,623.4z M398.6,584.4c0.2-0.1,0.4-0.1,0.6-0.2
		c0,0.5,0,0.9,0.1,1.3c0.1,0.4,0.1,0.7,0.1,1.1c-0.2-0.2-0.3-0.5-0.4-0.7C399,585.2,398.5,584.3,398.6,584.4L398.6,584.4z
		 M428.6,620.8c-7.1-10.1-11.5-10.2-11.5-10.3c-0.1-0.2-0.2-0.4-0.4-0.6c-0.4-0.5-3.9-1.7-3.9-2.1s0.4-2.6,0.5-2.7
		c0.1-0.5,0.1-1,0-1.5c0.2-0.3,0.5-0.6,0.9-0.9c0-0.1,0.7-1.5,0.9-2c0.2-0.7,0.4-1.4,0.5-2.1c0-0.7,0.4-1,1-2.6c0.7-2.3,1-4.6,1-7
		c0.5-0.5,1-1,1.6-1.3c0.4-0.2,2.8-2.1,4.8-3.5c1.3-0.9,2.3-2.2,2.7-3.7c0-0.5-0.2-1-0.6-1.2c0-0.2,0-0.4,0.1-0.6
		c0.2-0.4,0-0.9-0.4-1.1c-0.2-0.1-0.4-0.2-0.6-0.1c0-0.2-0.1-0.3-0.1-0.5c-0.5-0.2-1-0.3-1.5-0.1c-0.3,0.1-0.7,0.2-1,0.2
		c0.4-1.3,0-1.6-0.2-2s-0.9-0.2-0.7,0.1c-0.1,1-0.4,1.9-0.9,2.8c-1.5,1.7-1,3.9-1.2,5s-2.3,2.3-2.5,2.3c-0.1-0.2-0.1-0.5,0-0.7
		c0-1.5-0.3-3-0.9-4.3c-0.2-0.9-0.3-1.9-0.2-2.8c0-1.3-2.6-3.5-2.8-3.7c-0.7-0.6-1.3-1.4-1.6-2.3c-0.2-1.8,1.6-1.8,2.6-1.8
		c0.6-0.1,1.2-0.6,1.4-1.2c0-0.2-0.1-0.7,0.2-0.7c0.5,0,0.8-0.4,0.9-0.9c-0.1-0.2-0.3-0.4-0.5-0.6c0.3-0.3,0.5-0.6,0.9-0.9
		c0.1-0.3,0.1-0.7,0-1c0-0.1-0.2-0.5,0-0.6c0.5,0.1,1.1-0.3,1.1-0.9c0-0.1,0-0.3,0-0.4c0-0.5-1.2-1.3-1.2-1.5s0.1-0.6,0.1-1
		c-0.1-0.5-0.3-1-0.6-1.3c0.1-0.7,0-1.4-0.1-2.1c0.3-0.2,0.4-0.5,0.4-0.9c0-0.9-1-2.3-3.9-3.8c-1.9-0.9-3.9-1.3-6-1.1
		c-5.2,1-5.8,5.7-5.8,8s3,5,3.6,5.9c0.3,1,0.3,2.1-0.1,3.1c-0.5,0-1,0.3-1.4,0.7c-0.3,0.9-0.8,1.8-1.4,2.6c-0.8,1.4-1.4,2.9-1.6,4.5
		c-0.2,0.7-0.5,1.4-0.9,2c-2.9,1.1-5.4,3.2-6.8,6c-0.1,1.1,0.1,2.2,0.6,3.2c0.7,1.5,5.9,4.9,5.8,5.2s0,2.1-0.2,2.7s-0.6,3.1-0.7,3.6
		c-0.1,0.7-0.4,1.4-0.9,1.8c-1.5,2-4.2,4.7-4.9,8.7c-0.5,2.6-0.7,5.3-0.5,8c0.4,0.4,0.7,0.9,0.9,1.5c-1,3.1-1.4,6.4-1.1,9.6
		c0,1.6-0.4,3.2-1.3,4.5c-0.8,0.9-1.6,1.7-2.6,2.5c-4.9,2.7-6,6.7-6.2,7.4c-0.8,2.1-1.8,4.1-3.1,6c-1.4,2-3,3.8-4.8,5.4
		c-0.3,0.2-0.6,0.4-0.9,0.6c-0.1-0.2-0.4-0.4-0.6-0.4c-0.4,0.3-0.7,0.6-1.1,0.9c-0.4,0.1-0.7,0.4-0.9,0.7l-0.2-0.2
		c-0.9-0.2-1.8,0.3-2,1.2c0,0.1,0,0.2,0,0.3c-0.1,1.9,0.8,3.8,2.3,5c0.4,0.4,1.2,0.4,1.5,1.8s1.6,3,2.2,4.1s3.9,2,6.8,1.8
		s3-2.3,3-2.6c-0.1-0.2-0.3-0.4-0.5-0.6c-0.1-0.6-1.9-1-2.2-1.6c-0.4-0.5-0.7-1.1-0.9-1.7c0.1-0.7,0.1-1.4-0.1-2.1
		c0.2-0.5,0.3-1,0.4-1.5c0-0.5-0.1-1-0.4-1.5c0-0.1,0.2-1.1,0.4-2.5s5.7-6.9,6.9-8.2s6.5-7.8,7.1-8.2l1.5-1.5
		c-0.1,0.2-0.1,0.3-0.1,0.5c-0.5,1.7,0.9,3.1,1.6,3.9c0.9,0.9,1.6,2.1,1.9,3.3c0.6,3.9,1.5,3.9,2,4.7s3.1,2.8,4.4,3.1
		s1.5-1.2,1.6-1.6c-0.2-1-0.6-2-1.2-2.8c-0.4-0.5,0-1.8,0-2.2c0.2-0.6,0.6-1.1,1-1.6c0.7-0.2,0.5-1.2,0.5-1.3s-1.1-0.1-1.1-0.4
		c0-0.4-0.3-0.7-0.6-0.9c-0.2-0.7,0.9-2,0.9-2c1.6-1.6,6.8-5.3,10.1-6.4s7.6-4.1,9-4.9c4.9-2.7,4.3-3.9,4.5-4.5
		C430.2,623,429.7,621.7,428.6,620.8L428.6,620.8z"/>
</g>
<g class="item">
    <circle cx="818" cy="191" r="85" stroke="#999999" stroke-width="1" fill="transparent"></circle>

<!-- 	<path class="st0" d="M817.8,107.3c46.4,0,84,37.6,84,84c0,46.4-37.6,84-84,84c-46.4,0-84-37.6-84-84c0-22.3,8.8-43.7,24.6-59.4
		C774.1,116.2,795.5,107.3,817.8,107.3 M817.8,106.3c-46.9,0-85,38-85,85c0,46.9,38,85,85,85c46.9,0,85-38,85-85
		c0-22.6-9-44.2-24.9-60.1C861.9,115.2,840.3,106.3,817.8,106.3C817.8,106.3,817.8,106.3,817.8,106.3z"/> -->
	<text transform="matrix(1 0 0 1 926.79 185.75)" class="st0 st1 st3">Antigen Generation</text>
	<text transform="matrix(1 0 0 1 926.79 207.75)" class="st0 st4 st3">R</text>
	<text transform="matrix(1 0 0 1 939.25 207.75)" class="st0 st4 st3">aptor™</text>
	<g>
		<g>
			<path class="st0" d="M879.9,167c-1.4-0.6-3.2-1.4-4.4-2.8c-1-1.1-1.6-2.9-1-4.5c0.1-0.2,0.1-0.3,0.2-0.5c0.2-0.3,0.4-0.7,0.4-1.1
				c0.1-0.5,0.1-1,0-1.5c-0.5-4-2.8-7.7-6.2-9.9c-1.2-0.8-2.6-1.5-4.5-2.2c-1.6-0.6-3.5-1.1-5.2-0.4c-1.1,0.5-2,1.3-2.7,2.1
				l-5.7,6.1c-0.4,0.4-0.8,0.8-1.2,0.9c-0.4,0.1-0.8,0-1.3-0.2c-1.7-0.6-3.4-1.3-5-2.1c-1.3-0.6-2.5-0.4-3.8-0.2
				c-0.3,0.1-0.6,0.1-1,0.2c-0.3,0-0.9-0.2-1.4-0.4c-0.9-0.4-2-0.9-2.8-0.2c-0.4,0.3-0.9,0.7-1.3,1c-0.9,0.7-1.8,1.4-2.6,2.1
				c-0.1-0.2-0.2-0.4-0.4-0.5c-0.1-0.1-0.3-0.2-0.4-0.3c0,0-0.1,0-0.1,0c1.2,0.2,0-0.3-3.5-1.4c-0.5-0.2-1-0.4-1.5-0.5
				c-0.2,0-0.4-0.1-0.6-0.1c-1,0.1-1.8,1-2.4,1.7c-0.9,1.1-1.8,2.3-2.6,3.6c-0.8,1.3-1.7,2.6-2.6,3.8c-0.5,0.6-1,1.3-1.7,1.8
				c-2-0.2-3.1-0.4-3.4-0.7c-0.2-0.5,0.1-1.1,0.9-2l0.2-0.2c1.4-1.7,2.9-3.4,3.9-5.4c0.4-0.8,0.9-2.1,0.6-3.4
				c-0.4-1.7-2.1-2.6-3.1-2.9c-0.8-0.3-1.4-0.4-2.1-0.4c-0.9,0-1.6,0.4-2.3,0.7c-0.5,0.2-0.9,0.4-1.4,0.5c-2.3,0.6-4.6-1.3-5.7-2.4
				c-0.5-0.5-0.9-1-1.3-1.4c-1.2-1.3-2.4-2.7-4-3.5l-0.4-0.2l-0.3,0.2c-0.8,0.5-1.5,1.8-1.1,3.6c0.2,0.9,0.6,1.6,1,2.4
				c0.1,0.2,0.2,0.5,0.4,0.7c0.6,1.1,0.7,1.9,0.6,2.7c-0.1,0.4-0.4,0.8-0.8,1c-0.2,0.1-0.5,0.2-0.8,0.1l0,0c-0.1,0-0.4-0.1-0.6-0.1
				c-0.5,0.1-0.8,0.5-0.9,1.1c-0.2,1.4,0.4,2.6,0.9,3.8c0.2,0.4,0.3,0.7,0.4,1.1c0.5,1.3,0.4,2.9-0.6,3.4c-0.7,0.3-1.5,0-2.5-0.3
				c-0.9-0.3-1.9-0.7-3-0.5c-1.4,0.2-2.3,1.4-2.9,2.2c-0.7,1-1.4,2.4-1.5,3.9c0,0,0,0,0,0c0,0,0,0,0,0.1c0,0.6,0,1.3,0.2,1.9
				c0.1,0.9,0.2,1.8,0.4,2.7c0.2,1,1.2,1.5,2.2,1.7c1.5,0.4,3,0.5,4.6,0.6c1,0.1,1.9,0.1,2.9,0.2c-0.3,0.1-0.6,0.2-0.9,0.4
				c-2.3,0.9-5,1.7-6.7,3.5c-0.7,0.8-0.9,1.6-0.8,2.6c-0.1-0.3-0.1,0.1,0.1,1c0.1,1.3,0.2,2.7,0.6,3.9c0.1,0.4,0.4,0.8,0.7,1.1
				c1.7,1.4,4.7,1.2,6.9,1.2c0.6,0,1.2,0,1.8,0c-0.2,0.1-0.4,0.2-0.6,0.2c-2.2,0.9-4.9,1.5-6.8,3c-0.7,0.6-1.1,1.2-1.1,2.1
				c0,0,0,0.1,0,0.1c0.1,1.5,0.3,3.1,0.6,4.6c0.1,0.4,0.2,0.8,0.5,1.1c0.7,0.7,1.7,1.1,2.7,1.3c1.3,0.3,2.6,0.5,3.9,0.7
				c1.1,0.2,2.3,0.3,3.4,0.6c-0.2,0.1-0.5,0.2-0.7,0.3c-2.3,1.1-4.9,1.9-6.9,3.3c-0.7,0.5-1.5,1.2-1.6,2.1c-0.2,1.1,0.2,2.4,0.4,3.5
				c0.1,0.8,0.1,1.7,0.5,2.4c0.5,0.9,1.8,1.2,2.7,1.4c1.4,0.3,2.8,0.3,4.3,0.4c1.3,0.1,2.7,0.1,4,0.4c0.2,0,0.4,0.1,0.6,0.2
				c0.3,0.5,0.7,1,1.1,1.3c0.6,0.5,0.8,0.8,0.8,1.1c0,0.2-0.3,0.5-0.5,0.7l-3.1,2.9c-0.3,0.3-0.5,0.5-0.8,0.6
				c-0.2,0.1-0.4,0.1-0.6,0.1c-0.2,0-0.4,0-0.6,0.1c-0.5,0.1-0.9,0.3-1.3,0.5c-0.5,0.2-0.9,0.5-1.3,0.4c-0.4,0-0.7-0.3-1-0.5
				c-1.8-1.5-3-3.7-3.9-5.7c-1.5-3.4-2.5-6.5-2.9-9.5c-0.1-0.6-0.2-1.3-0.2-1.9c-0.1-0.9-0.2-1.7-0.3-2.6c-0.4-2.3-1.2-4.5-1.9-6.6
				c-0.4-1.2-0.9-2.7-2-3.7c-0.7-0.7-1.5-1.1-2.2-1.5c-0.6-0.3-1.1-0.6-1.6-1c-1.3-1-1.9-2.7-1.7-4.3c0.1-0.4,0.1-0.7,0.2-1.1
				c0.1-0.5,0.3-1,0.3-1.6c0.1-1-0.3-2.4-1.4-3c-0.6-0.3-1.2-0.3-1.9-0.2c-1.9,0.1-3.9,0.4-5.7,0.7c-1.2,0.2-2.5,0.5-3.8,1.1
				c-1.7,0.8-3.1,2.3-4.3,3.5c-0.9,0.9-1.8,2-1.7,3.4c0.1,0.8,0.5,1.5,0.8,2c1.1,1.7,2.4,3.2,3.9,4.5c0.3,0.7,0.6,1.5,0.9,2.2
				c0.5,1,1.6,1.1,2.6,1.1c1.5,0,3.1-0.3,4.6-0.6c0.9-0.2,1.9-0.4,2.8-0.5c-0.3,0.2-0.5,0.4-0.8,0.6c-1.9,1.5-4.4,3-5.5,5.3
				c-0.5,1-0.4,1.8-0.1,2.8c-0.2-0.2,0,0.1,0.4,0.9c0.5,1.3,1,2.7,1.7,3.8c0.3,0.4,0.6,0.7,1,1c2,1,4.9,0,7-0.5
				c0.6-0.1,1.2-0.3,1.7-0.4c-0.2,0.1-0.4,0.3-0.5,0.4c-1.9,1.4-4.3,2.8-5.7,4.8c-0.5,0.7-0.8,1.5-0.5,2.4c0.5,1.5,1.2,3.1,1.9,4.5
				c0,0,0,0.1,0,0.1c0.2,0.4,0.5,0.7,0.8,1c0.9,0.6,2,0.6,3,0.7c1.3,0,2.6-0.1,3.9-0.3c1.1-0.1,2.3-0.3,3.5-0.3
				c-0.2,0.2-0.4,0.3-0.6,0.5c-1.9,1.7-4.2,3.1-5.8,5.1c-0.6,0.7-1.1,1.6-1,2.5c0.2,1.2,0.9,2.3,1.3,3.4c0.3,0.7,0.6,1.7,1.2,2.3
				c0.8,0.7,2,0.8,3,0.7c1.4-0.1,2.8-0.4,4.2-0.7c1.3-0.3,2.7-0.6,4-0.6c0.3,0,0.6,0,0.9,0c0.9,1,1.1,2.5,0.9,3.7
				c-0.1,0.3-0.2,0.6-0.3,1c-0.2,0.6-0.4,1.2-0.4,1.9c-0.1,1.6,0.8,2.7,1.7,3c0.9,0.3,2-0.1,2.7-0.9c0.5-0.6,0.8-1.3,1.1-2l0.1-0.2
				c1.5-3.5,3.7-6.8,6.5-9.3c0.4-0.4,0.8-0.7,1.3-0.9c0.8-0.3,1.9,0,2.8,0.7c0.6,0.4,1,0.9,1.6,1.4c0.3,0.3,0.7,0.7,1,1
				c0.4,0.4,0.9,0.8,1.6,1c1,0.3,2.2-0.1,3-0.9c0.2-0.2,0.3-0.4,0.5-0.6c0.6-0.9,0.8-2.2,0.6-3.6c-0.2-1.9-0.4-3.1-0.3-3.7
				c0-0.3,0.6-1.1,1.1-1.8c0.1-0.1,0.2-0.2,0.3-0.3c0.3-0.3,0.6-0.6,0.8-0.8c0.1-0.1,0.2-0.1,0.2-0.1l0-0.1c0.2-0.2,0.3-0.3,0.5-0.5
				c0.2-0.2,0.4-0.4,0.6-0.6c0.3-0.3,0.4-0.7,0.5-1.1c0-0.5-0.1-1.1-0.4-1.6c-0.3-0.7-0.7-1.3-1.1-2c-0.4-0.6-0.8-1.3-1.2-1.9
				c-0.6-0.8-1.1-1.7-1.6-2.6c-0.2-0.4-0.5-0.9-0.6-1.3c0,0,0,0,0,0c0,0,0,0,0,0c0.2,0.1,0.4,0.2,0.7,0.3c0,0,0.1,0,0.1,0
				c0.2,0.1,0.4,0.2,0.6,0.3c0,0,0.1,0,0.1,0.1c0.2,0.1,0.4,0.2,0.5,0.3c0.2,0.1,0.4,0.2,0.6,0.3c2.1,1.1,4.3,2.7,6.7,3.2
				c0,0,0,0,0,0c0,0,0,0,0,0c0.3,0.1,0.5,0.1,0.7,0.1c0.1,0,0.1,0,0.2,0c0.1,0,0.3,0,0.4-0.1c0.1,0,0.1-0.1,0.2-0.1
				c0.1,0,0.2-0.1,0.3-0.2c0.1,0,0.1-0.1,0.2-0.1c0,0,0.1-0.1,0.1-0.1c0,0,0,0,0,0.1c0,0,0,0.1,0,0.1c0,0,0,0,0,0.1c0,0,0,0,0,0
				c0,0,0.1,0,0.1,0c0,0,0,0,0.1,0c0,0,0.1,0,0.1-0.1c0,0,0.1,0,0.1-0.1c0.1,0,0.1-0.1,0.2-0.1c0,0,0.1-0.1,0.1-0.1
				c0.1-0.1,0.1-0.1,0.2-0.2c0.1-0.1,0.2-0.2,0.3-0.3c0.1-0.1,0.1-0.1,0.2-0.2c0.1-0.1,0.1-0.1,0.2-0.2c0.1-0.1,0.1-0.1,0.2-0.2
				c0.1-0.1,0.1-0.1,0.2-0.2c0.1-0.1,0.1-0.1,0.2-0.2c0.1-0.1,0.1-0.1,0.2-0.2c0.1-0.1,0.1-0.1,0.2-0.2c0.1-0.1,0.1-0.1,0.2-0.2
				c0-0.1,0.1-0.1,0.1-0.2c0-0.1,0.1-0.1,0.1-0.2c0-0.1,0.1-0.1,0.1-0.1c0,0,0.1-0.1,0.1-0.1c0,0,0-0.1,0.1-0.1c0,0,0-0.1,0-0.1
				c0,0,0-0.1,0-0.1c0,0,0,0,0-0.1c0,0,0,0-0.1,0c0,0,0,0-0.1,0c0,0,0,0,0,0c0.1-0.1,0.2-0.3,0.3-0.4c0,0,0,0,0,0
				c0.2-0.3,0.3-0.7,0.3-1.1c0-0.1,0-0.2,0-0.3c-0.1-0.5-0.2-1.1-0.4-1.6c-0.1-0.4-0.3-0.7-0.5-1.1c-0.6-1.2-1.2-2.3-1.8-3.5
				c0,0,0,0,0,0c0,0,0,0,0,0c-0.1-0.2-0.3-0.5-0.4-0.8c-0.1-0.3-0.3-0.5-0.4-0.8c0,0,0-0.1-0.1-0.1c-0.1-0.3-0.3-0.6-0.4-0.9
				c0,0,0-0.1,0-0.1c-0.1-0.3-0.2-0.6-0.3-1c0,0,0,0,0,0c1.1,0.4,2.1,1,2.8,1.4c0,0,0,0,0,0c1.1,0.6,2.1,1.4,3.3,2
				c0.9,0.5,1.8,1,2.7,1.3c0.2,0.1,0.4,0.1,0.6,0.2c0.2,0.1,0.4,0.1,0.6,0.1c0,0,0.1,0,0.1,0c0.2,0,0.3,0,0.5,0c0,0,0,0,0.1,0
				c0.1,0,0.3-0.1,0.4-0.2c0,0,0,0,0,0c0.1-0.1,0.3-0.2,0.4-0.3c0,0,0,0,0,0c0,0,0,0,0,0c0,0,0,0,0,0c0,0,0,0,0,0c0,0,0,0,0,0
				c0,0,0.1-0.1,0.1-0.1c0,0,0,0,0,0c0.1-0.1,0.2-0.2,0.3-0.3c0,0,0,0,0,0c0.8-0.8,1.7-1.7,2.5-2.5c0.2-0.2,0.5-0.5,0.7-0.7
				c0.2-0.3,0.2-0.6,0.2-1c-0.1-0.5-0.2-0.9-0.5-1.4c0,0,0,0,0,0c-0.2-0.4-0.5-0.8-0.7-1.2c-0.7-1-1.4-2-2.2-3c0,0,0-0.1-0.1-0.1
				c-0.1-0.2-0.3-0.3-0.4-0.5c0-0.1-0.1-0.1-0.1-0.2c-0.1-0.1-0.1-0.1-0.2-0.2c-0.1-0.1-0.2-0.3-0.3-0.4c0-0.1-0.1-0.1-0.1-0.2
				c-0.1-0.1-0.2-0.2-0.2-0.4c0,0-0.1-0.1-0.1-0.1c-0.1-0.2-0.2-0.3-0.3-0.5c0,0,0-0.1-0.1-0.1c-0.1-0.1-0.2-0.3-0.2-0.4
				c0,0,0-0.1,0-0.1c-0.1-0.2-0.2-0.4-0.2-0.5c0,0,0,0,0-0.1c-0.1-0.2-0.1-0.3-0.1-0.5c0,0,0,0,0,0c0,0,0,0,0,0c0.1,0,0.1,0,0.2,0
				c0.2,0,0.4,0.1,0.5,0.1c0.1,0,0.2,0.1,0.3,0.1c0.2,0.1,0.3,0.1,0.5,0.2c0.1,0,0.2,0.1,0.2,0.1c0.2,0.1,0.5,0.2,0.7,0.3
				c0.8,0.4,1.6,0.8,2.4,1.3c0.6,0.3,1.1,0.7,1.7,1c0.9,0.5,1.8,1,2.7,1.4c0.7,0.3,1.6,0.7,2.3,0.4c0.1-0.1,0.3-0.1,0.4-0.2
				c0,0,0,0,0,0c0,0,0,0,0.1,0c0,0,0,0.1-0.1,0.1c0,0-0.1,0.1-0.1,0.1c0,0,0,0.1,0,0.1c0,0,0,0,0,0c0,0,0.2-0.1,0.4-0.3
				c0,0,0.1-0.1,0.1-0.1c0.1-0.1,0.2-0.2,0.3-0.3c0.1-0.1,0.1-0.1,0.2-0.2c0.1-0.1,0.3-0.3,0.4-0.4c0.1-0.1,0.2-0.2,0.3-0.3
				c0.2-0.2,0.3-0.4,0.5-0.6c0.1-0.1,0.2-0.2,0.3-0.3c0.1-0.1,0.1-0.2,0.2-0.2c0.1-0.1,0.1-0.1,0.2-0.2c0.3-0.3,0.6-0.6,0.8-0.9
				c0.1-0.1,0.2-0.3,0.3-0.4c0-0.1,0.1-0.3,0.1-0.4c0-0.7-0.3-1.5-0.6-2.1c-0.1-0.1-0.1-0.3-0.2-0.4c-0.3-0.6-0.7-1.3-1.1-1.9
				c-0.1-0.2-0.3-0.4-0.4-0.7c-0.1-0.1-0.2-0.3-0.3-0.4c-0.4-0.6-0.7-1.1-1.1-1.7c1.1-0.3,2-0.7,2.7-1.3c0.1-0.1,0.1-0.1,0.2-0.2
				c1.1-1.1,1.5-2.6,1.1-3.9c-0.2-0.6-0.6-1.1-1-1.4c-0.4-0.3-0.9-0.4-1.4-0.5c-1.4-0.2-2.8,0.3-3.8,1.3c-0.7,0.7-1.1,1.5-1.4,2.4
				c-0.3,0.3-0.5,0.5-0.8,0.8c-0.2,0.2-0.4,0.4-0.7,0.7c-0.3,0.3-0.4,0.6-0.4,0.9c-0.6-0.1-1.3-0.2-2-0.4c-1-0.2-2-0.4-3.1-0.5
				c-0.2-0.1-0.3-0.1-0.5-0.2c-0.7-0.3-1.3-0.6-2-0.8c-0.7-0.3-1.4,0.4-2,1.2c-0.9,1.1-1.6,2.5-2.4,3.7c-0.8,1.3-1.5,2.6-2.4,3.7
				c0,0,0,0,0,0c0-1,0.2-2,0.4-2.7c0.4-2.3,1.1-4.9,1-7.1c0-0.9-0.3-1.3-0.8-1.5c1-0.2-3.3-2.1-2.9-1.2c-0.1,0-0.3-0.1-0.4-0.1
				c-0.3,0-0.6,0.1-0.8,0.3c-0.7,0.5-1.4,1.4-2,2.1c-0.8,1-1.5,2.1-2.2,3.2c-0.6,0.8-1.5,2.2-2.4,3.2c0.1-1.1,0.3-2.3,0.5-3.1
				c0.5-2.3,1.3-4.9,1.3-7.2c0-0.9-0.2-1.3-0.7-1.5c0,0,0,0,0,0c0,0,0,0-0.1,0c-0.1-0.1-0.2-0.1-0.3-0.2c-0.8-0.3-1.5-0.6-2.3-0.9
				c-0.2-0.1-0.4-0.2-0.7-0.2c-0.3,0-0.5,0.1-0.8,0.3c-0.7,0.5-1.2,1.4-1.7,2.2c-0.6,1.1-1.2,2.2-1.8,3.3c-0.7,1.2-1.6,3-2.7,4
				c-0.1-0.8,0-1.7,0.1-2.5c0.3-2.5,1.1-5,1.4-7.4c0.1-0.7,0.2-1.7-0.2-2.1c-0.1-0.1-0.2-0.1-0.3-0.2c0,0,0,0-0.1,0
				c0.8,0.1,0-0.2-2.3-1c-0.3-0.1-0.6-0.3-1-0.4c-0.1,0-0.2,0-0.4,0c-0.7,0.1-1.3,1-1.8,1.6c-0.7,1-1.4,2.1-2.1,3.2
				c-0.7,1.1-1.4,2.3-2.1,3.4c-0.4,0.6-0.9,1.3-1.5,1.8c-0.6,0.1-1.2,0-1.9-0.1c-0.4-0.1-0.9-0.1-1.3-0.3c-0.7-0.3-1.3-0.9-1.8-1.5
				c-0.2-0.2-0.5-0.5-0.7-0.8c0.4-0.2,0.9-0.4,1.3-0.6c0.7-0.3,1.5-0.8,1.7-1.6c0-0.1,0-0.3,0-0.4c0,0,0-0.1,0-0.1
				c0.3,1,0.2-0.1-0.4-3.3c0-0.5-0.1-0.9-0.2-1.4c0-0.2-0.1-0.3-0.2-0.5c-0.5-0.7-1.5-0.9-2.3-1.1c-1.3-0.3-2.6-0.3-3.8-0.5
				c-1.3-0.1-2.7-0.2-4-0.4c-0.7-0.1-1.4-0.2-2-0.5c-0.5-2.1,0.9-4.2,1.1-4.5c0.7-1,1.4-1.5,2-1.6c0.7-0.1,1.5,0.2,2.3,0.4
				c1.1,0.4,2.3,0.8,3.5,0.2c1.7-0.9,1.9-3.2,1.2-5.1c-0.1-0.4-0.3-0.8-0.5-1.1c-0.4-1-0.9-2-0.8-2.9c0.5,0.1,1.1,0,1.7-0.2
				c0.7-0.4,1.2-1.1,1.4-1.9c0.3-1.4-0.2-2.7-0.7-3.6c-0.1-0.2-0.3-0.5-0.4-0.7c-0.4-0.7-0.7-1.4-0.9-2.1c-0.1-0.6-0.1-1.4,0.3-2
				c1.2,0.8,2.2,1.9,3.3,3c0.4,0.5,0.9,1,1.4,1.5c1.3,1.3,4,3.5,7,2.8c0.6-0.1,1.1-0.4,1.6-0.6c0.6-0.3,1.3-0.6,1.9-0.6
				c0.4,0,0.9,0.1,1.5,0.3c0.6,0.2,2,0.8,2.3,2c0.2,0.7,0,1.5-0.5,2.5c-0.9,1.9-2.3,3.6-3.7,5.2l-0.2,0.2c-0.5,0.5-1.7,2-1.1,3.4
				c0.4,0.9,1.8,1.2,4.3,1.4c0,0,0,0,0.1,0c1,0.4,2.1,0.8,3.1,1.2c1.1,0.4,2.1-0.4,2.9-1.3c1.2-1.3,2.1-2.8,3.1-4.2
				c0.6-0.9,1.2-1.8,1.8-2.7c0,0.4-0.1,0.7-0.1,1.1c-0.4,2.7-1.1,6-0.2,8.6c0.4,1.2,1.1,1.8,2.1,2.2c-0.3-0.1,0,0.1,1,0.4
				c1.4,0.6,2.8,1.3,4.2,1.6c0.5,0.1,1,0.1,1.6-0.1c2.4-0.9,3.8-4,5-6.1c0.3-0.6,0.7-1.2,1-1.8c0,0.3-0.1,0.5-0.1,0.7
				c-0.4,2.7-1.2,5.7-0.7,8.4c0.2,1,0.6,1.8,1.5,2.3c1.6,0.8,3.3,1.4,4.9,2c0,0,0.1,0,0.1,0c0.5,0.2,0.9,0.2,1.4,0.1
				c1.1-0.3,2-1.1,2.8-1.9c1-1.1,1.9-2.3,2.8-3.4c0.8-1,1.6-2.1,2.5-3.1c0,0.3,0,0.6-0.1,0.9c-0.2,2.9-0.8,5.9-0.5,8.7
				c0.1,1,0.4,2.1,1.2,2.7c1,0.8,2.5,1.1,3.6,1.5c0.8,0.3,1.8,0.9,2.7,0.8c1.2-0.1,2.2-1.1,2.9-2c1-1.2,1.9-2.6,2.8-4
				c0.8-1.3,1.6-2.6,2.7-3.8c0.2-0.3,0.5-0.6,0.9-0.8c0.2,0.1,0.4,0.1,0.5,0.2c0.4,0.2,0.9,0.5,1.3,0.8c0.5,0.3,0.9,0.7,1.5,0.9
				c1.3,0.6,2.8,0.7,4.2,0.2c0.8-0.3,1.5-0.7,2.1-1.3c0.4-0.4,0.7-0.8,0.9-1.2c0.1-0.3,0.3-0.7,0.3-1.1
				C882.4,167.9,880.6,167.2,879.9,167z M850,179.8c0.7-0.7,1.7-1,2.7-0.9c0.3,0,0.6,0.1,0.8,0.3c0.2,0.2,0.4,0.4,0.5,0.7
				c0.3,0.9-0.1,2-0.9,2.7c-0.6,0.6-1.5,0.9-2.5,1.1c-0.1-0.2-0.2-0.4-0.3-0.6c-0.4-0.7-0.8-1.6-0.9-2.5
				C849.5,180.4,849.7,180.1,850,179.8C850,179.8,850,179.8,850,179.8z M796.1,178.6c0.6,0.6,1.3,1.3,2.2,1.7
				c0.6,0.2,1.2,0.3,1.7,0.4c0.7,0.1,1.6,0.2,2.6,0c0.5,0.2,0.9,0.4,1.4,0.5c0.7,0.3,1.5-0.5,2.1-1.3c0.9-1.1,1.7-2.5,2.5-3.8
				c0.5-0.8,1-1.6,1.5-2.4c-0.1,0.3-0.1,0.6-0.2,0.9c-0.5,2.3-1.3,5.1-0.9,7.3c0.2,1,0.6,1.4,1.2,1.8c-0.2,0,0,0.1,0.7,0.3
				c0.9,0.4,1.8,0.9,2.7,1.1c0.3,0.1,0.7,0,1.1-0.2c1.7-0.9,3-3.7,4-5.5c0.3-0.5,0.6-1,0.8-1.6c-0.1,0.2-0.1,0.4-0.1,0.6
				c-0.5,2.3-1.3,4.9-1.2,7.2c0,0.8,0.2,1.5,0.8,1.8c1,0.5,2.1,1,3.2,1.3c0,0,0,0,0.1,0c0.3,0.1,0.6,0.1,1,0
				c0.8-0.3,1.5-1.1,2.1-1.8c0.8-1,1.5-2,2.3-3.1c0.6-0.9,1.3-1.9,1.9-2.8c0,0.2-0.1,0.5-0.1,0.7c-0.4,2.5-1.1,5-1.1,7.4
				c0,0.8,0.1,1.8,0.6,2.2c0.6,0.6,1.6,0.8,2.3,1.1c0.5,0.2,1.1,0.6,1.8,0.5c0.8-0.1,1.6-1.1,2.1-1.9c0.8-1.1,1.5-2.4,2.3-3.6
				c0.7-1.2,1.4-2.3,2.2-3.4c0.1-0.1,0.1-0.2,0.2-0.2c1.3,0.1,2.5,0.3,3.9,0.6c0.8,0.2,1.6,0.3,2.4,0.4c0.1,0.2,0.1,0.4,0.2,0.5
				c0.3,0.7,0.7,1.4,1,2.1c0.4,0.7,0.8,1.3,1.2,2c0.2,0.4,0.5,0.7,0.7,1.1c0.1,0.1,0.1,0.2,0.2,0.3c0.2,0.3,0.4,0.6,0.6,0.9
				c0,0.1,0.1,0.1,0.1,0.2c0,0,0,0,0,0c-0.3-0.2-0.5-0.3-0.8-0.5c0,0,0,0,0,0c-1.2-0.7-2.5-1.6-3.9-2.2c-1-0.5-2-0.8-3.1-0.9
				c0,0,0,0-0.1,0c-0.3,0-0.5,0-0.7,0c-0.1,0-0.2,0-0.3,0.1c-0.1,0-0.3,0.1-0.4,0.1c-0.1,0-0.2,0.1-0.3,0.1
				c-0.1,0.1-0.2,0.1-0.4,0.2c-0.1,0.1-0.2,0.1-0.3,0.2c-0.1,0.1-0.1,0.1-0.2,0.2c0-0.1,0.1-0.1,0-0.1c0,0,0,0,0,0c0,0,0,0-0.1,0.1
				c0,0,0,0-0.1,0.1c0,0-0.1,0.1-0.1,0.1c0,0-0.1,0.1-0.1,0.1c-0.1,0.1-0.2,0.2-0.3,0.3c0,0,0,0,0,0c-0.1,0.1-0.2,0.2-0.4,0.3
				c-0.2,0.2-0.4,0.4-0.7,0.6c-0.1,0.1-0.2,0.2-0.4,0.3c-0.2,0.2-0.4,0.4-0.5,0.5c-0.1,0.1-0.2,0.2-0.3,0.3
				c-0.3,0.3-0.5,0.6-0.7,0.9c-0.2,0.3-0.3,0.6-0.4,0.9c0,0.2-0.1,0.3-0.1,0.5c-0.1,1.4,0.6,2.7,1.4,4c0.6,0.8,1.2,1.6,1.7,2.3
				c0.3,0.4,0.6,0.8,0.9,1.3c0,0.1,0.1,0.1,0.1,0.2c-0.2-0.1-0.3-0.2-0.5-0.3c0,0,0,0-0.1,0c-1.2-0.7-2.5-1.6-3.8-2.3
				c-0.1,0-0.1-0.1-0.2-0.1c-0.8-0.4-1.7-0.8-2.6-1c-0.9-0.2-1.7-0.1-2.4,0.5c0,0-0.1,0-0.1,0.1c-0.3,0.3-0.6,0.6-1,0.9
				c-0.3,0.3-0.5,0.5-0.8,0.8c-0.6,0.6-1.2,1.2-1.7,1.8c-0.1,0.1-0.2,0.2-0.2,0.3c-0.2,0.2-0.3,0.5-0.3,0.8c0,0,0,0,0,0c0,0,0,0,0,0
				c0,0.2,0,0.3,0,0.5c0,0.9,0.2,1.8,0.6,2.6c0.1,0.3,0.2,0.5,0.3,0.8c0.3,0.6,0.6,1.3,0.9,1.9c0.2,0.3,0.3,0.6,0.5,0.9
				c0.3,0.5,0.6,1,0.8,1.6c0.1,0.2,0.2,0.4,0.3,0.6c0.2,0.3,0.3,0.6,0.4,0.9c-0.2-0.1-0.4-0.2-0.6-0.3c0,0-0.1,0-0.1-0.1
				c-0.2-0.1-0.3-0.2-0.5-0.2c-1.8-1-3.6-2.1-5.6-2.8c-0.3-0.1-0.6-0.2-0.9-0.3c-0.5-0.2-1.1-0.3-1.7-0.2c-0.2,0-0.4,0.1-0.6,0.1
				c0,0-0.1,0-0.1,0c0,0-0.1,0-0.1,0c-0.1,0-0.2,0.1-0.2,0.1c-0.1,0-0.1,0.1-0.2,0.1c-0.9,0.6-1.7,1.6-2.5,2.4
				c-0.2,0.2-0.4,0.4-0.6,0.5c-0.5,0.4-0.9,0.9-1.1,1.4c-0.2,0.5-0.2,1.1,0,1.7c0.1,0.5,0.3,1,0.5,1.4c0.6,1.2,1.3,2.2,2,3.3
				c0.1,0.1,0.2,0.2,0.2,0.4c0.3,0.5,0.7,1,1,1.6c0.3,0.4,0.5,0.9,0.8,1.4c0.1,0.2,0.2,0.4,0.3,0.6c0.1,0.2,0.1,0.3,0.2,0.5
				c-0.9,1-1.7,2.2-1.7,2.9c0,0.7,0.1,2,0.3,4c0.1,0.8,0.1,1.9-0.4,2.7c-0.5,0.7-1.3,1.1-2,0.9c-0.4-0.1-0.7-0.4-1-0.7
				c-0.3-0.3-0.6-0.6-1-1c-0.5-0.5-1.1-1.1-1.7-1.6c-1.3-1-2.8-1.3-4.1-0.9c-0.7,0.3-1.3,0.7-1.8,1.2c-3,2.7-5.3,6.1-6.9,9.8
				l-0.1,0.2c-0.2,0.6-0.5,1.2-0.9,1.6c-0.3,0.4-0.9,0.7-1.3,0.5c-0.6-0.2-0.8-1-0.8-1.6c0-0.5,0.2-1,0.4-1.6
				c0.1-0.3,0.2-0.7,0.3-1.1c0.5-2-0.2-4.1-1.5-5.2c-0.3-0.8-0.6-1.5-1-2.3c-0.4-1-1.5-1.1-2.5-1.1c-1.5,0-3,0.4-4.4,0.7
				c-1.5,0.3-3,0.6-4.5,0.6c0,0,0,0,0,0c0.7-0.8,1.5-1.5,2.1-1.9c1.8-1.6,4.1-3,5.5-5c0.5-0.8,0.6-1.4,0.3-2.2
				c1,0.9-1.4-5.3-1.7-4.1c-0.1-0.2-0.2-0.3-0.3-0.5c-0.2-0.3-0.5-0.5-0.9-0.6c-0.9-0.4-2.1-0.3-3.1-0.3c-1.3,0.1-2.6,0.2-3.9,0.4
				c-1,0.1-2.7,0.3-4.2,0.2c0.7-0.9,1.7-1.6,2.4-2.1c1.9-1.5,4.3-2.8,5.8-4.7c0.5-0.7,0.6-1.3,0.4-2.1c0,0,0,0,0,0.1
				c0,0,0-0.1,0-0.1c0-0.2-0.1-0.3-0.2-0.5c-0.4-1.1-0.9-2.2-1.4-3.2c-0.1-0.3-0.2-0.6-0.4-0.9c-0.2-0.3-0.5-0.5-0.8-0.6
				c-0.9-0.3-2,0-2.8,0.1c-1.2,0.3-2.5,0.6-3.7,0.9c-1.3,0.3-3.3,0.9-4.8,0.6c0.4-0.8,1.1-1.4,1.7-2c1.9-1.8,4.1-3.1,6-4.9
				c0.5-0.5,1.2-1.2,1.2-2c0-0.2,0-0.3-0.1-0.4c0,0,0-0.1,0-0.1c0.6,0.9,0.2-0.2-1.3-3.2c-0.2-0.5-0.4-0.9-0.6-1.3
				c-0.1-0.2-0.2-0.3-0.3-0.4c-0.7-0.6-1.7-0.5-2.5-0.5c-1.3,0.1-2.6,0.3-3.8,0.5c-1.3,0.2-2.7,0.5-4,0.6c-0.8,0.1-1.7,0.1-2.4,0
				c-1.2-1.2-2.3-2.5-3.3-3.9c-0.3-0.4-0.6-0.9-0.6-1.4c-0.1-0.8,0.6-1.6,1.3-2.4c1.2-1.2,2.4-2.5,3.9-3.3c1.1-0.5,2.3-0.8,3.4-1
				c1.9-0.3,3.7-0.6,5.6-0.7c0.5,0,0.9-0.1,1.2,0.1c0.5,0.3,0.7,1,0.7,1.7c0,0.4-0.1,0.9-0.3,1.4c-0.1,0.4-0.2,0.8-0.3,1.3
				c-0.3,2.1,0.6,4.2,2.2,5.5c0.6,0.5,1.2,0.8,1.8,1.1c0.7,0.4,1.4,0.7,1.9,1.3c0.8,0.8,1.3,2.1,1.7,3.2c0.7,2.1,1.5,4.2,1.8,6.3
				c0.1,0.8,0.2,1.7,0.3,2.5c0.1,0.6,0.1,1.3,0.2,2c0.4,3.1,1.4,6.3,3,9.9c1,2.1,2.2,4.5,4.2,6.2c0.4,0.3,1,0.8,1.7,0.8
				c0.8,0.1,1.5-0.3,2.1-0.6c0.3-0.2,0.7-0.3,1-0.4c0.1,0,0.3,0,0.4-0.1c0.3,0,0.6-0.1,0.9-0.2c0.6-0.2,1-0.6,1.3-0.9l3.1-2.9
				c0.1-0.1,0.1-0.1,0.2-0.2c0.3-0.3,0.6-0.7,0.7-1.3c0.2-1.1-0.6-1.7-1.2-2.3c-0.3-0.3-0.6-0.6-0.8-0.8c-0.1-0.9-0.2-1.8-0.4-2.8
				c-0.2-1-1.1-1.4-2.1-1.6c-1.4-0.3-3-0.4-4.4-0.5c-1.5-0.1-3-0.2-4.5-0.5c0,0,0,0,0,0c0.9-0.6,1.8-1,2.5-1.3
				c2.2-1,4.8-1.7,6.6-3.2c0.7-0.6,0.9-1.1,0.9-1.9c0.8,1.1,0-5.2-0.5-4.2c0-0.2-0.1-0.4-0.1-0.5c-0.1-0.3-0.4-0.6-0.7-0.8
				c-0.8-0.6-1.9-0.8-2.9-1c-1.3-0.3-2.6-0.4-3.9-0.6c-1-0.2-2.7-0.3-4.1-0.9c0.9-0.6,2.1-1,2.9-1.4c2.2-0.9,4.9-1.5,6.8-2.9
				c0.7-0.6,0.9-1.1,0.9-1.8c0,0,0,0,0,0.1c0,0,0-0.1,0-0.1c0-0.2,0-0.3,0-0.5c-0.1-1.1-0.3-2.2-0.4-3.3c0-0.3-0.1-0.7-0.2-1
				c-0.1-0.3-0.4-0.6-0.7-0.7c-0.8-0.5-1.9-0.5-2.8-0.6c-1.3-0.1-2.5,0-3.8-0.1c-1.4,0-3.4,0-4.8-0.7c0.6-0.6,1.4-1.1,2.2-1.4
				c1.4-0.7,3-1.3,4.5-1.9C795.4,177.8,795.8,178.2,796.1,178.6z M881,170.1c-0.4,0.8-1.2,1.5-2.2,1.8c-1.1,0.4-2.2,0.3-3.2-0.2
				c-0.4-0.2-0.9-0.5-1.3-0.8c-0.5-0.3-0.9-0.7-1.5-0.9c-0.5-0.3-1.2-0.4-1.9-0.4c-0.8-0.3-1.6-0.6-2.4-0.9c-1.1-0.4-2,0.3-2.8,1.2
				c-1.1,1.2-2,2.7-2.9,4.2c-0.9,1.4-1.8,2.9-3,4.2c0,0,0,0,0,0c-0.1-1.2,0-2.4,0.1-3.2c0.2-2.7,0.9-5.7,0.4-8.4
				c-0.2-1.1-0.6-1.5-1.4-1.9c1.5-0.2-5.2-2.9-4.5-1.8c-0.2-0.1-0.4-0.1-0.6-0.2c-0.4-0.1-0.8,0-1.2,0.2c-1,0.5-1.8,1.5-2.6,2.3
				c-1,1.1-1.9,2.4-2.8,3.5c-0.7,0.9-1.8,2.5-3.1,3.6c-0.1-1.3,0.1-2.7,0.2-3.6c0.3-2.7,1.2-5.7,0.8-8.4c-0.1-1-0.6-1.5-1.3-1.9
				c0,0,0,0,0.1,0c0,0-0.1,0-0.1,0c-0.2-0.1-0.3-0.2-0.5-0.2c-1.2-0.5-2.4-1-3.6-1.4c-0.3-0.1-0.7-0.3-1-0.4
				c-0.4-0.1-0.8,0.1-1.1,0.3c-0.9,0.5-1.5,1.6-2.1,2.5c-0.8,1.2-1.4,2.5-2.2,3.7c-0.8,1.4-1.9,3.4-3.3,4.4c-0.2-1-0.3-2-0.2-3
				c0.1-2.9,0.8-5.8,0.9-8.7c0-0.2,0-0.3,0-0.5c1-0.9,2.1-1.8,3.1-2.6c0.4-0.3,0.9-0.7,1.3-1c0.2-0.2,1,0.2,1.5,0.4
				c0.7,0.3,1.4,0.6,2.1,0.5c0.4,0,0.7-0.1,1-0.2c1.1-0.2,2-0.4,2.9,0.1c1.7,0.8,3.4,1.5,5.2,2.1c0.6,0.2,1.3,0.4,2,0.2
				c0.8-0.2,1.4-0.8,1.8-1.3l5.7-6.1c0.6-0.7,1.4-1.5,2.2-1.8c1.3-0.5,2.9-0.1,4.2,0.4c1.8,0.7,3.1,1.3,4.3,2c3,2,5.1,5.4,5.6,9
				c0,0.4,0.1,0.7,0,1c-0.1,0.3-0.2,0.5-0.3,0.8c-0.1,0.2-0.2,0.4-0.3,0.6c-0.8,1.8-0.3,4.1,1.2,5.9c1.4,1.6,3.4,2.5,4.9,3.1
				c1.1,0.4,1.7,0.9,1.7,1.3C881.1,169.7,881.1,169.8,881,170.1z"/>
		</g>
	</g>
</g>
<g class="item">
    <circle cx="895" cy="478" r="85" stroke="#999999" stroke-width="1" fill="transparent"></circle>
<!-- 	<path class="st0" d="M894.6,393.5c46.4,0,84,37.6,84,84c0,46.4-37.6,84-84,84s-84-37.6-84-84c0-22.3,8.8-43.7,24.6-59.4
		C851,402.3,872.3,393.5,894.6,393.5 M894.6,392.5c-46.9,0-85,38-85,85c0,46.9,38,85,85,85c46.9,0,85-38,85-85
		c0-22.6-9-44.2-24.9-60.1C938.8,401.4,917.1,392.4,894.6,392.5L894.6,392.5z"/> -->
	<text transform="matrix(1 0 0 1 1003.34 471.92)" class="st0 st1 st3">Antibody Generation</text>
	<text transform="matrix(1 0 0 1 1003.34 493.92)" class="st0 st4 st3">ImmunoMax™</text>
	<path class="st0" d="M874.2,514.1l-5-5l36.1-36.1l5,5L874.2,514.1z M941.7,470.5l-1.8-6.9l-34.5,9.2l1.8,6.9L941.7,470.5z
		 M944.8,481.1l-1.8-6.9l-29.6,7.9l1.8,6.9L944.8,481.1z M920.8,483.8l-2.6-10.8l-3,0.7l2.6,10.7L920.8,483.8z M905.4,477.2
		l-7.5-7.5l-2.2,2.2l7.5,7.5L905.4,477.2z M900.8,481.2l-7.5-7.5l-2.2,2.2l7.5,7.5L900.8,481.2z M902.4,470.1l-5-5.1l-36.1,36.1l5,5
		L902.4,470.1z M902.5,470.1l9.2-34.5l-6.9-1.9l-9.2,34.5L902.5,470.1z M893.2,462l7.9-29.6l-6.9-1.9l-7.9,29.6L893.2,462z
		 M901.6,460.2l0.7-3l-10.7-2.6l-0.7,3L901.6,460.2z"/>
</g>
<g class="item">
    <circle cx="322" cy="324" r="85" stroke="#999999" stroke-width="1" fill="transparent"></circle>

	<!-- <path class="st0" d="M322,240.1c46.4,0,84,37.6,84,84s-37.6,84-84,84c-46.4,0-84-37.6-84-84c0-22.3,8.8-43.7,24.6-59.4
		C278.4,248.9,299.7,240.1,322,240.1 M322,239.1c-46.9,0-85,38-85.1,84.9s38,85,84.9,85.1c46.9,0,85-38,85.1-84.9
		c0-22.6-8.9-44.2-24.9-60.1C366.2,248,344.5,239,322,239.1L322,239.1z"/> -->
	<text transform="matrix(1 0 0 1 137.22 318.65)" class="st0 st1 st3">Disease</text>
	<text transform="matrix(1 0 0 1 142.54 340.65)" class="st0 st1 st3">S</text>
	<text transform="matrix(1 0 0 1 153.92 340.65)" class="st0 st1 st3">tudies</text>
	<g class="item">
		<rect x="319.1" y="330.3" transform="matrix(0.5 -0.866 0.866 0.5 -134.8728 448.4732)" class="st0" width="3.7" height="21.5"/>
		<path class="st0" d="M348.3,354.2c11.2-10.4,11.8-28,1.4-39.1c-1.7-1.8-3.6-3.4-5.7-4.7l9-15.5l-1.4-0.8l2.2-3.9l-5.8-3.4
			l-2.2,3.8l-1.5-0.9L322.2,328l1.9,1.1l-2.7,4.7l4.9,2.8l2.7-4.7l1.9,1.1l9.3-16c9.4,6,12.2,18.4,6.2,27.8
			c-3.7,5.8-10.1,9.4-17,9.3H313v7.6h45.8v-7.6L348.3,354.2L348.3,354.2z"/>
		<path class="st0" d="M312.5,323.2h-25.3V298h4.9v19.4c0,1.5,1.2,2.7,2.6,2.7c1.5,0,2.6-1.2,2.6-2.6c0,0,0,0,0,0V298h5.1v19.4
			c0,1.5,1.2,2.7,2.6,2.7c1.5,0,2.6-1.2,2.6-2.6c0,0,0,0,0,0V298h4.8L312.5,323.2L312.5,323.2z M307.7,295.4v-6.1h0.8v-1.5h-6.8v1.5
			h0.8v6.1h-5.1v-6.1h0.7v-1.5h-6.8v1.5h0.8v6.1h-7.5v30.4h30.4v-30.4H307.7L307.7,295.4z"/>
	</g>
</g>
<g class="item">
    <circle cx="685" cy="687" r="85" stroke="#999999" stroke-width="1" fill="transparent"></circle>
<!-- 	<path class="st0" d="M685,603.1c46.4,0,84,37.6,84,84s-37.6,84-84,84s-84-37.6-84-84c0-22.3,8.8-43.7,24.6-59.4
		C641.4,611.9,662.7,603.1,685,603.1 M685,602.1c-46.9,0-85,38-85,85c0,46.9,38,85,85,85s85-38,85-85c0-22.5-8.9-44.2-24.9-60.1
		C729.2,611,707.6,602,685,602.1L685,602.1z"/> -->
	<text transform="matrix(1 0 0 1 797.76 670.5)" class="st0 st1 st3">Optimization and</text>
	<text transform="matrix(1 0 0 1 797.76 692.5)" class="st0 st1 st3">Functional Screening</text>
	<text transform="matrix(1 0 0 1 797.76 714.5)" class="st0 st4 st3">A</text>
	<text transform="matrix(1 0 0 1 811.04 714.5)" class="st0 st4 st3">ffiniMax™</text>
	<g class="item">
		<path class="st0" d="M660.5,677.8c0.7,0.3,1.5-0.1,1.8-0.8c0.3-0.7-0.1-1.5-0.8-1.8c-0.7-0.3-1.5,0.1-1.8,0.8c0,0,0,0,0,0
			C659.5,676.7,659.8,677.5,660.5,677.8z"/>
		<path class="st0" d="M660.2,671.2c0.5,0.2,1,0,1.2-0.5c0.2-0.5,0-1-0.5-1.2c-0.5-0.2-1,0-1.2,0.5c0,0,0,0,0,0
			C659.5,670.4,659.8,671,660.2,671.2z"/>
		<path class="st0" d="M663.8,679.9c-0.5-0.2-1,0-1.2,0.4h1.7C664.1,680.1,664,680,663.8,679.9z"/>
		<path class="st0" d="M665.3,671.1c0.8-0.3,1.2-1.2,0.9-2c-0.3-0.8-1.2-1.2-2-0.9c-0.8,0.3-1.2,1.2-0.9,2
			C663.6,671,664.5,671.4,665.3,671.1C665.3,671.1,665.3,671.1,665.3,671.1z"/>

			<ellipse transform="matrix(0.9356 -0.3531 0.3531 0.9356 -192.6823 276.756)" class="st0" cx="662.1" cy="666.4" rx="0.8" ry="0.8"/>
		<path class="st0" d="M665.6,674.5c-0.6,0.2-0.9,0.9-0.7,1.5c0.2,0.6,0.9,0.9,1.5,0.7c0.6-0.2,0.9-0.9,0.7-1.5c0,0,0,0,0,0
			C666.9,674.5,666.2,674.2,665.6,674.5z"/>
		<path class="st0" d="M706.6,677.8c0.7,0.3,1.5-0.1,1.8-0.8c0.3-0.7-0.1-1.5-0.8-1.8s-1.5,0.1-1.8,0.8c0,0,0,0,0,0
			C705.5,676.7,705.9,677.5,706.6,677.8C706.6,677.8,706.6,677.8,706.6,677.8z"/>
		<path class="st0" d="M706.3,671.2c0.5,0.2,1,0,1.2-0.5c0.2-0.5,0-1-0.5-1.2c-0.5-0.2-1,0-1.2,0.5c0,0,0,0,0,0
			C705.6,670.4,705.9,671,706.3,671.2z"/>
		<path class="st0" d="M709.8,679.9c-0.5-0.2-1,0-1.2,0.4h1.7C710.2,680.1,710,680,709.8,679.9z"/>
		<path class="st0" d="M711.4,671.1c0.8-0.3,1.2-1.2,0.9-2c-0.3-0.8-1.2-1.2-2-0.9c-0.8,0.3-1.2,1.2-0.9,2
			C709.7,671,710.6,671.4,711.4,671.1C711.4,671.1,711.4,671.1,711.4,671.1z"/>
		<path class="st0" d="M708.5,667.1c0.4-0.2,0.6-0.6,0.5-1c-0.2-0.4-0.6-0.6-1-0.5c-0.4,0.2-0.6,0.6-0.5,1c0,0,0,0,0,0
			C707.6,667.1,708,667.3,708.5,667.1z"/>
		<path class="st0" d="M711.7,674.5c-0.6,0.2-0.9,0.9-0.7,1.5c0.2,0.6,0.9,0.9,1.5,0.7c0.6-0.2,0.9-0.9,0.7-1.5c0,0,0,0,0,0
			C712.9,674.5,712.3,674.2,711.7,674.5C711.7,674.4,711.7,674.4,711.7,674.5z"/>
		<path class="st0" d="M671.9,660.1c-1.5,1.8-2.2,4-2.1,6.3v43.4c0,4.4-2.4,7.2-6.3,7.2s-6.3-2.7-6.3-7.2v-43.4
			c0.1-2.3-0.6-4.6-2.1-6.3L671.9,660.1L671.9,660.1z M653,660c0,0,2.9,1.7,2.8,6.4v43.4c0,5.1,3,8.4,7.6,8.4s7.6-3.3,7.6-8.4v-43.3
			c0-4.6,2.7-6.3,2.8-6.4c0.3-0.2,0.4-0.6,0.2-0.9c-0.1-0.2-0.3-0.3-0.5-0.3h-20.2c-0.3,0-0.5,0.2-0.6,0.5
			C652.7,659.6,652.8,659.9,653,660z"/>
		<path class="st0" d="M659.6,689.3c0.3-0.9,1.3-1.3,2.1-1c0.9,0.3,1.3,1.3,1,2.1c-0.3,0.9-1.3,1.3-2.1,1
			C659.8,691.1,659.3,690.1,659.6,689.3C659.6,689.3,659.6,689.3,659.6,689.3z M664.7,684.3c0.3-0.8,1.2-1.2,1.9-0.9
			c0.8,0.3,1.2,1.2,0.9,1.9c-0.3,0.8-1.1,1.1-1.9,0.9C664.8,685.9,664.4,685.1,664.7,684.3L664.7,684.3z M666.7,691.4
			c-0.2,0.4-0.6,0.7-1.1,0.5c-0.4-0.2-0.7-0.6-0.5-1.1c0.2-0.4,0.6-0.7,1.1-0.5c0,0,0,0,0,0C666.6,690.6,666.8,691,666.7,691.4
			C666.6,691.5,666.6,691.5,666.7,691.4L666.7,691.4z M663.5,715.6c3.2,0,5-2.1,5-5.8v-29.4h-4.2c0.2,0.3,0.2,0.6,0.1,0.8
			c-0.2,0.5-0.8,0.8-1.3,0.6c-0.5-0.2-0.8-0.8-0.6-1.3c0,0,0.1-0.1,0.1-0.1h-4.1v29.5C658.4,713.5,660.3,715.6,663.5,715.6
			L663.5,715.6z"/>
		<path class="st0" d="M683.6,677.8c0.7,0.3,1.5-0.1,1.8-0.8c0.3-0.7-0.1-1.5-0.8-1.8s-1.5,0.1-1.8,0.8c0,0,0,0,0,0
			C682.5,676.7,682.9,677.5,683.6,677.8C683.6,677.8,683.6,677.8,683.6,677.8z"/>
		<path class="st0" d="M683.3,671.2c0.5,0.2,1,0,1.2-0.5c0.2-0.5,0-1-0.5-1.2c-0.5-0.2-1,0-1.2,0.5c0,0,0,0,0,0
			C682.6,670.4,682.8,671,683.3,671.2z"/>
		<path class="st0" d="M686.8,679.9c-0.5-0.2-1,0-1.2,0.4h1.7C687.2,680.1,687,680,686.8,679.9z"/>
		<path class="st0" d="M688.3,671.1c0.8-0.3,1.2-1.2,0.9-2c-0.3-0.8-1.2-1.2-2-0.9c-0.8,0.3-1.2,1.2-0.9,2
			C686.6,671,687.5,671.4,688.3,671.1C688.3,671.1,688.3,671.1,688.3,671.1z"/>
		<path class="st0" d="M685.4,667.1c0.4-0.2,0.6-0.6,0.5-1c-0.2-0.4-0.6-0.6-1-0.5c-0.4,0.2-0.6,0.6-0.5,1c0,0,0,0,0,0
			C684.6,667.1,685,667.3,685.4,667.1z"/>
		<path class="st0" d="M688.6,674.5c-0.6,0.2-0.9,0.9-0.7,1.5c0.2,0.6,0.9,0.9,1.5,0.7c0.6-0.2,0.9-0.9,0.7-1.5c0,0,0,0,0,0
			C689.9,674.5,689.2,674.2,688.6,674.5C688.6,674.4,688.6,674.4,688.6,674.5z"/>
		<path class="st0" d="M678,660.1h17c-1.5,1.8-2.2,4-2.1,6.3v43.4c0,4.4-2.4,7.2-6.3,7.2s-6.3-2.7-6.3-7.2v-43.4
			C680.3,664.1,679.5,661.9,678,660.1z M686.5,718.2c4.6,0,7.6-3.3,7.6-8.4v-43.4c0-4.6,2.7-6.3,2.8-6.4c0.3-0.2,0.4-0.5,0.2-0.8
			c-0.1-0.2-0.3-0.3-0.5-0.3h-20.2c-0.3,0-0.6,0.3-0.6,0.6c0,0.2,0.1,0.4,0.3,0.5c0,0,2.9,1.7,2.8,6.4v43.4
			C678.9,714.9,681.9,718.2,686.5,718.2L686.5,718.2z"/>
		<path class="st0" d="M682.7,689.3c0.3-0.9,1.3-1.3,2.1-1c0.9,0.3,1.3,1.3,1,2.1c-0.3,0.9-1.3,1.3-2.1,1
			C682.8,691.1,682.3,690.1,682.7,689.3C682.7,689.3,682.7,689.3,682.7,689.3z M687.7,684.3c0.3-0.8,1.2-1.2,1.9-0.9
			c0.8,0.3,1.2,1.2,0.9,1.9c-0.3,0.8-1.1,1.1-1.9,0.9C687.8,685.9,687.5,685.1,687.7,684.3L687.7,684.3z M689.7,691.4
			c-0.2,0.4-0.6,0.7-1.1,0.5c-0.4-0.2-0.7-0.6-0.5-1.1c0.2-0.4,0.6-0.7,1.1-0.5c0,0,0,0,0,0C689.7,690.5,689.9,691,689.7,691.4
			C689.7,691.5,689.7,691.5,689.7,691.4L689.7,691.4z M686.5,715.6c3.2,0,5-2.1,5-5.8v-29.4h-4.2c0.2,0.3,0.2,0.6,0.1,0.8
			c-0.2,0.5-0.8,0.8-1.3,0.6c-0.5-0.2-0.8-0.8-0.6-1.3c0,0,0.1-0.1,0.1-0.1h-4.1v29.5C681.5,713.5,683.3,715.6,686.5,715.6
			L686.5,715.6z"/>
		<path class="st0" d="M718,660.1c-1.5,1.8-2.2,4-2.1,6.3v43.4c0,4.4-2.4,7.2-6.3,7.2s-6.3-2.7-6.3-7.2v-43.4
			c0.1-2.3-0.6-4.6-2.1-6.3L718,660.1L718,660.1z M698.8,659.3c-0.1,0.3,0,0.5,0.3,0.7c0,0,2.9,1.7,2.8,6.4v43.4
			c0,5.1,3,8.4,7.6,8.4s7.6-3.3,7.6-8.4v-43.4c0-4.6,2.7-6.3,2.8-6.4c0.3-0.2,0.4-0.6,0.2-0.9c-0.1-0.2-0.3-0.3-0.5-0.3h-20.2
			C699.2,658.9,698.9,659.1,698.8,659.3L698.8,659.3z"/>
		<path class="st0" d="M705.7,689.3c0.3-0.9,1.3-1.3,2.1-1c0.9,0.3,1.3,1.3,1,2.1c-0.3,0.9-1.3,1.3-2.1,1
			C705.8,691.1,705.4,690.1,705.7,689.3C705.7,689.3,705.7,689.3,705.7,689.3z M710.8,684.3c0.3-0.8,1.2-1.2,1.9-0.9
			s1.2,1.2,0.9,1.9c-0.3,0.8-1.1,1.1-1.9,0.9C710.9,685.9,710.5,685.1,710.8,684.3L710.8,684.3z M712.8,691.4
			c-0.2,0.4-0.6,0.7-1.1,0.5c-0.4-0.2-0.7-0.6-0.5-1.1c0.2-0.4,0.6-0.7,1.1-0.5c0,0,0,0,0,0C712.7,690.5,712.9,691,712.8,691.4
			C712.7,691.5,712.7,691.5,712.8,691.4L712.8,691.4z M709.6,715.6c3.2,0,5-2.1,5-5.8v-29.4h-4.2c0.2,0.3,0.2,0.6,0.1,0.8
			c-0.2,0.5-0.8,0.8-1.3,0.6c-0.5-0.2-0.8-0.8-0.6-1.3c0,0,0.1-0.1,0.1-0.1h-4.1v29.5C704.5,713.5,706.3,715.6,709.6,715.6
			L709.6,715.6z"/>
	</g>
</g>
</svg>
