<?xml version="1.0" encoding="utf-8"?>
<!-- Generator: Adobe Illustrator 19.2.1, SVG Export Plug-In . SVG Version: 6.00 Build 0)  -->
<!DOCTYPE svg PUBLIC "-//W3C//DTD SVG 1.1//EN" "http://www.w3.org/Graphics/SVG/1.1/DTD/svg11.dtd">
<svg version="1.1" id="Layer_1" xmlns="http://www.w3.org/2000/svg" xmlns:xlink="http://www.w3.org/1999/xlink" x="0px" y="0px"
	 viewBox="0 0 875 602.7" style="enable-background:new 0 0 875 602.7;" xml:space="preserve">
<style type="text/css">
	.st0{fill:#E6E6E6;}
</style>
<g>
	<g>
		<path class="st0" d="M729.5,366.5c1.5,0.5,3.2-0.4,3.6-1.9l11.6-37.1l20.2-10.5c1.4-0.7,2-2.5,1.3-3.9c-0.7-1.4-2.6-2-4-1.3
			L740,323.5l-12.3,39.4C727.1,364.4,728,366.1,729.5,366.5z"/>
	</g>
	<g>
		<path class="st0" d="M721.7,364.1c1.5,0.5,3.2-0.4,3.6-1.9l12.3-39.4L726,300.6c-0.8-1.4-2.5-2-4-1.2c-1.4,0.8-1.9,2.5-1.2,4
			l10.6,20.1l-11.6,37.1C719.4,362,720.2,363.6,721.7,364.1z"/>
	</g>
	<g>
		<path class="st0" d="M724.3,327.4c0.7,0.2,1.5,0.2,2.2-0.2c1.4-0.8,2-2.5,1.2-4l-9.7-18.5c-0.8-1.4-2.5-2-4-1.2
			c-1.4,0.8-2,2.5-1.2,4l9.7,18.5C723,326.6,723.6,327.1,724.3,327.4z"/>
	</g>
	<g>
		<path class="st0" d="M748.4,334.9c0.7,0.2,1.5,0.2,2.2-0.2l18.5-9.6c1.4-0.7,2-2.5,1.2-3.9c-0.7-1.4-2.5-2-3.9-1.2l-18.5,9.6
			c-1.4,0.7-2,2.5-1.2,3.9C747,334.2,747.7,334.7,748.4,334.9z"/>
	</g>
</g>
<g>
	<g>
		<path class="st0" d="M811,424.9c1.2,1.1,3.1,0.9,4.1-0.4l25.3-29.8l22.8-1.8c1.6-0.1,2.9-1.5,2.7-3.1c-0.1-1.6-1.6-2.9-3.2-2.7
			l-25.2,2l-26.9,31.7C809.6,422,809.8,423.8,811,424.9z"/>
	</g>
	<g>
		<path class="st0" d="M804.8,419.6c1.2,1.1,3.1,0.9,4.1-0.4l26.9-31.7l-2.1-25.2c-0.1-1.6-1.6-2.8-3.2-2.7
			c-1.6,0.1-2.8,1.6-2.6,3.2l1.9,22.8l-25.3,29.8C803.4,416.7,803.5,418.5,804.8,419.6z"/>
	</g>
	<g>
		<path class="st0" d="M821.6,386.5c0.6,0.5,1.3,0.8,2.2,0.7c1.6-0.1,2.8-1.6,2.7-3.2l-1.7-21c-0.1-1.6-1.6-2.8-3.2-2.7
			c-1.6,0.1-2.8,1.6-2.7,3.2l1.7,21C820.6,385.3,821,386,821.6,386.5z"/>
	</g>
	<g>
		<path class="st0" d="M840.9,403c0.6,0.5,1.3,0.8,2.1,0.7l21-1.7c1.6-0.1,2.8-1.5,2.7-3.2c-0.1-1.6-1.5-2.8-3.2-2.7l-21,1.7
			c-1.6,0.1-2.8,1.5-2.7,3.2C840,401.8,840.3,402.5,840.9,403z"/>
	</g>
</g>
<g>
	<g>
		<path class="st0" d="M877.9,374.3c1.4,1.3,3.5,1.2,4.8-0.2l30.8-33.3l26.5-1c1.9-0.1,3.4-1.6,3.3-3.5c-0.1-1.9-1.7-3.4-3.6-3.3
			l-29.3,1.1l-32.7,35.4C876.5,370.9,876.5,373,877.9,374.3z"/>
	</g>
	<g>
		<path class="st0" d="M871,367.9c1.4,1.3,3.5,1.2,4.8-0.2l32.7-35.4l-1.2-29.3c-0.1-1.9-1.7-3.4-3.6-3.3c-1.9,0.1-3.3,1.7-3.2,3.6
			l1.1,26.5L870.8,363C869.5,364.4,869.6,366.6,871,367.9z"/>
	</g>
	<g>
		<path class="st0" d="M892,330.3c0.6,0.6,1.5,0.9,2.5,0.9c1.9-0.1,3.4-1.7,3.3-3.6l-1-24.4c-0.1-1.9-1.7-3.4-3.6-3.3
			c-1.9,0.1-3.4,1.7-3.3,3.6l1,24.4C891,328.9,891.4,329.8,892,330.3z"/>
	</g>
	<g>
		<path class="st0" d="M913.7,350.3c0.6,0.6,1.5,0.9,2.4,0.9l24.4-0.9c1.9-0.1,3.4-1.7,3.3-3.5c-0.1-1.9-1.7-3.4-3.5-3.3l-24.4,0.9
			c-1.9,0.1-3.4,1.7-3.3,3.5C912.6,348.9,913,349.8,913.7,350.3z"/>
	</g>
</g>
<g>
	<g>
		<path class="st0" d="M731,443.4c1.8,0.2,3.4-1.1,3.5-2.9l4.1-43l19.5-16c1.4-1.1,1.6-3.2,0.5-4.6c-1.1-1.4-3.3-1.6-4.6-0.4
			l-21.6,17.8l-4.4,45.7C727.9,441.7,729.2,443.3,731,443.4z"/>
	</g>
	<g>
		<path class="st0" d="M722,442.6c1.8,0.2,3.4-1.1,3.5-2.9l4.4-45.7L712,372.4c-1.1-1.4-3.2-1.6-4.6-0.4c-1.4,1.1-1.5,3.2-0.4,4.6
			l16.2,19.4l-4.1,43C718.9,440.8,720.2,442.4,722,442.6z"/>
	</g>
	<g>
		<path class="st0" d="M716.3,402c0.8,0.1,1.7-0.2,2.4-0.7c1.4-1.1,1.6-3.2,0.4-4.6l-14.9-17.9c-1.1-1.4-3.2-1.6-4.6-0.4
			c-1.4,1.1-1.6,3.2-0.4,4.6l14.9,17.9C714.7,401.5,715.5,401.9,716.3,402z"/>
	</g>
	<g>
		<path class="st0" d="M744.3,404.7c0.8,0.1,1.7-0.2,2.4-0.7l18-14.8c1.4-1.1,1.6-3.2,0.4-4.6c-1.1-1.4-3.2-1.6-4.6-0.4l-18,14.8
			c-1.4,1.1-1.6,3.2-0.4,4.6C742.6,404.2,743.4,404.6,744.3,404.7z"/>
	</g>
</g>
<g>
	<g>
		<path class="st0" d="M236.1,477c2-1.2,2.6-3.7,1.4-5.7l-28.1-47.2l8-31.1c0.6-2.2-0.7-4.5-2.9-5.1c-2.2-0.6-4.5,0.8-5.1,3
			l-8.8,34.4l29.8,50.2C231.6,477.5,234.2,478.2,236.1,477z"/>
	</g>
	<g>
		<path class="st0" d="M226.2,482.9c2-1.2,2.6-3.7,1.4-5.7L197.8,427l-34.5-8.7c-2.2-0.6-4.5,0.8-5.1,3c-0.6,2.2,0.9,4.4,3.1,5
			l31.2,7.8l28.1,47.2C221.8,483.4,224.3,484,226.2,482.9z"/>
	</g>
	<g>
		<path class="st0" d="M189.9,445.5c0.9-0.5,1.6-1.4,1.9-2.5c0.6-2.2-0.8-4.5-3-5l-28.7-7.2c-2.2-0.6-4.5,0.8-5,3
			c-0.6,2.2,0.8,4.5,3,5l28.7,7.2C187.9,446.2,189,446,189.9,445.5z"/>
	</g>
	<g>
		<path class="st0" d="M220.6,427.2c0.9-0.5,1.6-1.4,1.9-2.5l7.3-28.6c0.6-2.2-0.8-4.5-3-5c-2.2-0.6-4.5,0.8-5,3l-7.3,28.6
			c-0.6,2.2,0.8,4.5,3,5C218.6,428,219.7,427.8,220.6,427.2z"/>
	</g>
</g>
<g>
	<g>
		<path class="st0" d="M397.6,325.8c1.9-0.5,2.9-2.5,2.4-4.3l-12.7-45l13.4-23.8c1-1.7,0.4-3.9-1.3-4.8c-1.7-1-3.9-0.3-4.9,1.4
			l-14.8,26.3l13.5,47.8C393.8,325.3,395.8,326.4,397.6,325.8z"/>
	</g>
	<g>
		<path class="st0" d="M388.2,328.5c1.9-0.5,2.9-2.5,2.4-4.3l-13.5-47.8l-26.5-14.7c-1.7-0.9-3.9-0.3-4.8,1.4
			c-0.9,1.7-0.3,3.8,1.4,4.8l23.9,13.3l12.7,45C384.4,327.9,386.3,329,388.2,328.5z"/>
	</g>
	<g>
		<path class="st0" d="M366.6,289.7c0.9-0.2,1.6-0.8,2.1-1.7c0.9-1.7,0.3-3.8-1.4-4.8l-22-12.3c-1.7-0.9-3.8-0.3-4.8,1.4
			c-0.9,1.7-0.3,3.8,1.4,4.8l22,12.3C364.8,289.9,365.7,290,366.6,289.7z"/>
	</g>
	<g>
		<path class="st0" d="M395.8,281.5c0.9-0.2,1.6-0.8,2.1-1.7l12.3-21.9c1-1.7,0.4-3.8-1.3-4.8c-1.7-1-3.8-0.4-4.8,1.3l-12.3,21.9
			c-1,1.7-0.4,3.8,1.3,4.8C394,281.7,395,281.7,395.8,281.5z"/>
	</g>
</g>
<g>
	<g>
		<path class="st0" d="M478.6,303.4c2.5-0.7,4-3.2,3.3-5.7l-15.7-60.6l18.6-31.5c1.3-2.2,0.6-5.2-1.6-6.5c-2.2-1.3-5.2-0.5-6.5,1.7
			l-20.6,34.8l16.7,64.4C473.5,302.5,476,304.1,478.6,303.4z"/>
	</g>
	<g>
		<path class="st0" d="M465.9,306.7c2.5-0.7,4-3.2,3.3-5.7l-16.7-64.4l-35-20.4c-2.2-1.3-5.2-0.6-6.5,1.7c-1.3,2.2-0.5,5.1,1.8,6.4
			l31.6,18.4l15.7,60.6C460.8,305.8,463.4,307.3,465.9,306.7z"/>
	</g>
	<g>
		<path class="st0" d="M438,254.3c1.2-0.3,2.2-1.1,2.9-2.2c1.3-2.2,0.6-5.1-1.7-6.5l-29.1-17c-2.2-1.3-5.1-0.6-6.5,1.7
			c-1.3,2.2-0.6,5.1,1.7,6.5l29.1,17C435.6,254.4,436.9,254.6,438,254.3z"/>
	</g>
	<g>
		<path class="st0" d="M477.4,244c1.2-0.3,2.2-1,2.9-2.2l17.1-29c1.3-2.2,0.6-5.1-1.7-6.5c-2.2-1.3-5.1-0.6-6.5,1.7l-17.1,29
			c-1.3,2.2-0.6,5.1,1.7,6.5C474.9,244.2,476.2,244.3,477.4,244z"/>
	</g>
</g>
<g>
	<g>
		<path class="st0" d="M622.2,100.3c0.6,2.6,3.2,4.2,5.8,3.6l62.7-14.2l31.7,20.2c2.3,1.4,5.3,0.8,6.7-1.4c1.4-2.3,0.7-5.3-1.5-6.8
			l-35.1-22.2l-66.6,15.1C623.3,95.2,621.6,97.7,622.2,100.3z"/>
	</g>
	<g>
		<path class="st0" d="M619.2,87.2c0.6,2.6,3.2,4.2,5.8,3.6l66.6-15.1l22.1-35.3c1.4-2.3,0.7-5.3-1.5-6.7c-2.3-1.4-5.2-0.6-6.7,1.6
			l-20,31.9l-62.7,14.2C620.3,82,618.6,84.6,619.2,87.2z"/>
	</g>
	<g>
		<path class="st0" d="M674,60.3c0.3,1.2,1,2.3,2.1,3c2.3,1.4,5.3,0.7,6.7-1.5l18.4-29.3c1.4-2.3,0.7-5.3-1.5-6.7
			c-2.3-1.4-5.3-0.7-6.7,1.5l-18.4,29.3C673.9,57.8,673.7,59.1,674,60.3z"/>
	</g>
	<g>
		<path class="st0" d="M683.2,101.1c0.3,1.2,1,2.3,2.1,3l29.2,18.5c2.3,1.4,5.3,0.8,6.7-1.5c1.4-2.3,0.8-5.3-1.5-6.7l-29.2-18.5
			c-2.3-1.4-5.3-0.8-6.7,1.5C683.1,98.5,682.9,99.9,683.2,101.1z"/>
	</g>
</g>
<g>
	<g>
		<path class="st0" d="M997.9,375.5c-1.5-1.5-4-1.6-5.5-0.1l-37.2,36.1l-30.3-0.5c-2.2,0-4,1.6-4,3.8c0,2.2,1.7,4,3.9,4l33.5,0.5
			l39.5-38.4C999.3,379.5,999.4,377.1,997.9,375.5z"/>
	</g>
	<g>
		<path class="st0" d="M1005.4,383.3c-1.5-1.5-4-1.6-5.5-0.1l-39.5,38.4l-0.4,33.5c0,2.2,1.7,4,3.9,4c2.2,0,3.9-1.8,3.9-3.9
			l0.3-30.3l37.2-36.1C1006.9,387.3,1006.9,384.8,1005.4,383.3z"/>
	</g>
	<g>
		<path class="st0" d="M979.1,424.8c-0.7-0.7-1.7-1.2-2.8-1.2c-2.2,0-3.9,1.7-4,3.9l-0.4,27.9c0,2.2,1.7,3.9,3.9,4
			c2.2,0,3.9-1.7,4-3.9l0.4-27.9C980.2,426.5,979.7,425.5,979.1,424.8z"/>
	</g>
	<g>
		<path class="st0" d="M955.6,400.6c-0.7-0.7-1.7-1.2-2.7-1.2L925,399c-2.2,0-3.9,1.7-4,3.8c0,2.2,1.7,3.9,3.8,4l27.9,0.5
			c2.2,0,3.9-1.7,4-3.8C956.7,402.3,956.3,401.3,955.6,400.6z"/>
	</g>
</g>
<g>
	<g>
		<path class="st0" d="M964.8,520.5c1-2.3,0-4.9-2.2-6l-54.6-25l-12.1-33c-0.9-2.3-3.4-3.6-5.8-2.7c-2.3,0.9-3.6,3.6-2.7,5.9
			l13.5,36.4l58,26.6C961.1,523.8,963.8,522.8,964.8,520.5z"/>
	</g>
	<g>
		<path class="st0" d="M959.6,532c1-2.3,0-4.9-2.2-6l-58-26.6l-36.4,13.7c-2.3,0.9-3.5,3.5-2.7,5.9c0.9,2.3,3.5,3.4,5.9,2.6
			l32.9-12.4l54.6,25C955.9,535.2,958.5,534.2,959.6,532z"/>
	</g>
	<g>
		<path class="st0" d="M903.7,520.9c0.5-1.1,0.6-2.3,0.1-3.5c-0.9-2.3-3.5-3.5-5.8-2.7l-30.3,11.3c-2.3,0.9-3.5,3.5-2.7,5.8
			c0.9,2.3,3.5,3.5,5.8,2.7l30.3-11.3C902.3,522.8,903.2,522,903.7,520.9z"/>
	</g>
	<g>
		<path class="st0" d="M919.9,485.4c0.5-1.1,0.6-2.3,0.1-3.5l-11.2-30.3c-0.9-2.3-3.5-3.5-5.8-2.7c-2.3,0.9-3.5,3.5-2.7,5.8
			l11.2,30.3c0.9,2.3,3.5,3.5,5.8,2.7C918.6,487.4,919.4,486.5,919.9,485.4z"/>
	</g>
</g>
<g>
	<g>
		<path class="st0" d="M378.4,464.5c1.2-2.3,0.3-5.2-2-6.4l-55.8-29.2l-10.9-35.2c-0.8-2.5-3.4-4-5.9-3.2c-2.5,0.8-3.9,3.5-3.2,6
			l12.1,38.8l59.2,31C374.3,467.7,377.1,466.8,378.4,464.5z"/>
	</g>
	<g>
		<path class="st0" d="M372.2,476.2c1.2-2.3,0.3-5.2-2-6.4l-59.3-31l-38.8,12.3c-2.5,0.8-3.9,3.5-3.1,6c0.8,2.5,3.5,3.8,6,3
			l35.1-11.1l55.8,29.2C368.2,479.3,371,478.5,372.2,476.2z"/>
	</g>
	<g>
		<path class="st0" d="M314.4,461.5c0.6-1.1,0.7-2.4,0.3-3.6c-0.8-2.5-3.5-3.9-6-3.1L276.4,465c-2.5,0.8-3.9,3.5-3.1,6
			c0.8,2.5,3.5,3.9,6,3.1l32.3-10.2C312.8,463.4,313.8,462.6,314.4,461.5z"/>
	</g>
	<g>
		<path class="st0" d="M333.3,425.3c0.6-1.1,0.7-2.4,0.3-3.6l-10.1-32.4c-0.8-2.5-3.4-3.9-5.9-3.1c-2.5,0.8-3.9,3.4-3.1,5.9
			l10.1,32.4c0.8,2.5,3.4,3.9,5.9,3.1C331.8,427.2,332.8,426.4,333.3,425.3z"/>
	</g>
</g>
<g>
	<g>
		<path class="st0" d="M483.4,395.1c0.9-1.7,0.1-3.8-1.6-4.7L440,369.6l-8.6-25.9c-0.6-1.8-2.6-2.9-4.4-2.3
			c-1.8,0.6-2.9,2.7-2.3,4.5l9.5,28.7l44.5,22.2C480.5,397.5,482.6,396.8,483.4,395.1z"/>
	</g>
	<g>
		<path class="st0" d="M479.1,403.9c0.9-1.7,0.1-3.8-1.6-4.7L433,377l-28.7,9.7c-1.8,0.6-2.8,2.6-2.2,4.5c0.6,1.8,2.7,2.8,4.5,2.2
			l25.9-8.8l41.8,20.9C476.1,406.3,478.2,405.6,479.1,403.9z"/>
	</g>
	<g>
		<path class="st0" d="M435.9,393.8c0.4-0.8,0.5-1.8,0.2-2.7c-0.6-1.8-2.6-2.8-4.5-2.2l-23.9,8c-1.8,0.6-2.8,2.6-2.2,4.5
			c0.6,1.8,2.6,2.8,4.5,2.2l23.9-8C434.8,395.3,435.5,394.6,435.9,393.8z"/>
	</g>
	<g>
		<path class="st0" d="M449.4,366.7c0.4-0.8,0.5-1.8,0.2-2.7l-7.9-23.9c-0.6-1.8-2.6-2.8-4.5-2.2c-1.8,0.6-2.8,2.6-2.2,4.5l7.9,23.9
			c0.6,1.8,2.6,2.8,4.5,2.2C448.3,368.1,449,367.5,449.4,366.7z"/>
	</g>
</g>
<g>
	<g>
		<path class="st0" d="M288.6,348c2.8-0.1,4.9-2.4,4.8-5.2L291,276l26.7-28.6c1.9-2,1.9-5.2-0.2-7.1c-2-1.9-5.3-1.8-7.2,0.3
			l-29.4,31.6l2.6,71C283.5,345.9,285.8,348.1,288.6,348z"/>
	</g>
	<g>
		<path class="st0" d="M274.6,348.5c2.8-0.1,4.9-2.4,4.8-5.2l-2.6-71L245,243c-2-1.9-5.3-1.8-7.2,0.3c-1.9,2-1.7,5.2,0.4,7.1
			l28.7,26.5l2.5,66.8C269.6,346.4,271.9,348.6,274.6,348.5z"/>
	</g>
	<g>
		<path class="st0" d="M257.6,287.4c1.3,0,2.6-0.6,3.5-1.6c1.9-2,1.8-5.2-0.3-7.1l-26.4-24.4c-2-1.9-5.2-1.8-7.1,0.3
			c-1.9,2-1.8,5.2,0.3,7.1l26.4,24.4C255,287,256.4,287.5,257.6,287.4z"/>
	</g>
	<g>
		<path class="st0" d="M301,285.8c1.3,0,2.6-0.6,3.5-1.6l24.5-26.3c1.9-2,1.8-5.2-0.3-7.1c-2-1.9-5.2-1.8-7.1,0.3l-24.5,26.3
			c-1.9,2-1.8,5.2,0.3,7.1C298.4,285.4,299.7,285.9,301,285.8z"/>
	</g>
</g>
<g>
	<g>
		<path class="st0" d="M338.7,210.9c2,0.6,4.1-0.6,4.7-2.6l13.6-48.6l25.8-14.4c1.8-1,2.5-3.3,1.5-5.2c-1-1.8-3.4-2.5-5.2-1.5
			l-28.4,16l-14.4,51.6C335.5,208.3,336.7,210.4,338.7,210.9z"/>
	</g>
	<g>
		<path class="st0" d="M328.5,208.1c2,0.6,4.1-0.6,4.7-2.6l14.4-51.6l-16.1-28.4c-1-1.8-3.4-2.5-5.2-1.4c-1.8,1-2.4,3.4-1.4,5.2
			l14.6,25.7l-13.6,48.6C325.4,205.4,326.5,207.5,328.5,208.1z"/>
	</g>
	<g>
		<path class="st0" d="M330.4,160.3c0.9,0.3,2,0.2,2.9-0.4c1.8-1,2.5-3.4,1.4-5.2l-13.4-23.6c-1-1.8-3.4-2.5-5.2-1.4
			c-1.8,1-2.5,3.4-1.4,5.2l13.4,23.6C328.6,159.4,329.4,160,330.4,160.3z"/>
	</g>
	<g>
		<path class="st0" d="M362,169.1c0.9,0.3,2,0.2,2.9-0.3l23.7-13.3c1.8-1,2.5-3.3,1.5-5.2c-1-1.8-3.3-2.5-5.2-1.5l-23.7,13.3
			c-1.8,1-2.5,3.3-1.5,5.2C360.2,168.2,361,168.8,362,169.1z"/>
	</g>
</g>
<g>
	<g>
		<path class="st0" d="M803.4,127.9c2.1,0.6,4.3-0.7,4.8-2.8l14-50.6L849,59.4c1.9-1.1,2.6-3.5,1.6-5.4c-1.1-1.9-3.6-2.6-5.5-1.5
			l-29.5,16.7L800.7,123C800.1,125.1,801.3,127.3,803.4,127.9z"/>
	</g>
	<g>
		<path class="st0" d="M792.8,125c2.1,0.6,4.3-0.7,4.8-2.8l14.9-53.8l-16.9-29.5c-1.1-1.9-3.5-2.6-5.4-1.5c-1.9,1.1-2.5,3.5-1.4,5.4
			l15.2,26.7l-14,50.6C789.5,122.2,790.7,124.4,792.8,125z"/>
	</g>
	<g>
		<path class="st0" d="M794.6,75.2c1,0.3,2.1,0.2,3-0.4c1.9-1.1,2.6-3.5,1.5-5.4l-14-24.6c-1.1-1.9-3.5-2.6-5.4-1.5
			c-1.9,1.1-2.6,3.5-1.5,5.4l14,24.6C792.8,74.3,793.6,74.9,794.6,75.2z"/>
	</g>
	<g>
		<path class="st0" d="M827.5,84.3c1,0.3,2.1,0.2,3-0.4L855.1,70c1.9-1.1,2.6-3.5,1.5-5.4c-1.1-1.9-3.5-2.6-5.4-1.5L826.6,77
			c-1.9,1.1-2.6,3.5-1.5,5.4C825.6,83.4,826.5,84,827.5,84.3z"/>
	</g>
</g>
<g>
	<g>
		<path class="st0" d="M959.2,262c1.5,1.4,3.7,1.3,5.1-0.1l33.4-35l28.3-0.6c2,0,3.7-1.7,3.6-3.7s-1.8-3.7-3.8-3.6l-31.3,0.7
			l-35.5,37.2C957.7,258.4,957.7,260.6,959.2,262z"/>
	</g>
	<g>
		<path class="st0" d="M951.9,255c1.5,1.4,3.7,1.3,5.1-0.1l35.5-37.2l-0.8-31.3c-0.1-2-1.7-3.6-3.8-3.6c-2,0.1-3.6,1.8-3.5,3.8
			l0.8,28.3l-33.4,35C950.4,251.3,950.4,253.6,951.9,255z"/>
	</g>
	<g>
		<path class="st0" d="M975,215.3c0.7,0.6,1.6,1,2.6,1c2-0.1,3.6-1.7,3.6-3.7l-0.7-26.1c-0.1-2-1.7-3.6-3.7-3.6
			c-2,0.1-3.6,1.7-3.6,3.7l0.7,26.1C973.9,213.8,974.3,214.7,975,215.3z"/>
	</g>
	<g>
		<path class="st0" d="M997.8,237.1c0.7,0.6,1.6,1,2.6,1l26.1-0.6c2,0,3.6-1.7,3.6-3.7c0-2-1.7-3.6-3.7-3.6l-26.1,0.6
			c-2,0-3.6,1.7-3.6,3.7C996.6,235.5,997.1,236.4,997.8,237.1z"/>
	</g>
</g>
<g>
	<g>
		<path class="st0" d="M783.8,538.9c2.3,0.2,4.2-1.5,4.4-3.8l4.3-54.7l24.5-20.8c1.7-1.5,2-4.1,0.5-5.8c-1.5-1.7-4.2-1.9-5.9-0.5
			l-27,23l-4.6,58.2C779.8,536.8,781.5,538.8,783.8,538.9z"/>
	</g>
	<g>
		<path class="st0" d="M772.3,538c2.3,0.2,4.2-1.5,4.4-3.8l4.6-58.2l-23.2-27c-1.5-1.7-4.1-1.9-5.9-0.5c-1.7,1.5-1.9,4.1-0.4,5.8
			l20.9,24.3l-4.3,54.7C768.3,535.9,770,537.9,772.3,538z"/>
	</g>
	<g>
		<path class="st0" d="M764.2,486.6c1.1,0.1,2.1-0.2,3-1c1.7-1.5,1.9-4.1,0.4-5.8l-19.2-22.4c-1.5-1.7-4.1-1.9-5.8-0.4
			c-1.7,1.5-1.9,4.1-0.4,5.8l19.2,22.4C762.1,486,763.2,486.5,764.2,486.6z"/>
	</g>
	<g>
		<path class="st0" d="M799.8,489.4c1.1,0.1,2.1-0.2,3-1l22.5-19.2c1.7-1.5,2-4.1,0.5-5.8c-1.5-1.7-4.1-2-5.8-0.5l-22.5,19.2
			c-1.7,1.5-2,4.1-0.5,5.8C797.7,488.8,798.7,489.3,799.8,489.4z"/>
	</g>
</g>
<g>
	<g>
		<path class="st0" d="M424.6,554.6c2.4,0.7,4.9-0.6,5.6-3l17.3-57.2l30.9-16.4c2.2-1.2,3.1-3.9,1.9-6.1c-1.2-2.2-4-3-6.2-1.9
			L440,488.2L421.6,549C420.9,551.3,422.2,553.9,424.6,554.6z"/>
	</g>
	<g>
		<path class="st0" d="M412.6,550.9c2.4,0.7,4.9-0.6,5.6-3l18.4-60.8l-18.4-34.1c-1.2-2.2-3.9-3-6.1-1.8c-2.2,1.2-2.9,3.9-1.8,6.1
			l16.6,30.8l-17.3,57.2C408.9,547.7,410.2,550.2,412.6,550.9z"/>
	</g>
	<g>
		<path class="st0" d="M416,494.3c1.1,0.3,2.3,0.2,3.4-0.3c2.2-1.2,3-3.9,1.8-6.1L406,459.6c-1.2-2.2-3.9-3-6.1-1.8
			c-2.2,1.2-3,3.9-1.8,6.1l15.2,28.3C413.9,493.3,414.9,494,416,494.3z"/>
	</g>
	<g>
		<path class="st0" d="M453.2,505.6c1.1,0.3,2.3,0.2,3.4-0.3l28.4-15.1c2.2-1.2,3-3.9,1.9-6.1c-1.2-2.2-3.9-3-6.1-1.9l-28.4,15.1
			c-2.2,1.2-3,3.9-1.9,6.1C451.1,504.5,452.1,505.3,453.2,505.6z"/>
	</g>
</g>
<g>
	<g>
		<path class="st0" d="M330.8,602.7c1.7,0.4,3.4-0.8,3.7-2.5l8.5-41.3l20.6-13.5c1.5-1,1.9-2.9,1-4.4c-1-1.5-3-1.9-4.5-0.9l-22.8,15
			l-9,43.9C328,600.6,329,602.3,330.8,602.7z"/>
	</g>
	<g>
		<path class="st0" d="M322.1,600.9c1.7,0.4,3.4-0.8,3.7-2.5l9-43.9l-15.1-22.8c-1-1.5-3-1.9-4.4-0.9c-1.5,1-1.8,3-0.8,4.4
			l13.7,20.6l-8.5,41.3C319.3,598.9,320.4,600.5,322.1,600.9z"/>
	</g>
	<g>
		<path class="st0" d="M320.8,560.9c0.8,0.2,1.7,0,2.4-0.5c1.5-1,1.9-2.9,0.9-4.4l-12.5-18.9c-1-1.5-2.9-1.9-4.4-0.9
			c-1.5,1-1.9,2.9-0.9,4.4l12.5,18.9C319.3,560.3,320,560.7,320.8,560.9z"/>
	</g>
	<g>
		<path class="st0" d="M347.7,566.4c0.8,0.2,1.7,0,2.4-0.5l19-12.5c1.5-1,1.9-2.9,0.9-4.4c-1-1.5-2.9-1.9-4.4-0.9l-19,12.5
			c-1.5,1-1.9,2.9-0.9,4.4C346.2,565.8,346.9,566.2,347.7,566.4z"/>
	</g>
</g>
<g>
	<g>
		<g>
			<path class="st0" d="M594.9,578.5L594.9,578.5c-13.8-4-21.7-18.5-17.6-32.3l99.2-338.1l0.1-0.4l187.8-102.9
				c12.7-6.9,28-2.4,34.9,10.2c6.9,12.7,2.4,28.5-10.1,35.4L720.4,243l-93.3,317.8c-3.3,11.3-13.7,18.7-25,18.7
				C599.8,579.5,597.3,579.2,594.9,578.5z M865.4,106.6L678.3,209.1l-99.1,337.7c-3.7,12.7,3.6,26.1,16.3,29.8l0,0
				c12.7,3.7,26.1-3.6,29.8-16.3L718.6,242l0.1-0.4l169.5-93c11.5-6.3,15.7-20.9,9.3-32.6c-4.4-8-12.3-12.4-20.7-12.4
				C873.1,103.6,869.1,104.5,865.4,106.6z"/>
		</g>
	</g>
	<g>
		<g>
			<path class="st0" d="M525.8,558.2L525.8,558.2c-6.7-2-12.2-6.4-15.5-12.5c-3.3-6.1-4.1-13.1-2.1-19.8l93.3-317.8L508.2,38.6
				c-3.4-6.1-4.2-13.2-2.3-19.8c1.9-6.7,6.2-12.3,12.3-15.6c6.1-3.3,13.2-4.1,19.9-2.1c6.7,2,12.3,6.4,15.6,12.5l103.6,188.1
				l0.2,0.4l-99.4,338.5c-2,6.7-6.4,12.2-12.5,15.5c-3.9,2.1-8.1,3.2-12.4,3.2C530.7,559.2,528.2,558.9,525.8,558.2z M551.9,14.5
				c-3.1-5.6-8.2-9.7-14.4-11.5c-6.2-1.8-12.8-1.1-18.4,2c-5.6,3.1-9.6,8.2-11.3,14.4c-1.7,6.2-0.9,12.7,2.2,18.3l93.5,169.9
				l0.2,0.4l-93.5,318.6c-1.8,6.2-1.1,12.6,2,18.3c3.1,5.6,8.2,9.7,14.3,11.5l0,0c6.1,1.8,12.6,1.1,18.3-2
				c5.6-3.1,9.7-8.2,11.5-14.3l99.1-337.7L551.9,14.5z"/>
		</g>
	</g>
	<g>
		<g>
			<path class="st0" d="M541.9,244L541.9,244c-6.6-2-12.1-6.4-15.5-12.4L440.6,75c-3.3-6.1-4.1-13.1-2.2-19.8
				c1.9-6.7,6.4-12.2,12.5-15.5c6.1-3.3,13.1-4.1,19.8-2.2c6.7,1.9,12.2,6.4,15.5,12.5l85.9,156.5c3.3,6.1,4.1,13.1,2.2,19.8
				c-1.9,6.7-6.4,12.2-12.5,15.5c-3.9,2.1-8.2,3.2-12.5,3.2C546.8,245.1,544.4,244.7,541.9,244z M451.8,41.5
				c-5.6,3.1-9.7,8.2-11.5,14.3c-1.8,6.2-1.1,12.6,2,18.3l85.9,156.5c3.1,5.6,8.1,9.7,14.3,11.5c6.2,1.8,12.7,1.1,18.3-2
				c5.6-3.1,9.7-8.2,11.5-14.3c1.8-6.2,1.1-12.6-2-18.3L484.4,51c-3.1-5.6-8.2-9.7-14.3-11.5c-2.2-0.6-4.5-1-6.7-1
				C459.4,38.5,455.4,39.5,451.8,41.5z"/>
		</g>
	</g>
	<g>
		<g>
			<path class="st0" d="M748.7,304.7L748.7,304.7c-6.7-2-12.2-6.4-15.5-12.5c-3.3-6.1-4.1-13.1-2.1-19.8c2-6.7,6.4-12.2,12.5-15.5
				l156.9-85.3c6.1-3.3,13.1-4.1,19.8-2.1c6.7,2,12.2,6.4,15.5,12.5c3.3,6.1,4.1,13.1,2.1,19.8c-2,6.7-6.4,12.2-12.5,15.5
				l-156.9,85.3c-3.9,2.1-8.1,3.2-12.4,3.2C753.6,305.8,751.1,305.4,748.7,304.7z M901.4,173.4l-156.9,85.3
				c-5.6,3.1-9.7,8.1-11.6,14.3c-1.8,6.1-1.1,12.6,1.9,18.3c3.1,5.6,8.2,9.8,14.3,11.6l0,0c6.1,1.8,12.6,1.1,18.2-1.9l156.9-85.3
				c5.6-3.1,9.7-8.1,11.6-14.3c1.8-6.1,1.1-12.6-1.9-18.3c-3.1-5.6-8.1-9.7-14.3-11.6c-2.3-0.7-4.6-1-6.8-1
				C908.9,170.5,905,171.5,901.4,173.4z"/>
		</g>
	</g>
</g>
</svg>
