<?xml version="1.0" encoding="utf-8"?>
<!-- Generator: Adobe Illustrator 19.2.1, SVG Export Plug-In . SVG Version: 6.00 Build 0)  -->
<!DOCTYPE svg PUBLIC "-//W3C//DTD SVG 1.1//EN" "http://www.w3.org/Graphics/SVG/1.1/DTD/svg11.dtd">
<svg version="1.1" id="Layer_1" xmlns="http://www.w3.org/2000/svg" xmlns:xlink="http://www.w3.org/1999/xlink" x="0px" y="0px"
	 viewBox="0 0 1280 800" style="enable-background:new 0 0 1280 800;" xml:space="preserve">
<style type="text/css">
	.st0{fill:none;stroke:#DDDDDD;stroke-miterlimit:10;}
</style>
<polygon class="st0" points="416.3,625.5 330.2,476 416.3,326.5 588.6,326.5 674.8,476 588.6,625.5 "/>
<polygon class="st0" points="416.8,302.5 330.7,153 416.8,3.5 589.1,3.5 675.2,153 589.1,302.5 "/>
<polygon class="st0" points="704.1,461.5 618,312.5 704.1,163.5 876.4,163.5 962.5,312.5 876.4,461.5 "/>
<polygon class="st0" points="1153.9,6.5 1240.1,155.5 1153.9,304.5 981.6,304.5 895.5,155.5 981.6,6.5 "/>
<polygon class="st0" points="877.5,496.5 963.7,647 877.5,797.5 705.2,797.5 619.1,647 705.2,496.5 "/>
<polygon class="st0" points="297.4,163.5 383.5,312.5 297.4,461.5 125.1,461.5 38.9,312.5 125.1,163.5 "/>
</svg>
