<?xml version="1.0" encoding="utf-8"?>
<!-- Generator: Adobe Illustrator 19.2.1, SVG Export Plug-In . SVG Version: 6.00 Build 0)  -->
<!DOCTYPE svg PUBLIC "-//W3C//DTD SVG 1.1//EN" "http://www.w3.org/Graphics/SVG/1.1/DTD/svg11.dtd">
<svg version="1.1" id="Layer_1" xmlns="http://www.w3.org/2000/svg" xmlns:xlink="http://www.w3.org/1999/xlink" x="0px" y="0px"
	 viewBox="0 0 1280 800" style="enable-background:new 0 0 1280 800;" xml:space="preserve">
<style type="text/css">
	.st0{fill:none;stroke:#E6E6E6;stroke-miterlimit:10;}
	.st1{fill:#FFFFFF;stroke:#E6E6E6;stroke-miterlimit:10;}
	.st2{fill:#E6E6E6;}
	.st3{fill:#CCCCCC;}
	.st4{font-family:'ProximaNova-Regular';}
	.st5{font-size:20px;}
	.st6{font-family:'ProximaNova-Bold';}
	.st7{font-family:'ProximaNova-Light';}
	.st8{font-size:30px;}
</style>
<g>
	<g>
		<path class="st2" d="M817.8,107.3c21.5,0,43,8.2,59.4,24.6c32.8,32.8,32.8,85.9,0,118.7c-16.4,16.4-37.9,24.6-59.4,24.6
			s-43-8.2-59.4-24.6c-32.8-32.8-32.8-85.9,0-118.7C774.8,115.5,796.3,107.3,817.8,107.3 M817.8,106.3c-22.7,0-44,8.8-60.1,24.9
			c-16,16-24.9,37.4-24.9,60.1s8.8,44,24.9,60.1c16,16,37.4,24.9,60.1,24.9c22.7,0,44-8.8,60.1-24.9c33.1-33.1,33.1-87,0-120.1
			C861.8,115.2,840.5,106.3,817.8,106.3L817.8,106.3z"/>
	</g>
</g>
<g>
	<g>
		<path class="st2" d="M398.8,526.3c21.5,0,43,8.2,59.4,24.6c32.8,32.8,32.8,85.9,0,118.7c-16.4,16.4-37.9,24.6-59.4,24.6
			s-43-8.2-59.4-24.6c-32.8-32.8-32.8-85.9,0-118.7C355.9,534.4,377.4,526.3,398.8,526.3 M398.8,525.3c-22.7,0-44,8.8-60.1,24.9
			c-33.1,33.1-33.1,87,0,120.1c16,16,37.4,24.9,60.1,24.9s44-8.8,60.1-24.9c16-16,24.9-37.4,24.9-60.1s-8.8-44-24.9-60.1
			C442.9,534.1,421.5,525.3,398.8,525.3L398.8,525.3z"/>
	</g>
</g>
<g>
	<g>
		<path class="st2" d="M894.6,393.5c21.5,0,43,8.2,59.4,24.6c32.8,32.8,32.8,85.9,0,118.7c-16.4,16.4-37.9,24.6-59.4,24.6
			s-43-8.2-59.4-24.6c-32.8-32.8-32.8-85.9,0-118.7C851.6,401.7,873.1,393.5,894.6,393.5 M894.6,392.5c-22.7,0-44,8.8-60.1,24.9
			c-16,16-24.9,37.4-24.9,60.1c0,22.7,8.8,44,24.9,60.1c16,16,37.4,24.9,60.1,24.9s44-8.8,60.1-24.9c16-16,24.9-37.4,24.9-60.1
			c0-22.7-8.8-44-24.9-60.1C938.6,401.3,917.3,392.5,894.6,392.5L894.6,392.5z"/>
	</g>
</g>
<g>
	<g>
		<path class="st2" d="M685,603.1c21.5,0,43,8.2,59.4,24.6c32.8,32.8,32.8,85.9,0,118.7C728,762.8,706.5,771,685,771
			s-43-8.2-59.4-24.6c-32.8-32.8-32.8-85.9,0-118.7C642,611.3,663.5,603.1,685,603.1 M685,602.1c-22.7,0-44,8.8-60.1,24.9
			c-33.1,33.1-33.1,87,0,120.1c16,16,37.4,24.9,60.1,24.9c22.7,0,44-8.8,60.1-24.9c33.1-33.1,33.1-87,0-120.1
			C729,610.9,707.7,602.1,685,602.1L685,602.1z"/>
	</g>
</g>
<g>
	<g>
		<path class="st2" d="M322,240.1c21.5,0,43,8.2,59.4,24.6c32.8,32.8,32.8,85.9,0,118.7C365,399.8,343.5,408,322,408
			s-43-8.2-59.4-24.6c-32.8-32.8-32.8-85.9,0-118.7C279,248.3,300.5,240.1,322,240.1 M322,239.1c-22.7,0-44,8.8-60.1,24.9
			c-33.1,33.1-33.1,87,0,120.1c16,16,37.4,24.9,60.1,24.9s44-8.8,60.1-24.9c33.1-33.1,33.1-87,0-120.1
			C366,247.9,344.7,239.1,322,239.1L322,239.1z"/>
	</g>
</g>
<g>
	<g>
		<path class="st2" d="M531.6,30.5c21.5,0,43,8.2,59.4,24.6c32.8,32.8,32.8,85.9,0,118.7c-16.4,16.4-37.9,24.6-59.4,24.6
			s-43-8.2-59.4-24.6c-32.8-32.8-32.8-85.9,0-118.7C488.6,38.7,510.1,30.5,531.6,30.5 M531.6,29.5c-22.7,0-44,8.8-60.1,24.9
			c-33.1,33.1-33.1,87,0,120.1c16,16,37.4,24.9,60.1,24.9c22.7,0,44-8.8,60.1-24.9c33.1-33.1,33.1-87,0-120.1
			C575.6,38.3,554.3,29.5,531.6,29.5L531.6,29.5z"/>
	</g>
</g>
<text transform="matrix(1 0 0 1 926.79 182.3192)"><tspan x="0" y="0" class="st3 st4 st5">Antigen Generation</tspan><tspan x="0" y="22" class="st3 st6 st5">Raptor™</tspan></text>
<text transform="matrix(1 0 0 1 1003.3447 474.7562)"><tspan x="0" y="0" class="st3 st4 st5">Antibody Generation</tspan><tspan x="0" y="22" class="st3 st6 st5">ImmunoMax™</tspan></text>
<text transform="matrix(1 0 0 1 537.332 390)"><tspan x="0" y="0" class="st3 st7 st8">DiversImmune</tspan><tspan x="33" y="32" class="st3 st7 st8">Platform™</tspan></text>
<text transform="matrix(1 0 0 1 797.7583 690.0477)"><tspan x="0" y="0" class="st3 st4 st5">Optimization and</tspan><tspan x="0" y="22" class="st3 st4 st5">Functional Screening</tspan><tspan x="0" y="44" class="st3 st6 st5">AffiniMax™</tspan></text>
<text transform="matrix(1 0 0 1 137.2191 318.4538)"><tspan x="0" y="0" class="st3 st4 st5">Disease</tspan><tspan x="5" y="22" class="st3 st4 st5">Studies</tspan></text>
<text transform="matrix(1 0 0 1 301.8285 105.8487)"><tspan x="0" y="0" class="st3 st4 st5">Bioinformatics</tspan><tspan x="47.1" y="22" class="st3 st6 st5">BioMax™</tspan></text>
<text transform="matrix(1 0 0 1 164.4749 619.2039)" class="st3 st4 st5">Humanization</text>
</svg>
