<?xml version="1.0" encoding="utf-8"?>
<!-- Generator: Adobe Illustrator 19.2.1, SVG Export Plug-In . SVG Version: 6.00 Build 0)  -->
<!DOCTYPE svg PUBLIC "-//W3C//DTD SVG 1.1//EN" "http://www.w3.org/Graphics/SVG/1.1/DTD/svg11.dtd">
<svg version="1.1" id="Layer_1" xmlns="http://www.w3.org/2000/svg" xmlns:xlink="http://www.w3.org/1999/xlink" x="0px" y="0px"
	 viewBox="0 0 1280 800" style="enable-background:new 0 0 1280 800;" xml:space="preserve">
<style type="text/css">
	.st0{fill:none;stroke:#999999;stroke-miterlimit:10;}
	.st1{fill:#FFFFFF;stroke:#999999;stroke-miterlimit:10;}
	.st2{fill:#999999;}
	.st3{font-family:'ProximaNova-Regular';}
	.st4{font-size:20px;}
	.st5{font-family:'ProximaNova-Bold';}
	.st6{font-family:'ProximaNova-Light';}
	.st7{font-size:36.151px;}
	.st8{fill-rule:evenodd;clip-rule:evenodd;fill:#999999;}
	.st9{fill:#C1272D;}
	.st10{fill:#FFFFFF;}
	.st11{fill-rule:evenodd;clip-rule:evenodd;fill:#FFFFFF;}
</style>
<line class="st0" x1="1772.5" y1="390" x2="2258.9" y2="390"/>
<line class="st0" x1="2137.3" y1="600.6" x2="1894.1" y2="179.4"/>
<line class="st0" x1="2137.3" y1="179.4" x2="1894.1" y2="600.6"/>
<polygon class="st0" points="1645.4,463.5 1602.9,390 1645.4,316.5 1730.2,316.5 1772.7,390 1730.2,463.5 "/>
<polygon class="st0" points="1809.3,179.5 1766.9,106 1809.3,32.6 1894.2,32.6 1936.6,106 1894.2,179.5 "/>
<polygon class="st0" points="2137.2,179.5 2094.7,106 2137.2,32.6 2222,32.6 2264.5,106 2222,179.5 "/>
<polygon class="st0" points="2301.1,463.5 2258.7,390 2301.1,316.5 2386,316.5 2428.4,390 2386,463.5 "/>
<polygon class="st0" points="2137.2,747.4 2094.7,673.9 2137.2,600.5 2222,600.5 2264.5,673.9 2222,747.4 "/>
<polygon class="st0" points="1809.3,747.4 1766.9,673.9 1809.3,600.5 1894.2,600.5 1936.6,673.9 1894.2,747.4 "/>
<polygon class="st1" points="1931.6,535.5 1848.7,391.8 1931.6,248.1 2097.6,248.1 2180.6,391.8 2097.6,535.5 "/>
<g>
	<g>
		<path class="st2" d="M817.8,107.3c21.5,0,43,8.2,59.4,24.6c32.8,32.8,32.8,85.9,0,118.7c-16.4,16.4-37.9,24.6-59.4,24.6
			s-43-8.2-59.4-24.6c-32.8-32.8-32.8-85.9,0-118.7C774.8,115.5,796.3,107.3,817.8,107.3 M817.8,106.3c-22.7,0-44,8.8-60.1,24.9
			c-16,16-24.9,37.4-24.9,60.1s8.8,44,24.9,60.1c16,16,37.4,24.9,60.1,24.9c22.7,0,44-8.8,60.1-24.9c33.1-33.1,33.1-87,0-120.1
			C861.8,115.2,840.5,106.3,817.8,106.3L817.8,106.3z"/>
	</g>
</g>
<g>
	<g>
		<path class="st2" d="M398.8,526.3c21.5,0,43,8.2,59.4,24.6c32.8,32.8,32.8,85.9,0,118.7c-16.4,16.4-37.9,24.6-59.4,24.6
			s-43-8.2-59.4-24.6c-32.8-32.8-32.8-85.9,0-118.7C355.9,534.4,377.4,526.3,398.8,526.3 M398.8,525.3c-22.7,0-44,8.8-60.1,24.9
			c-33.1,33.1-33.1,87,0,120.1c16,16,37.4,24.9,60.1,24.9s44-8.8,60.1-24.9c16-16,24.9-37.4,24.9-60.1s-8.8-44-24.9-60.1
			C442.9,534.1,421.5,525.3,398.8,525.3L398.8,525.3z"/>
	</g>
</g>
<g>
	<g>
		<path class="st2" d="M894.6,393.5c21.5,0,43,8.2,59.4,24.6c32.8,32.8,32.8,85.9,0,118.7c-16.4,16.4-37.9,24.6-59.4,24.6
			s-43-8.2-59.4-24.6c-32.8-32.8-32.8-85.9,0-118.7C851.6,401.7,873.1,393.5,894.6,393.5 M894.6,392.5c-22.7,0-44,8.8-60.1,24.9
			c-16,16-24.9,37.4-24.9,60.1c0,22.7,8.8,44,24.9,60.1s37.4,24.9,60.1,24.9s44-8.8,60.1-24.9c16-16,24.9-37.4,24.9-60.1
			c0-22.7-8.8-44-24.9-60.1C938.6,401.3,917.3,392.5,894.6,392.5L894.6,392.5z"/>
	</g>
</g>
<g>
	<g>
		<path class="st2" d="M685,603.1c21.5,0,43,8.2,59.4,24.6c32.8,32.8,32.8,85.9,0,118.7C728,762.8,706.5,771,685,771
			s-43-8.2-59.4-24.6c-32.8-32.8-32.8-85.9,0-118.7C642,611.3,663.5,603.1,685,603.1 M685,602.1c-22.7,0-44,8.8-60.1,24.9
			c-33.1,33.1-33.1,87,0,120.1c16,16,37.4,24.9,60.1,24.9c22.7,0,44-8.8,60.1-24.9c33.1-33.1,33.1-87,0-120.1
			C729,610.9,707.7,602.1,685,602.1L685,602.1z"/>
	</g>
</g>
<g>
	<g>
		<path class="st2" d="M322,240.1c21.5,0,43,8.2,59.4,24.6c32.8,32.8,32.8,85.9,0,118.7C365,399.8,343.5,408,322,408
			s-43-8.2-59.4-24.6c-32.8-32.8-32.8-85.9,0-118.7C279,248.3,300.5,240.1,322,240.1 M322,239.1c-22.7,0-44,8.8-60.1,24.9
			c-33.1,33.1-33.1,87,0,120.1c16,16,37.4,24.9,60.1,24.9s44-8.8,60.1-24.9c33.1-33.1,33.1-87,0-120.1
			C366,247.9,344.7,239.1,322,239.1L322,239.1z"/>
	</g>
</g>
<g>
	<g>
		<path class="st2" d="M531.6,30.5c21.5,0,43,8.2,59.4,24.6c32.8,32.8,32.8,85.9,0,118.7c-16.4,16.4-37.9,24.6-59.4,24.6
			c-21.5,0-43-8.2-59.4-24.6c-32.8-32.8-32.8-85.9,0-118.7C488.6,38.7,510.1,30.5,531.6,30.5 M531.6,29.5c-22.7,0-44,8.8-60.1,24.9
			c-33.1,33.1-33.1,87,0,120.1c16,16,37.4,24.9,60.1,24.9c22.7,0,44-8.8,60.1-24.9c33.1-33.1,33.1-87,0-120.1
			C575.6,38.3,554.3,29.5,531.6,29.5L531.6,29.5z"/>
	</g>
</g>
<text transform="matrix(1 0 0 1 926.79 185.7471)"><tspan x="0" y="0" class="st2 st3 st4">Antigen Generation</tspan><tspan x="0" y="22" class="st2 st5 st4">Raptor™</tspan></text>
<text transform="matrix(1 0 0 1 1003.3447 471.917)"><tspan x="0" y="0" class="st2 st3 st4">Antibody Generation</tspan><tspan x="0" y="22" class="st2 st5 st4">ImmunoMax™</tspan></text>
<text transform="matrix(1 0 0 1 518.332 388.4678)"><tspan x="0" y="0" class="st2 st6 st7">DiversImmune</tspan><tspan x="39.8" y="38.6" class="st2 st6 st7">Platform™</tspan></text>
<text transform="matrix(1 0 0 1 797.7583 670.5022)"><tspan x="0" y="0" class="st2 st3 st4">Optimization and</tspan><tspan x="0" y="22" class="st2 st3 st4">Functional Screening</tspan><tspan x="0" y="44" class="st2 st5 st4">AffiniMax™</tspan></text>
<text transform="matrix(1 0 0 1 137.2191 318.6494)"><tspan x="0" y="0" class="st2 st3 st4">Disease</tspan><tspan x="5" y="22" class="st2 st3 st4">Studies</tspan></text>
<text transform="matrix(1 0 0 1 301.8285 108.9037)"><tspan x="0" y="0" class="st2 st3 st4">Bioinformatics</tspan><tspan x="47.1" y="22" class="st2 st5 st4">BioMax™</tspan></text>
<text transform="matrix(1 0 0 1 164.4749 615.8187)" class="st2 st3 st4">Humanization</text>
<text transform="matrix(1 0 0 1 2304.79 106.0475)"><tspan x="0" y="0" class="st2 st3 st4">Antigen Generation</tspan><tspan x="0" y="22" class="st2 st5 st4">Raptor™</tspan></text>
<text transform="matrix(1 0 0 1 2450.3447 389.9986)"><tspan x="0" y="0" class="st2 st3 st4">Antibody Generation</tspan><tspan x="0" y="22" class="st2 st5 st4">ImmunoMax™</tspan></text>
<text transform="matrix(1 0 0 1 1921.9425 389.9983)"><tspan x="0" y="0" class="st2 st6" style="font-size:30px;">DiversImmune</tspan><tspan x="33" y="32" class="st2 st6" style="font-size:30px;">Platform™</tspan></text>
<text transform="matrix(1 0 0 1 2304.7905 673.9487)"><tspan x="0" y="0" class="st2 st3 st4">Optimization and</tspan><tspan x="0" y="22" class="st2 st3 st4">Functional Screening</tspan><tspan x="0" y="44" class="st2 st5 st4">AffiniMax™</tspan></text>
<text transform="matrix(1 0 0 1 1505.2191 389.9988)"><tspan x="0" y="0" class="st2 st3 st4">Disease</tspan><tspan x="5" y="22" class="st2 st3 st4">Studies</tspan></text>
<text transform="matrix(1 0 0 1 1610.8285 106.0476)"><tspan x="0" y="0" class="st2 st3 st4">Bioinformatics</tspan><tspan x="47.1" y="22" class="st2 st5 st4">BioMax™</tspan></text>
<text transform="matrix(1 0 0 1 1624.4749 673.9489)" class="st2 st3 st4">Humanization</text>
<path class="st2" d="M505.5,144.5c0.5,2.4,0.8,4.9,0.7,7.2l-9.2-9.2c0.7,0.1,1.5,0.4,2.2,0.5C501.3,143.5,503.4,144.1,505.5,144.5z
	 M505.6,136.5c-0.1-0.4-0.3-1.1-0.4-1.5l8.7,8.7c-2.2,0-4.3-0.3-6.7-0.7C506.7,140.8,506.2,138.6,505.6,136.5z M524.1,108.5
	c0.5,2.2,1.1,4.3,1.6,6.5c0.1,0.7,0.4,1.2,0.5,1.9l-9-9C519.5,107.6,521.8,108.1,524.1,108.5z M525.2,100l8.8,8.8
	c-0.7-0.1-1.1-0.3-1.8-0.4c-2.2-0.5-4.3-1.1-6.5-1.6C525.3,104.5,525.1,102.3,525.2,100z M553.9,88.2c2.2,0.5,4.3,1.1,6.5,1.6
	c0.4,2.3,0.8,4.6,0.5,6.8l-8.8-8.8C552.7,88.1,553.2,88.1,553.9,88.2z M560.3,81.8c-0.1-0.7-0.3-1.1-0.4-1.8l8.8,8.8
	c-2.2,0-4.5-0.1-6.8-0.5C561.5,86,560.8,84,560.3,81.8z M571.2,88.6l-12.2-12.2c-0.7-2.6-1.1-5.2-1.1-7.6l18.1,18.1
	C574.4,87.8,572.8,88.3,571.2,88.6z M552.9,109.5c-1.6,0.8-3.3,1.1-5.2,1.4l-19.6-19.6c0.4-0.4,0.7-0.9,1.1-1.4
	c0.7-0.7,1.5-1.2,2.2-1.9L552.9,109.5z M548.4,86.8l12.2,12.2c-0.3,1.6-0.8,3.3-1.8,4.8l-18.1-18.1
	C543.4,85.9,545.9,86.4,548.4,86.8z M538.3,85.9l19.6,19.6c-0.4,0.4-0.7,1-1.1,1.4c-0.7,0.7-1.5,1.2-2.2,1.9l-21.5-21.5
	C534.7,86.4,536.5,86,538.3,85.9z M527.1,93l17.9,17.9c-2.5,0-4.9-0.5-7.6-1.1l-12.2-12.2C525.7,95.9,526.3,94.3,527.1,93z
	 M525.7,137.3c-0.4,0.7-1.1,1.4-1.8,2c-0.4,0.4-0.8,0.8-1.4,1.1L503.2,121c0.1-1.8,0.5-3.5,1.4-5.2l21.3,21.3L525.7,137.3z
	 M528.2,130.5c-0.1,1.8-0.5,3.5-1.4,5.2l-21.4-21.4c0.5-0.8,1.1-1.6,1.8-2.3c0.4-0.4,0.8-0.8,1.2-1.2L528.2,130.5z M514.7,108.1
	l12.4,12.4c0.7,2.6,1.1,5.2,1.1,7.6L510,109.8C511.6,109,513.1,108.3,514.7,108.1z M503,123.8l17.9,17.9c-1.5,1-3,1.4-4.8,1.8
	l-12.1-12.1C503.6,128.7,503.2,126.1,503,123.8z M485.8,140.5c2.5,0,4.9,0.5,7.5,0.9l0,0l12.5,12.5c-0.3,1.6-0.8,3.3-1.8,4.8
	L485.8,140.5z M473.3,143.3c-0.4,0.4-0.4,0.9,0,1.4c0.4,0.4,0.9,0.4,1.4,0c2.6-2.6,5.6-3.7,8.7-4.1l19.7,19.7
	c-0.4,0.4-0.7,0.7-1.1,1.1c-0.4,0.4-0.4,0.9,0,1.4c0.4,0.4,0.9,0.4,1.4,0c5-5,5.3-11.3,4.2-17.8c2.9,0.4,5.7,0.8,8.4,0.3
	c0,0,0,0,0.1-0.1c3.4-0.4,6.4-1.8,9.2-4.6c7.2-7.2,4.8-17,2.2-26.4c-0.5-1.9-0.9-3.7-1.4-5.4c1.8,0.4,3.7,0.9,5.4,1.4
	c8,2,16.3,4.3,23,0.4l0,0c1.2-0.7,2.3-1.5,3.3-2.4c0.7-0.7,1.2-1.2,1.6-1.9l0.1-0.1c0.1-0.1,0.3-0.3,0.1-0.4c3-4.6,3.1-9.9,2.2-15.5
	c6.5,1.1,12.8,0.8,17.8-4.2c0.4-0.4,0.4-0.9,0-1.4c-0.4-0.4-0.9-0.4-1.4,0c-0.4,0.4-0.8,0.8-1.4,1.1l-19.2-19.2
	c0.3-3.3,1.5-6.4,4.1-9c0.4-0.4,0.4-0.9,0-1.4c-0.4-0.4-0.9-0.4-1.4,0c-7.2,7.2-4.8,17-2.2,26.4c0.5,1.9,0.9,3.7,1.4,5.4
	c-1.8-0.4-3.7-0.9-5.4-1.4c-8-2-16.3-4.3-23-0.4c0,0,0,0-0.1,0.1c-1.2,0.7-2.2,1.4-3.3,2.4c-5,5-5.3,11.3-4.2,17.8
	c-6.5-1.1-12.8-0.8-17.8,4.2c-7.2,7.2-4.8,17-2.2,26.4c0.5,1.9,0.9,3.7,1.4,5.4c-1.8-0.4-3.7-0.9-5.4-1.4
	C490.1,138.6,480.5,136.1,473.3,143.3z"/>
<path class="st2" d="M418.3,623.4c-4.8,2.1-5.5,4.9-6.9,6.7c-1.4,1.6-8,5.4-8.5,5.8c-0.5,0.4-1.5,0-2,0c-0.6,0-1.4,0.1-1.4,0.1
	c-2.1-0.2-2.2,0.5-2.6,1c-0.4,0-0.7,0.1-1,0.2c0.4-0.4,0.7-0.9,1.1-1.2c1.2-1.2,2.2-5.3,2.3-5.9c2.8-2.8,3.9-6.2,4.2-6.7
	c0.2,0.2,1.4,0.6,2,0.5c2.7-1.1,4.9-4.1,4.9-4.1c1,0.6,7.5,2.8,7.8,3C418.6,622.9,418.6,623.1,418.3,623.4z M398.6,584.3
	c0.1,0,0.6-0.2,0.6-0.2s0,1,0.1,1.4c0.1,0.4,0.1,1.1,0.1,1.1c-0.1,0-0.2-0.5-0.4-0.7C399,585.2,398.5,584.3,398.6,584.3z
	 M428.7,620.8c-7.1-10.1-11.5-10.2-11.5-10.3c0-0.1-0.2-0.4-0.4-0.6c-0.4-0.5-3.9-1.7-3.9-2.1c0.1-0.4,0.4-2.6,0.5-2.7
	c0.1-0.2,0-0.9,0-1.5c0.1-0.5,0.9-0.7,0.9-0.9c0-0.1,0.7-1.5,0.9-2c0.1-0.4,0.5-1.5,0.5-2.1c0-0.7,0.4-1,1-2.6c1-2.8,1-6.8,1-7
	c0-0.2,1.2-1.1,1.6-1.4c0.4-0.2,2.8-2.1,4.8-3.5c2-1.4,2.7-3.5,2.7-3.7c0.1-0.7-0.6-1.2-0.6-1.2s0-0.4,0.1-0.6
	c0.2-0.5-0.1-0.9-0.4-1.1c-0.2-0.2-0.6-0.1-0.6-0.1s0-0.1-0.1-0.5c-0.4-0.4-1.1-0.1-1.5-0.1c-0.4,0-0.9,0.4-1,0.2
	c0.4-1.4,0-1.6-0.2-2c-0.2-0.4-0.9-0.2-0.7,0.1c0.1,0.4-0.5,2-0.9,2.8c-1.5,1.7-1,3.9-1.2,5c-0.1,1.1-2.3,2.3-2.5,2.3
	c-0.1,0,0-0.5,0-0.7c0.1-2-0.6-3.7-0.9-4.3c-0.1-0.6-0.2-1.5-0.2-2.8c0-1.4-2.6-3.4-2.8-3.7c-0.2-0.2-1.5-1.5-1.6-2.3
	c-0.2-1.8,1.6-1.8,2.6-1.8c0.9-0.1,1.4-1,1.4-1.2c0-0.2-0.1-0.7,0.2-0.7c0.7-0.1,0.9-0.6,0.9-0.9c0-0.2-0.5-0.5-0.5-0.6
	c0-0.1,0.5-0.5,0.9-0.9c0.2-0.4,0-0.9,0-1c0-0.1-0.2-0.5,0-0.6c1.1-0.1,1.1-0.7,1.1-1.2c0-0.5-1.2-1.4-1.2-1.5s0.1-0.6,0.1-1
	c0-0.4-0.4-1-0.6-1.4c0.1-1.4-0.1-2-0.1-2.1c0-0.2,0.4,0,0.4-0.9c0-0.9-1-2.3-3.9-3.8c-3-1.5-6-1.1-6-1.1c-5.2,1-5.8,5.7-5.8,8
	c0,2.3,3,5,3.6,5.9c0.5,0.9,0,3.1-0.1,3.1c-0.1,0-1.2,0.2-1.4,0.7c-0.1,0.4-0.4,1.1-1.4,2.6c-1,1.5-1.6,4.1-1.6,4.6
	c-0.1,0.5-0.2,0.7-0.9,2c-4.8,1.6-6.8,6-6.8,6s-0.2,1.7,0.6,3.2c0.7,1.5,5.9,4.9,5.8,5.2c-0.1,0.2,0,2.1-0.2,2.7
	c-0.2,0.7-0.6,3.1-0.7,3.6c-0.1,0.5-0.1,1.1-0.9,1.8c-1.5,2-4.2,4.7-4.9,8.7c-0.7,4.1-0.6,7.9-0.5,8c0.2,0.1,0.7,1,0.9,1.5
	c-1.5,4.6-1.2,7.6-1.1,9.6c0.1,2-1,4.2-1.2,4.4c-0.2,0.2-1.4,1.6-2.6,2.5c-4.9,2.7-6,6.7-6.2,7.4c-0.1,0.7-1.6,3.8-3.1,6
	c-1.5,2.2-4.4,5.3-4.8,5.4c-0.4,0.1-0.9,0.6-0.9,0.6s-0.4-0.5-0.6-0.4c-0.2,0-0.6,0.7-1.1,0.9c-0.5,0.1-0.9,0.7-0.9,0.7l-0.2-0.2
	c0,0-1.6-0.4-2,1.5c-0.1,3.2,1.8,4.6,2.2,4.9c0.4,0.4,1.2,0.4,1.5,1.8c0.2,1.5,1.6,3,2.2,4.1c0.6,1.1,3.9,2,6.8,1.8
	c2.8-0.1,3-2.3,3-2.6c0-0.2-0.4-0.4-0.5-0.6c-0.1-0.6-1.8-1-2.2-1.6c-0.4-0.6-0.6-1-0.9-1.7c0.2-1-0.1-2-0.1-2.1
	c0-0.1,0.2-0.2,0.4-1.5c0.1-1.1-0.5-1.4-0.4-1.5c0-0.1,0.2-1.1,0.4-2.5c0.1-1.2,5.7-6.9,6.9-8.2c1.1-1.2,6.5-7.8,7.1-8.2
	c0.2-0.2,0.9-0.9,1.5-1.5c-0.1,0.2-0.1,0.5-0.1,0.5c-0.5,1.7,0.9,3.1,1.6,3.9c0.7,0.9,1.4,1.5,1.8,3.3c0.6,3.9,1.5,3.9,2,4.7
	c0.5,0.7,3.1,2.8,4.4,3.1c1.5,0.2,1.5-1.2,1.6-1.6c0.1-0.4-0.9-2.3-1.2-2.8c-0.4-0.5,0-1.8,0-2.2s0.7-1.2,1-1.6
	c0.7-0.2,0.5-1.2,0.5-1.4s-1.1-0.1-1.1-0.4c0-0.2-0.1-0.6-0.6-0.9c-0.2-0.7,0.9-2,0.9-2c1.6-1.6,6.8-5.3,10.1-6.4
	c3.3-1.1,7.6-4.1,9-4.9c4.9-2.7,4.3-3.9,4.6-4.6C430,623.7,430,622.1,428.7,620.8z"/>
<path class="st8" d="M816.8,178.4l3.3,1.6l3.3-1.6v25.5c0,0.1,0,0.3,0,0.4c-0.2,0-0.4-0.1-0.6-0.1h-5.5c-0.2,0-0.3,0-0.4,0
	c0-0.1,0-0.2,0-0.4V178.4z M796.2,195.5c0.4,0.5,0.6,1.1,0.5,1.8c-0.1,0.7-0.4,1.2-0.9,1.6c-0.5,0.4-1.1,0.6-1.8,0.5
	c-0.7-0.1-1.2-0.4-1.6-0.9l-2.1-2.7l-7,20.9c-0.2,0.6-0.6,1.1-1.2,1.4c-0.6,0.3-1.2,0.3-1.8,0.1c-0.6-0.2-1.1-0.6-1.4-1.2
	c-0.3-0.6-0.3-1.2-0.1-1.8l8.5-25.1c0.2-0.6,0.5-1,1.1-1.3c0.5-0.3,1.1-0.4,1.6-0.3c0.6,0.1,1.1,0.4,1.4,0.9L796.2,195.5z
	 M799.9,189.8c0.2-0.6,0.5-1.1,1.1-1.4c0.5-0.3,1.1-0.4,1.7-0.3c0.6,0.1,1.1,0.5,1.4,1l9.8,14.6c0.4,0.6,0.5,1.2,0.3,1.8
	c-0.1,0.6-0.5,1.1-1,1.5c-0.6,0.4-1.2,0.5-1.8,0.4c-0.7-0.1-1.2-0.5-1.5-1L803,196l-9,29.7c-0.2,0.6-0.6,1.1-1.2,1.4
	c-0.6,0.3-1.2,0.4-1.8,0.2c-0.6-0.2-1.1-0.6-1.4-1.2c-0.3-0.6-0.4-1.2-0.2-1.8L799.9,189.8z M849.9,188.5c0.6-0.1,1.1,0,1.6,0.3
	c0.5,0.3,0.9,0.7,1.1,1.3l8.5,25.1c0.2,0.6,0.2,1.2-0.1,1.8c-0.3,0.6-0.8,1-1.4,1.2c-0.6,0.2-1.2,0.2-1.8-0.1
	c-0.6-0.3-1-0.8-1.2-1.4l-7-20.9l-2.1,2.7c-0.4,0.5-1,0.8-1.6,0.9c-0.7,0.1-1.2-0.1-1.8-0.5c-0.5-0.4-0.8-0.9-0.9-1.6
	c-0.1-0.7,0.1-1.2,0.5-1.8l4.9-6.2C848.8,188.9,849.3,188.6,849.9,188.5z M837.1,188.1c0.6-0.1,1.2-0.1,1.7,0.3
	c0.5,0.3,0.9,0.8,1.1,1.4l10.4,34.5c0.2,0.6,0.1,1.2-0.2,1.8c-0.3,0.6-0.8,1-1.4,1.2c-0.6,0.2-1.2,0.1-1.8-0.2
	c-0.6-0.3-1-0.8-1.2-1.4l-8.9-29.7l-6.9,10.4c-0.4,0.5-0.9,0.9-1.5,1c-0.6,0.1-1.2,0-1.8-0.4c-0.6-0.4-0.9-0.9-1-1.5
	c-0.1-0.6,0-1.2,0.4-1.8l9.8-14.6C836,188.6,836.5,188.3,837.1,188.1z M817.1,205.9c0.1,0,0.3,0,0.4,0h5.5c0.2,0,0.4,0,0.6,0.1
	c0.5,0.1,0.9,0.3,1.3,0.7c0.5,0.5,0.8,1.1,0.8,1.8c0,0.7-0.3,1.3-0.8,1.8c-0.5,0.5-1.1,0.8-1.8,0.8h-5.5c-0.7,0-1.3-0.3-1.8-0.8
	c-0.5-0.5-0.8-1.1-0.8-1.8c0-0.7,0.3-1.3,0.8-1.8C816.1,206.3,816.6,206,817.1,205.9z M832.6,146.9v24.7l-12.5,6.8l-12.5-6.8v-24.7
	l12.5-6.8L832.6,146.9z"/>
<path class="st2" d="M874.2,514.1l-5.1-5.1l36.1-36.1l5.1,5.1L874.2,514.1z M941.7,470.5l-1.8-6.9l-34.5,9.2l1.8,6.9L941.7,470.5z
	 M944.8,481.1l-1.8-6.9l-29.6,7.9l1.8,6.9L944.8,481.1z M920.8,483.8l-2.6-10.7l-3,0.7l2.6,10.7L920.8,483.8z M905.4,477.2l-7.5-7.5
	l-2.2,2.2l7.5,7.5L905.4,477.2z M900.8,481.2l-7.5-7.5l-2.2,2.2l7.5,7.5L900.8,481.2z M902.4,470.1l-5.1-5.1l-36.1,36.1l5.1,5.1
	L902.4,470.1z M902.5,470l9.2-34.5l-6.9-1.8l-9.2,34.5L902.5,470z M893.2,462l7.9-29.6l-6.9-1.8l-7.9,29.6L893.2,462z M901.6,460.2
	l0.7-3l-10.7-2.6l-0.7,3L901.6,460.2z"/>
<g>
	
		<rect x="319.1" y="330.3" transform="matrix(0.5001 -0.866 0.866 0.5001 -134.9031 448.4581)" class="st2" width="3.7" height="21.5"/>
	<path class="st2" d="M348.3,354.2c5.4-5.1,8.8-12.2,8.8-20.2c0-9.8-5.2-18.7-13.2-23.6l9-15.5l-1.4-0.8l2.2-3.9l-5.8-3.3l-2.2,3.8
		l-1.5-0.9L322.2,328l1.9,1.1l-2.7,4.7l4.8,2.8l2.7-4.7l1.9,1.1l9.3-16.1c5.7,3.6,9.3,10,9.3,17c0,11.1-9.1,20.2-20.2,20.2H313v7.6
		h45.8v-7.6H348.3z"/>
	<path class="st2" d="M312.5,323.2h-25.3V298h4.9v19.4c0,1.5,1.2,2.7,2.6,2.7c1.5,0,2.6-1.2,2.6-2.7V298h5.1v19.4
		c0,1.5,1.2,2.7,2.6,2.7c1.5,0,2.6-1.2,2.6-2.7V298h4.8V323.2z M307.7,295.4v-6.1h0.7l0-1.5h-6.8l0,1.5h0.8v6.1h-5.1v-6.1h0.7l0-1.5
		h-6.8l0,1.5h0.8v6.1h-7.4v30.4h30.4v-30.4H307.7z"/>
</g>
<g>
	<g>
		<path class="st2" d="M660.5,677.8c0.7,0.3,1.5-0.1,1.8-0.8c0.3-0.7-0.1-1.5-0.8-1.8c-0.7-0.3-1.5,0.1-1.8,0.8
			C659.5,676.7,659.8,677.5,660.5,677.8z"/>
		<path class="st2" d="M660.2,671.2c0.5,0.2,1-0.1,1.2-0.5c0.2-0.5-0.1-1-0.5-1.2c-0.5-0.2-1,0.1-1.2,0.5
			C659.5,670.5,659.8,671,660.2,671.2z"/>
		<path class="st2" d="M663.8,679.9c-0.5-0.2-1,0-1.2,0.4h1.7C664.1,680.1,664,680,663.8,679.9z"/>
		<path class="st2" d="M665.3,671.1c0.8-0.3,1.2-1.2,0.9-2c-0.3-0.8-1.2-1.2-2-0.9c-0.8,0.3-1.2,1.2-0.9,2
			C663.6,671,664.5,671.4,665.3,671.1z"/>
		
			<ellipse transform="matrix(0.9356 -0.3532 0.3532 0.9356 -192.6839 276.7787)" class="st2" cx="662.1" cy="666.4" rx="0.8" ry="0.8"/>
		<path class="st2" d="M665.6,674.4c-0.6,0.2-0.9,0.9-0.7,1.5c0.2,0.6,0.9,0.9,1.5,0.7c0.6-0.2,0.9-0.9,0.7-1.5
			C666.8,674.5,666.2,674.2,665.6,674.4z"/>
		<path class="st2" d="M706.6,677.8c0.7,0.3,1.5-0.1,1.8-0.8c0.3-0.7-0.1-1.5-0.8-1.8c-0.7-0.3-1.5,0.1-1.8,0.8
			C705.6,676.7,705.9,677.5,706.6,677.8z"/>
		<path class="st2" d="M706.3,671.2c0.5,0.2,1-0.1,1.2-0.5c0.2-0.5-0.1-1-0.5-1.2c-0.5-0.2-1,0.1-1.2,0.5
			C705.6,670.5,705.9,671,706.3,671.2z"/>
		<path class="st2" d="M709.8,679.9c-0.5-0.2-1,0-1.2,0.4h1.7C710.2,680.1,710.1,680,709.8,679.9z"/>
		<path class="st2" d="M711.4,671.1c0.8-0.3,1.2-1.2,0.9-2c-0.3-0.8-1.2-1.2-2-0.9c-0.8,0.3-1.2,1.2-0.9,2
			C709.7,671,710.6,671.4,711.4,671.1z"/>
		<path class="st2" d="M708.5,667.1c0.4-0.1,0.6-0.6,0.4-1c-0.2-0.4-0.6-0.6-1-0.4c-0.4,0.2-0.6,0.6-0.5,1
			C707.6,667.1,708.1,667.3,708.5,667.1z"/>
		<path class="st2" d="M711.7,674.4c-0.6,0.2-0.9,0.9-0.7,1.5c0.2,0.6,0.9,0.9,1.5,0.7c0.6-0.2,0.9-0.9,0.7-1.5
			C712.9,674.5,712.3,674.2,711.7,674.4z"/>
		<path class="st2" d="M671.9,660.1c-1,1.1-2.2,3.1-2.1,6.3v43.4c0,4.4-2.4,7.2-6.3,7.2c-3.9,0-6.3-2.7-6.3-7.2v-43.4
			c0-3.2-1.1-5.2-2.1-6.3H671.9z M653.1,660c0,0,2.9,1.7,2.8,6.4v43.4c0,5.1,3,8.4,7.6,8.4c4.6,0,7.6-3.3,7.6-8.4v-43.4
			c0-4.6,2.7-6.3,2.8-6.4c0.2-0.1,0.4-0.4,0.3-0.7c-0.1-0.3-0.3-0.5-0.6-0.5h-20.2c-0.3,0-0.5,0.2-0.6,0.5
			C652.7,659.6,652.8,659.9,653.1,660z"/>
		<path class="st2" d="M659.6,689.3c0.3-0.9,1.3-1.3,2.1-1c0.9,0.3,1.3,1.3,1,2.1c-0.3,0.9-1.3,1.3-2.1,1
			C659.7,691.1,659.3,690.1,659.6,689.3z M664.7,684.3c0.3-0.8,1.1-1.2,1.9-0.9c0.8,0.3,1.2,1.2,0.9,1.9c-0.3,0.8-1.2,1.2-1.9,0.9
			C664.8,685.9,664.4,685.1,664.7,684.3z M666.6,691.5c-0.2,0.4-0.6,0.6-1.1,0.5c-0.4-0.2-0.6-0.6-0.5-1.1c0.2-0.4,0.6-0.6,1.1-0.5
			C666.6,690.6,666.8,691.1,666.6,691.5z M663.5,715.6c3.2,0,5-2.1,5-5.8v-29.5h-4.2c0.1,0.3,0.2,0.6,0.1,0.9
			c-0.2,0.5-0.8,0.8-1.3,0.6c-0.5-0.2-0.8-0.8-0.6-1.3c0-0.1,0.1-0.1,0.1-0.1h-4.1v29.5C658.4,713.5,660.3,715.6,663.5,715.6z"/>
		<path class="st2" d="M683.6,677.8c0.7,0.3,1.5-0.1,1.8-0.8c0.3-0.7-0.1-1.5-0.8-1.8c-0.7-0.3-1.5,0.1-1.8,0.8
			C682.5,676.7,682.9,677.5,683.6,677.8z"/>
		<path class="st2" d="M683.3,671.2c0.5,0.2,1-0.1,1.2-0.5c0.2-0.5-0.1-1-0.5-1.2c-0.5-0.2-1,0.1-1.2,0.5
			C682.6,670.5,682.8,671,683.3,671.2z"/>
		<path class="st2" d="M686.8,679.9c-0.5-0.2-1,0-1.2,0.4h1.7C687.2,680.1,687,680,686.8,679.9z"/>
		<path class="st2" d="M688.3,671.1c0.8-0.3,1.2-1.2,0.9-2c-0.3-0.8-1.2-1.2-2-0.9c-0.8,0.3-1.2,1.2-0.9,2
			C686.6,671,687.5,671.4,688.3,671.1z"/>
		<path class="st2" d="M685.4,667.1c0.4-0.1,0.6-0.6,0.4-1c-0.2-0.4-0.6-0.6-1-0.4c-0.4,0.2-0.6,0.6-0.5,1
			C684.6,667.1,685,667.3,685.4,667.1z"/>
		<path class="st2" d="M688.6,674.4c-0.6,0.2-0.9,0.9-0.7,1.5c0.2,0.6,0.9,0.9,1.5,0.7c0.6-0.2,0.9-0.9,0.7-1.5
			C689.9,674.5,689.2,674.2,688.6,674.4z"/>
		<path class="st2" d="M678,660.1h17c-1,1.1-2.2,3.1-2.1,6.3v43.4c0,4.4-2.4,7.2-6.3,7.2c-3.9,0-6.3-2.7-6.3-7.2v-43.4
			C680.2,663.2,679,661.2,678,660.1z M686.5,718.2c4.6,0,7.6-3.3,7.6-8.4v-43.4c0-4.6,2.7-6.3,2.8-6.4c0.2-0.1,0.4-0.4,0.3-0.7
			c-0.1-0.3-0.3-0.5-0.6-0.5h-20.2c-0.3,0-0.5,0.2-0.6,0.5c-0.1,0.3,0,0.6,0.3,0.7c0,0,2.9,1.7,2.8,6.4v43.4
			C678.9,714.9,681.9,718.2,686.5,718.2z"/>
		<path class="st2" d="M682.7,689.3c0.3-0.9,1.3-1.3,2.1-1c0.9,0.3,1.3,1.3,1,2.1c-0.3,0.9-1.3,1.3-2.1,1
			C682.8,691.1,682.3,690.1,682.7,689.3z M687.7,684.3c0.3-0.8,1.1-1.2,1.9-0.9c0.8,0.3,1.2,1.2,0.9,1.9c-0.3,0.8-1.2,1.2-1.9,0.9
			C687.8,685.9,687.4,685.1,687.7,684.3z M689.7,691.5c-0.2,0.4-0.6,0.6-1.1,0.5c-0.4-0.2-0.6-0.6-0.5-1.1c0.2-0.4,0.6-0.6,1.1-0.5
			C689.6,690.6,689.8,691.1,689.7,691.5z M686.5,715.6c3.2,0,5-2.1,5-5.8v-29.5h-4.2c0.1,0.3,0.2,0.6,0.1,0.9
			c-0.2,0.5-0.8,0.8-1.3,0.6c-0.5-0.2-0.8-0.8-0.6-1.3c0-0.1,0.1-0.1,0.1-0.1h-4.1v29.5C681.5,713.5,683.3,715.6,686.5,715.6z"/>
		<path class="st2" d="M718,660.1c-1,1.1-2.2,3.1-2.1,6.3v43.4c0,4.4-2.4,7.2-6.3,7.2c-3.9,0-6.3-2.7-6.3-7.2v-43.4
			c0-3.2-1.1-5.2-2.1-6.3H718z M698.9,659.3c-0.1,0.3,0,0.6,0.3,0.7c0,0,2.9,1.7,2.8,6.4v43.4c0,5.1,3,8.4,7.6,8.4
			c4.6,0,7.6-3.3,7.6-8.4v-43.4c0-4.6,2.7-6.3,2.8-6.4c0.2-0.1,0.4-0.4,0.3-0.7c-0.1-0.3-0.3-0.5-0.6-0.5h-20.2
			C699.2,658.9,698.9,659.1,698.9,659.3z"/>
		<path class="st2" d="M705.7,689.3c0.3-0.9,1.3-1.3,2.1-1c0.9,0.3,1.3,1.3,1,2.1c-0.3,0.9-1.3,1.3-2.1,1
			C705.8,691.1,705.4,690.1,705.7,689.3z M710.8,684.3c0.3-0.8,1.1-1.2,1.9-0.9c0.8,0.3,1.2,1.2,0.9,1.9c-0.3,0.8-1.2,1.2-1.9,0.9
			C710.9,685.9,710.5,685.1,710.8,684.3z M712.7,691.5c-0.2,0.4-0.6,0.6-1.1,0.5c-0.4-0.2-0.6-0.6-0.5-1.1c0.2-0.4,0.6-0.6,1.1-0.5
			C712.7,690.6,712.9,691.1,712.7,691.5z M709.5,715.6c3.2,0,5-2.1,5-5.8v-29.5h-4.2c0.1,0.3,0.2,0.6,0.1,0.9
			c-0.2,0.5-0.8,0.8-1.3,0.6c-0.5-0.2-0.8-0.8-0.6-1.3c0-0.1,0.1-0.1,0.1-0.1h-4.1v29.5C704.5,713.5,706.3,715.6,709.5,715.6z"/>
	</g>
</g>
<g>
	
		<ellipse transform="matrix(0.7071 -0.7071 0.7071 0.7071 -562.5497 910.4689)" class="st9" cx="817.8" cy="1134.3" rx="84" ry="84"/>
</g>
<g>
	<ellipse transform="matrix(0.7071 -0.7071 0.7071 0.7071 -981.4614 736.95)" class="st2" cx="398.8" cy="1553.2" rx="84" ry="84"/>
</g>
<g>
	
		<ellipse transform="matrix(0.7071 -0.7071 0.7071 0.7071 -742.3952 1048.6227)" class="st2" cx="894.6" cy="1420.5" rx="84" ry="84"/>
</g>
<g>
	<ellipse transform="matrix(0.7071 -0.7071 0.7071 0.7071 -951.9809 961.8094)" class="st2" cx="685" cy="1630" rx="84" ry="84"/>
</g>
<g>
	<ellipse transform="matrix(0.7071 -0.7071 0.7071 0.7071 -801.616 598.7963)" class="st2" cx="322" cy="1267" rx="84" ry="84"/>
</g>
<g>
	
		<ellipse transform="matrix(0.7071 -0.7071 0.7071 0.7071 -592.0302 685.6096)" class="st2" cx="531.6" cy="1057.4" rx="84" ry="84"/>
</g>
<text transform="matrix(1 0 0 1 926.79 1128.7471)"><tspan x="0" y="0" class="st2 st3 st4">Antigen Generation</tspan><tspan x="0" y="22" class="st2 st5 st4">Raptor™</tspan></text>
<text transform="matrix(1 0 0 1 1003.3447 1414.917)"><tspan x="0" y="0" class="st2 st3 st4">Antibody Generation</tspan><tspan x="0" y="22" class="st2 st5 st4">ImmunoMax™</tspan></text>
<text transform="matrix(1 0 0 1 518.332 1331.4678)"><tspan x="0" y="0" class="st2 st6 st7">DiversImmune</tspan><tspan x="39.8" y="38.6" class="st2 st6 st7">Platform™</tspan></text>
<text transform="matrix(1 0 0 1 797.7583 1613.5022)"><tspan x="0" y="0" class="st2 st3 st4">Optimization and</tspan><tspan x="0" y="22" class="st2 st3 st4">Functional Screening</tspan><tspan x="0" y="44" class="st2 st5 st4">AffiniMax™</tspan></text>
<text transform="matrix(1 0 0 1 137.2191 1261.6494)"><tspan x="0" y="0" class="st2 st3 st4">Disease</tspan><tspan x="5" y="22" class="st2 st3 st4">Studies</tspan></text>
<text transform="matrix(1 0 0 1 301.8285 1051.9037)"><tspan x="0" y="0" class="st2 st3 st4">Bioinformatics</tspan><tspan x="47.1" y="22" class="st2 st5 st4">BioMax™</tspan></text>
<text transform="matrix(1 0 0 1 164.4749 1558.8187)" class="st2 st3 st4">Humanization</text>
<path class="st10" d="M505.5,1087.5c0.5,2.4,0.8,4.9,0.7,7.2l-9.2-9.2c0.7,0.1,1.5,0.4,2.2,0.5
	C501.3,1086.5,503.4,1087.1,505.5,1087.5z M505.6,1079.5c-0.1-0.4-0.3-1.1-0.4-1.5l8.7,8.7c-2.2,0-4.3-0.3-6.7-0.7
	C506.7,1083.8,506.2,1081.6,505.6,1079.5z M524.1,1051.5c0.5,2.2,1.1,4.3,1.6,6.5c0.1,0.7,0.4,1.2,0.5,1.9l-9-9
	C519.5,1050.6,521.8,1051.1,524.1,1051.5z M525.2,1043l8.8,8.8c-0.7-0.1-1.1-0.3-1.8-0.4c-2.2-0.5-4.3-1.1-6.5-1.6
	C525.3,1047.5,525.1,1045.3,525.2,1043z M553.9,1031.2c2.2,0.5,4.3,1.1,6.5,1.6c0.4,2.3,0.8,4.6,0.5,6.8l-8.8-8.8
	C552.7,1031.1,553.2,1031.1,553.9,1031.2z M560.3,1024.8c-0.1-0.7-0.3-1.1-0.4-1.8l8.8,8.8c-2.2,0-4.5-0.1-6.8-0.5
	C561.5,1029,560.8,1027,560.3,1024.8z M571.2,1031.6l-12.2-12.2c-0.7-2.6-1.1-5.2-1.1-7.6l18.1,18.1
	C574.4,1030.8,572.8,1031.3,571.2,1031.6z M552.9,1052.5c-1.6,0.8-3.3,1.1-5.2,1.4l-19.6-19.6c0.4-0.4,0.7-0.9,1.1-1.4
	c0.7-0.7,1.5-1.2,2.2-1.9L552.9,1052.5z M548.4,1029.8l12.2,12.2c-0.3,1.6-0.8,3.3-1.8,4.8l-18.1-18.1
	C543.4,1028.9,545.9,1029.4,548.4,1029.8z M538.3,1028.9l19.6,19.6c-0.4,0.4-0.7,1-1.1,1.4c-0.7,0.7-1.5,1.2-2.2,1.9l-21.5-21.5
	C534.7,1029.4,536.5,1029,538.3,1028.9z M527.1,1036l17.9,17.9c-2.5,0-4.9-0.5-7.6-1.1l-12.2-12.2
	C525.7,1038.9,526.3,1037.3,527.1,1036z M525.7,1080.3c-0.4,0.7-1.1,1.4-1.8,2c-0.4,0.4-0.8,0.8-1.4,1.1l-19.4-19.4
	c0.1-1.8,0.5-3.5,1.4-5.2l21.3,21.3L525.7,1080.3z M528.2,1073.5c-0.1,1.8-0.5,3.5-1.4,5.2l-21.4-21.4c0.5-0.8,1.1-1.6,1.8-2.3
	c0.4-0.4,0.8-0.8,1.2-1.2L528.2,1073.5z M514.7,1051.1l12.4,12.4c0.7,2.6,1.1,5.2,1.1,7.6l-18.2-18.2
	C511.6,1052,513.1,1051.3,514.7,1051.1z M503,1066.8l17.9,17.9c-1.5,1-3,1.4-4.8,1.8l-12.1-12.1
	C503.6,1071.7,503.2,1069.1,503,1066.8z M485.8,1083.5c2.5,0,4.9,0.5,7.5,0.9l0,0l12.5,12.5c-0.3,1.6-0.8,3.3-1.8,4.8L485.8,1083.5z
	 M473.3,1086.3c-0.4,0.4-0.4,0.9,0,1.4c0.4,0.4,0.9,0.4,1.4,0c2.6-2.6,5.6-3.7,8.7-4.1l19.7,19.7c-0.4,0.4-0.7,0.7-1.1,1.1
	c-0.4,0.4-0.4,0.9,0,1.4c0.4,0.4,0.9,0.4,1.4,0c5-5,5.3-11.3,4.2-17.8c2.9,0.4,5.7,0.8,8.4,0.3c0,0,0,0,0.1-0.1
	c3.4-0.4,6.4-1.8,9.2-4.6c7.2-7.2,4.8-17,2.2-26.4c-0.5-1.9-0.9-3.7-1.4-5.4c1.8,0.4,3.7,0.9,5.4,1.4c8,2,16.3,4.3,23,0.4l0,0
	c1.2-0.7,2.3-1.5,3.3-2.4c0.7-0.7,1.2-1.2,1.6-1.9l0.1-0.1c0.1-0.1,0.3-0.3,0.1-0.4c3-4.6,3.1-9.9,2.2-15.5
	c6.5,1.1,12.8,0.8,17.8-4.2c0.4-0.4,0.4-0.9,0-1.4c-0.4-0.4-0.9-0.4-1.4,0c-0.4,0.4-0.8,0.8-1.4,1.1l-19.2-19.2
	c0.3-3.3,1.5-6.4,4.1-9c0.4-0.4,0.4-0.9,0-1.4c-0.4-0.4-0.9-0.4-1.4,0c-7.2,7.2-4.8,17-2.2,26.4c0.5,1.9,0.9,3.7,1.4,5.4
	c-1.8-0.4-3.7-0.9-5.4-1.4c-8-2-16.3-4.3-23-0.4c0,0,0,0-0.1,0.1c-1.2,0.7-2.2,1.4-3.3,2.4c-5,5-5.3,11.3-4.2,17.8
	c-6.5-1.1-12.8-0.8-17.8,4.2c-7.2,7.2-4.8,17-2.2,26.4c0.5,1.9,0.9,3.7,1.4,5.4c-1.8-0.4-3.7-0.9-5.4-1.4
	C490.1,1081.6,480.5,1079.1,473.3,1086.3z"/>
<path class="st10" d="M418.3,1566.4c-4.8,2.1-5.5,4.9-6.9,6.7c-1.4,1.6-8,5.4-8.5,5.8c-0.5,0.4-1.5,0-2,0c-0.6,0-1.4,0.1-1.4,0.1
	c-2.1-0.2-2.2,0.5-2.6,1c-0.4,0-0.7,0.1-1,0.2c0.4-0.4,0.7-0.9,1.1-1.2c1.2-1.2,2.2-5.3,2.3-5.9c2.8-2.8,3.9-6.2,4.2-6.7
	c0.2,0.2,1.4,0.6,2,0.5c2.7-1.1,4.9-4.1,4.9-4.1c1,0.6,7.5,2.8,7.8,3C418.6,1565.9,418.6,1566.1,418.3,1566.4z M398.6,1527.3
	c0.1,0,0.6-0.2,0.6-0.2s0,1,0.1,1.4c0.1,0.4,0.1,1.1,0.1,1.1c-0.1,0-0.2-0.5-0.4-0.7C399,1528.2,398.5,1527.3,398.6,1527.3z
	 M428.7,1563.8c-7.1-10.1-11.5-10.2-11.5-10.3s-0.2-0.4-0.4-0.6c-0.4-0.5-3.9-1.7-3.9-2.1c0.1-0.4,0.4-2.6,0.5-2.7
	c0.1-0.2,0-0.9,0-1.5c0.1-0.5,0.9-0.7,0.9-0.9s0.7-1.5,0.9-2c0.1-0.4,0.5-1.5,0.5-2.1c0-0.7,0.4-1,1-2.6c1-2.8,1-6.8,1-7
	c0-0.2,1.2-1.1,1.6-1.4c0.4-0.2,2.8-2.1,4.8-3.5c2-1.4,2.7-3.5,2.7-3.7c0.1-0.7-0.6-1.2-0.6-1.2s0-0.4,0.1-0.6
	c0.2-0.5-0.1-0.9-0.4-1.1c-0.2-0.2-0.6-0.1-0.6-0.1s0-0.1-0.1-0.5c-0.4-0.4-1.1-0.1-1.5-0.1c-0.4,0-0.9,0.4-1,0.2
	c0.4-1.4,0-1.6-0.2-2c-0.2-0.4-0.9-0.2-0.7,0.1c0.1,0.4-0.5,2-0.9,2.8c-1.5,1.7-1,3.9-1.2,5c-0.1,1.1-2.3,2.3-2.5,2.3
	c-0.1,0,0-0.5,0-0.7c0.1-2-0.6-3.7-0.9-4.3c-0.1-0.6-0.2-1.5-0.2-2.8c0-1.4-2.6-3.4-2.8-3.7c-0.2-0.2-1.5-1.5-1.6-2.3
	c-0.2-1.8,1.6-1.8,2.6-1.8c0.9-0.1,1.4-1,1.4-1.2c0-0.2-0.1-0.7,0.2-0.7c0.7-0.1,0.9-0.6,0.9-0.9c0-0.2-0.5-0.5-0.5-0.6
	c0-0.1,0.5-0.5,0.9-0.9c0.2-0.4,0-0.9,0-1c0-0.1-0.2-0.5,0-0.6c1.1-0.1,1.1-0.7,1.1-1.2s-1.2-1.4-1.2-1.5s0.1-0.6,0.1-1
	c0-0.4-0.4-1-0.6-1.4c0.1-1.4-0.1-2-0.1-2.1c0-0.2,0.4,0,0.4-0.9c0-0.9-1-2.3-3.9-3.8c-3-1.5-6-1.1-6-1.1c-5.2,1-5.8,5.7-5.8,8
	c0,2.3,3,5,3.6,5.9c0.5,0.9,0,3.1-0.1,3.1c-0.1,0-1.2,0.2-1.4,0.7c-0.1,0.4-0.4,1.1-1.4,2.6c-1,1.5-1.6,4.1-1.6,4.6
	c-0.1,0.5-0.2,0.7-0.9,2c-4.8,1.6-6.8,6-6.8,6s-0.2,1.7,0.6,3.2c0.7,1.5,5.9,4.9,5.8,5.2c-0.1,0.2,0,2.1-0.2,2.7
	c-0.2,0.7-0.6,3.1-0.7,3.6c-0.1,0.5-0.1,1.1-0.9,1.8c-1.5,2-4.2,4.7-4.9,8.7c-0.7,4.1-0.6,7.9-0.5,8c0.2,0.1,0.7,1,0.9,1.5
	c-1.5,4.6-1.2,7.6-1.1,9.6c0.1,2-1,4.2-1.2,4.4c-0.2,0.2-1.4,1.6-2.6,2.5c-4.9,2.7-6,6.7-6.2,7.4c-0.1,0.7-1.6,3.8-3.1,6
	c-1.5,2.2-4.4,5.3-4.8,5.4c-0.4,0.1-0.9,0.6-0.9,0.6s-0.4-0.5-0.6-0.4c-0.2,0-0.6,0.7-1.1,0.9c-0.5,0.1-0.9,0.7-0.9,0.7l-0.2-0.2
	c0,0-1.6-0.4-2,1.5c-0.1,3.2,1.8,4.6,2.2,4.9c0.4,0.4,1.2,0.4,1.5,1.8c0.2,1.5,1.6,3,2.2,4.1c0.6,1.1,3.9,2,6.8,1.8
	c2.8-0.1,3-2.3,3-2.6c0-0.2-0.4-0.4-0.5-0.6c-0.1-0.6-1.8-1-2.2-1.6c-0.4-0.6-0.6-1-0.9-1.7c0.2-1-0.1-2-0.1-2.1
	c0-0.1,0.2-0.2,0.4-1.5c0.1-1.1-0.5-1.4-0.4-1.5c0-0.1,0.2-1.1,0.4-2.5c0.1-1.2,5.7-6.9,6.9-8.2c1.1-1.2,6.5-7.8,7.1-8.2
	c0.2-0.2,0.9-0.9,1.5-1.5c-0.1,0.2-0.1,0.5-0.1,0.5c-0.5,1.7,0.9,3.1,1.6,3.9c0.7,0.9,1.4,1.5,1.8,3.3c0.6,3.9,1.5,3.9,2,4.7
	c0.5,0.7,3.1,2.8,4.4,3.1c1.5,0.2,1.5-1.2,1.6-1.6c0.1-0.4-0.9-2.3-1.2-2.8c-0.4-0.5,0-1.8,0-2.2s0.7-1.2,1-1.6
	c0.7-0.2,0.5-1.2,0.5-1.4c0-0.1-1.1-0.1-1.1-0.4c0-0.2-0.1-0.6-0.6-0.9c-0.2-0.7,0.9-2,0.9-2c1.6-1.6,6.8-5.3,10.1-6.4
	c3.3-1.1,7.6-4.1,9-4.9c4.9-2.7,4.3-3.9,4.6-4.6C430,1566.7,430,1565.1,428.7,1563.8z"/>
<path class="st11" d="M816.8,1121.4l3.3,1.6l3.3-1.6v25.5c0,0.1,0,0.3,0,0.4c-0.2,0-0.4-0.1-0.6-0.1h-5.5c-0.2,0-0.3,0-0.4,0
	c0-0.1,0-0.2,0-0.4V1121.4z M796.2,1138.5c0.4,0.5,0.6,1.1,0.5,1.8c-0.1,0.7-0.4,1.2-0.9,1.6c-0.5,0.4-1.1,0.6-1.8,0.5
	c-0.7-0.1-1.2-0.4-1.6-0.9l-2.1-2.7l-7,20.9c-0.2,0.6-0.6,1.1-1.2,1.4c-0.6,0.3-1.2,0.3-1.8,0.1c-0.6-0.2-1.1-0.6-1.4-1.2
	c-0.3-0.6-0.3-1.2-0.1-1.8l8.5-25.1c0.2-0.6,0.5-1,1.1-1.3c0.5-0.3,1.1-0.4,1.6-0.3c0.6,0.1,1.1,0.4,1.4,0.9L796.2,1138.5z
	 M799.9,1132.8c0.2-0.6,0.5-1.1,1.1-1.4c0.5-0.3,1.1-0.4,1.7-0.3c0.6,0.1,1.1,0.5,1.4,1l9.8,14.6c0.4,0.6,0.5,1.2,0.3,1.8
	c-0.1,0.6-0.5,1.1-1,1.5c-0.6,0.4-1.2,0.5-1.8,0.4c-0.7-0.1-1.2-0.5-1.5-1L803,1139l-9,29.7c-0.2,0.6-0.6,1.1-1.2,1.4
	c-0.6,0.3-1.2,0.4-1.8,0.2c-0.6-0.2-1.1-0.6-1.4-1.2c-0.3-0.6-0.4-1.2-0.2-1.8L799.9,1132.8z M849.9,1131.5c0.6-0.1,1.1,0,1.6,0.3
	c0.5,0.3,0.9,0.7,1.1,1.3l8.5,25.1c0.2,0.6,0.2,1.2-0.1,1.8c-0.3,0.6-0.8,1-1.4,1.2c-0.6,0.2-1.2,0.2-1.8-0.1
	c-0.6-0.3-1-0.8-1.2-1.4l-7-20.9l-2.1,2.7c-0.4,0.5-1,0.8-1.6,0.9c-0.7,0.1-1.2-0.1-1.8-0.5c-0.5-0.4-0.8-0.9-0.9-1.6
	c-0.1-0.7,0.1-1.2,0.5-1.8l4.9-6.2C848.8,1131.9,849.3,1131.6,849.9,1131.5z M837.1,1131.1c0.6-0.1,1.2-0.1,1.7,0.3
	c0.5,0.3,0.9,0.8,1.1,1.4l10.4,34.5c0.2,0.6,0.1,1.2-0.2,1.8c-0.3,0.6-0.8,1-1.4,1.2c-0.6,0.2-1.2,0.1-1.8-0.2
	c-0.6-0.3-1-0.8-1.2-1.4l-8.9-29.7l-6.9,10.4c-0.4,0.5-0.9,0.9-1.5,1c-0.6,0.1-1.2,0-1.8-0.4c-0.6-0.4-0.9-0.9-1-1.5
	c-0.1-0.6,0-1.2,0.4-1.8l9.8-14.6C836,1131.6,836.5,1131.3,837.1,1131.1z M817.1,1148.9c0.1,0,0.3,0,0.4,0h5.5c0.2,0,0.4,0,0.6,0.1
	c0.5,0.1,0.9,0.3,1.3,0.7c0.5,0.5,0.8,1.1,0.8,1.8c0,0.7-0.3,1.3-0.8,1.8c-0.5,0.5-1.1,0.8-1.8,0.8h-5.5c-0.7,0-1.3-0.3-1.8-0.8
	c-0.5-0.5-0.8-1.1-0.8-1.8c0-0.7,0.3-1.3,0.8-1.8C816.1,1149.3,816.6,1149,817.1,1148.9z M832.6,1089.9v24.7l-12.5,6.8l-12.5-6.8
	v-24.7l12.5-6.8L832.6,1089.9z"/>
<path class="st10" d="M874.2,1457.1l-5.1-5.1l36.1-36.1l5.1,5.1L874.2,1457.1z M941.7,1413.5l-1.8-6.9l-34.5,9.2l1.8,6.9
	L941.7,1413.5z M944.8,1424.1l-1.8-6.9l-29.6,7.9l1.8,6.9L944.8,1424.1z M920.8,1426.8l-2.6-10.7l-3,0.7l2.6,10.7L920.8,1426.8z
	 M905.4,1420.2l-7.5-7.5l-2.2,2.2l7.5,7.5L905.4,1420.2z M900.8,1424.2l-7.5-7.5l-2.2,2.2l7.5,7.5L900.8,1424.2z M902.4,1413.1
	l-5.1-5.1l-36.1,36.1l5.1,5.1L902.4,1413.1z M902.5,1413l9.2-34.5l-6.9-1.8l-9.2,34.5L902.5,1413z M893.2,1405l7.9-29.6l-6.9-1.8
	l-7.9,29.6L893.2,1405z M901.6,1403.2l0.7-3l-10.7-2.6l-0.7,3L901.6,1403.2z"/>
<rect x="319.1" y="1273.3" transform="matrix(0.5001 -0.866 0.866 0.5001 -951.5371 919.9097)" class="st10" width="3.7" height="21.5"/>
<path class="st10" d="M348.3,1297.2c5.4-5.1,8.8-12.2,8.8-20.2c0-9.8-5.2-18.7-13.2-23.6l9-15.5l-1.4-0.8l2.2-3.9l-5.8-3.3l-2.2,3.8
	l-1.5-0.9l-22.1,38.2l1.9,1.1l-2.7,4.7l4.8,2.8l2.7-4.7l1.9,1.1l9.3-16.1c5.7,3.6,9.3,10,9.3,17c0,11.1-9.1,20.2-20.2,20.2H313v7.6
	h45.8v-7.6H348.3z"/>
<path class="st10" d="M312.5,1266.2h-25.3V1241h4.9v19.4c0,1.5,1.2,2.7,2.6,2.7c1.5,0,2.6-1.2,2.6-2.7V1241h5.1v19.4
	c0,1.5,1.2,2.7,2.6,2.7c1.5,0,2.6-1.2,2.6-2.7V1241h4.8V1266.2z M307.7,1238.4v-6.1h0.7l0-1.5h-6.8l0,1.5h0.8v6.1h-5.1v-6.1h0.7
	l0-1.5h-6.8l0,1.5h0.8v6.1h-7.4v30.4h30.4v-30.4H307.7z"/>
<g>
	<g>
		<path class="st10" d="M660.5,1620.8c0.7,0.3,1.5-0.1,1.8-0.8c0.3-0.7-0.1-1.5-0.8-1.8c-0.7-0.3-1.5,0.1-1.8,0.8
			C659.5,1619.7,659.8,1620.5,660.5,1620.8z"/>
		<path class="st10" d="M660.2,1614.2c0.5,0.2,1-0.1,1.2-0.5c0.2-0.5-0.1-1-0.5-1.2c-0.5-0.2-1,0.1-1.2,0.5
			C659.5,1613.5,659.8,1614,660.2,1614.2z"/>
		<path class="st10" d="M663.8,1622.9c-0.5-0.2-1,0-1.2,0.4h1.7C664.1,1623.1,664,1623,663.8,1622.9z"/>
		<path class="st10" d="M665.3,1614.1c0.8-0.3,1.2-1.2,0.9-2c-0.3-0.8-1.2-1.2-2-0.9c-0.8,0.3-1.2,1.2-0.9,2
			C663.6,1614,664.5,1614.4,665.3,1614.1z"/>
		
			<ellipse transform="matrix(0.9356 -0.3532 0.3532 0.9356 -525.7272 337.5479)" class="st10" cx="662.1" cy="1609.4" rx="0.8" ry="0.8"/>
		<path class="st10" d="M665.6,1617.4c-0.6,0.2-0.9,0.9-0.7,1.5c0.2,0.6,0.9,0.9,1.5,0.7c0.6-0.2,0.9-0.9,0.7-1.5
			C666.8,1617.5,666.2,1617.2,665.6,1617.4z"/>
		<path class="st10" d="M706.6,1620.8c0.7,0.3,1.5-0.1,1.8-0.8c0.3-0.7-0.1-1.5-0.8-1.8c-0.7-0.3-1.5,0.1-1.8,0.8
			C705.6,1619.7,705.9,1620.5,706.6,1620.8z"/>
		<path class="st10" d="M706.3,1614.2c0.5,0.2,1-0.1,1.2-0.5c0.2-0.5-0.1-1-0.5-1.2c-0.5-0.2-1,0.1-1.2,0.5
			C705.6,1613.5,705.9,1614,706.3,1614.2z"/>
		<path class="st10" d="M709.8,1622.9c-0.5-0.2-1,0-1.2,0.4h1.7C710.2,1623.1,710.1,1623,709.8,1622.9z"/>
		<path class="st10" d="M711.4,1614.1c0.8-0.3,1.2-1.2,0.9-2c-0.3-0.8-1.2-1.2-2-0.9c-0.8,0.3-1.2,1.2-0.9,2
			C709.7,1614,710.6,1614.4,711.4,1614.1z"/>
		<path class="st10" d="M708.5,1610.1c0.4-0.1,0.6-0.6,0.4-1c-0.2-0.4-0.6-0.6-1-0.4c-0.4,0.2-0.6,0.6-0.5,1
			C707.6,1610.1,708.1,1610.3,708.5,1610.1z"/>
		<path class="st10" d="M711.7,1617.4c-0.6,0.2-0.9,0.9-0.7,1.5c0.2,0.6,0.9,0.9,1.5,0.7c0.6-0.2,0.9-0.9,0.7-1.5
			C712.9,1617.5,712.3,1617.2,711.7,1617.4z"/>
		<path class="st10" d="M671.9,1603.1c-1,1.1-2.2,3.1-2.1,6.3v43.4c0,4.4-2.4,7.2-6.3,7.2c-3.9,0-6.3-2.7-6.3-7.2v-43.4
			c0-3.2-1.1-5.2-2.1-6.3H671.9z M653.1,1603c0,0,2.9,1.7,2.8,6.4v43.4c0,5.1,3,8.4,7.6,8.4c4.6,0,7.6-3.3,7.6-8.4v-43.4
			c0-4.6,2.7-6.3,2.8-6.4c0.2-0.1,0.4-0.4,0.3-0.7c-0.1-0.3-0.3-0.5-0.6-0.5h-20.2c-0.3,0-0.5,0.2-0.6,0.5
			C652.7,1602.6,652.8,1602.9,653.1,1603z"/>
		<path class="st10" d="M659.6,1632.3c0.3-0.9,1.3-1.3,2.1-1c0.9,0.3,1.3,1.3,1,2.1c-0.3,0.9-1.3,1.3-2.1,1
			C659.7,1634.1,659.3,1633.1,659.6,1632.3z M664.7,1627.3c0.3-0.8,1.1-1.2,1.9-0.9c0.8,0.3,1.2,1.2,0.9,1.9
			c-0.3,0.8-1.2,1.2-1.9,0.9C664.8,1628.9,664.4,1628.1,664.7,1627.3z M666.6,1634.5c-0.2,0.4-0.6,0.6-1.1,0.5
			c-0.4-0.2-0.6-0.6-0.5-1.1c0.2-0.4,0.6-0.6,1.1-0.5C666.6,1633.6,666.8,1634.1,666.6,1634.5z M663.5,1658.6c3.2,0,5-2.1,5-5.8
			v-29.5h-4.2c0.1,0.3,0.2,0.6,0.1,0.9c-0.2,0.5-0.8,0.8-1.3,0.6c-0.5-0.2-0.8-0.8-0.6-1.3c0-0.1,0.1-0.1,0.1-0.1h-4.1v29.5
			C658.4,1656.5,660.3,1658.6,663.5,1658.6z"/>
		<path class="st10" d="M683.6,1620.8c0.7,0.3,1.5-0.1,1.8-0.8c0.3-0.7-0.1-1.5-0.8-1.8c-0.7-0.3-1.5,0.1-1.8,0.8
			C682.5,1619.7,682.9,1620.5,683.6,1620.8z"/>
		<path class="st10" d="M683.3,1614.2c0.5,0.2,1-0.1,1.2-0.5c0.2-0.5-0.1-1-0.5-1.2c-0.5-0.2-1,0.1-1.2,0.5
			C682.6,1613.5,682.8,1614,683.3,1614.2z"/>
		<path class="st10" d="M686.8,1622.9c-0.5-0.2-1,0-1.2,0.4h1.7C687.2,1623.1,687,1623,686.8,1622.9z"/>
		<path class="st10" d="M688.3,1614.1c0.8-0.3,1.2-1.2,0.9-2c-0.3-0.8-1.2-1.2-2-0.9c-0.8,0.3-1.2,1.2-0.9,2
			C686.6,1614,687.5,1614.4,688.3,1614.1z"/>
		<path class="st10" d="M685.4,1610.1c0.4-0.1,0.6-0.6,0.4-1c-0.2-0.4-0.6-0.6-1-0.4c-0.4,0.2-0.6,0.6-0.5,1
			C684.6,1610.1,685,1610.3,685.4,1610.1z"/>
		<path class="st10" d="M688.6,1617.4c-0.6,0.2-0.9,0.9-0.7,1.5c0.2,0.6,0.9,0.9,1.5,0.7c0.6-0.2,0.9-0.9,0.7-1.5
			C689.9,1617.5,689.2,1617.2,688.6,1617.4z"/>
		<path class="st10" d="M678,1603.1h17c-1,1.1-2.2,3.1-2.1,6.3v43.4c0,4.4-2.4,7.2-6.3,7.2c-3.9,0-6.3-2.7-6.3-7.2v-43.4
			C680.2,1606.2,679,1604.2,678,1603.1z M686.5,1661.2c4.6,0,7.6-3.3,7.6-8.4v-43.4c0-4.6,2.7-6.3,2.8-6.4c0.2-0.1,0.4-0.4,0.3-0.7
			c-0.1-0.3-0.3-0.5-0.6-0.5h-20.2c-0.3,0-0.5,0.2-0.6,0.5c-0.1,0.3,0,0.6,0.3,0.7c0,0,2.9,1.7,2.8,6.4v43.4
			C678.9,1657.9,681.9,1661.2,686.5,1661.2z"/>
		<path class="st10" d="M682.7,1632.3c0.3-0.9,1.3-1.3,2.1-1c0.9,0.3,1.3,1.3,1,2.1c-0.3,0.9-1.3,1.3-2.1,1
			C682.8,1634.1,682.3,1633.1,682.7,1632.3z M687.7,1627.3c0.3-0.8,1.1-1.2,1.9-0.9c0.8,0.3,1.2,1.2,0.9,1.9
			c-0.3,0.8-1.2,1.2-1.9,0.9C687.8,1628.9,687.4,1628.1,687.7,1627.3z M689.7,1634.5c-0.2,0.4-0.6,0.6-1.1,0.5
			c-0.4-0.2-0.6-0.6-0.5-1.1c0.2-0.4,0.6-0.6,1.1-0.5C689.6,1633.6,689.8,1634.1,689.7,1634.5z M686.5,1658.6c3.2,0,5-2.1,5-5.8
			v-29.5h-4.2c0.1,0.3,0.2,0.6,0.1,0.9c-0.2,0.5-0.8,0.8-1.3,0.6c-0.5-0.2-0.8-0.8-0.6-1.3c0-0.1,0.1-0.1,0.1-0.1h-4.1v29.5
			C681.5,1656.5,683.3,1658.6,686.5,1658.6z"/>
		<path class="st10" d="M718,1603.1c-1,1.1-2.2,3.1-2.1,6.3v43.4c0,4.4-2.4,7.2-6.3,7.2c-3.9,0-6.3-2.7-6.3-7.2v-43.4
			c0-3.2-1.1-5.2-2.1-6.3H718z M698.9,1602.3c-0.1,0.3,0,0.6,0.3,0.7c0,0,2.9,1.7,2.8,6.4v43.4c0,5.1,3,8.4,7.6,8.4
			c4.6,0,7.6-3.3,7.6-8.4v-43.4c0-4.6,2.7-6.3,2.8-6.4c0.2-0.1,0.4-0.4,0.3-0.7c-0.1-0.3-0.3-0.5-0.6-0.5h-20.2
			C699.2,1601.9,698.9,1602.1,698.9,1602.3z"/>
		<path class="st10" d="M705.7,1632.3c0.3-0.9,1.3-1.3,2.1-1c0.9,0.3,1.3,1.3,1,2.1c-0.3,0.9-1.3,1.3-2.1,1
			C705.8,1634.1,705.4,1633.1,705.7,1632.3z M710.8,1627.3c0.3-0.8,1.1-1.2,1.9-0.9c0.8,0.3,1.2,1.2,0.9,1.9
			c-0.3,0.8-1.2,1.2-1.9,0.9C710.9,1628.9,710.5,1628.1,710.8,1627.3z M712.7,1634.5c-0.2,0.4-0.6,0.6-1.1,0.5
			c-0.4-0.2-0.6-0.6-0.5-1.1c0.2-0.4,0.6-0.6,1.1-0.5C712.7,1633.6,712.9,1634.1,712.7,1634.5z M709.5,1658.6c3.2,0,5-2.1,5-5.8
			v-29.5h-4.2c0.1,0.3,0.2,0.6,0.1,0.9c-0.2,0.5-0.8,0.8-1.3,0.6c-0.5-0.2-0.8-0.8-0.6-1.3c0-0.1,0.1-0.1,0.1-0.1h-4.1v29.5
			C704.5,1656.5,706.3,1658.6,709.5,1658.6z"/>
	</g>
</g>
</svg>
