<svg id="Layer_1" data-name="Layer 1" xmlns="http://www.w3.org/2000/svg" viewBox="0 0 1280 800">
  <defs>
    <style>
      .cls-1 {
        font-size: 36.15px;
      }

      .cls-1, .cls-2, .cls-3, .cls-5 {
        fill: #999;
      }

      .cls-1, .cls-3 {
        font-family: Proxima Nova;
      }

      .cls-3 {
        font-size: 20px;
      }

      .cls-4 {
        font-weight: 700;
      }

      .cls-5 {
        fill-rule: evenodd;
      }
    </style>
  </defs>
  <title>technology-1</title>
  <text class="cls-1" transform="translate(518.33 388.47)">DiversImmune<tspan x="39.84" y="38.56">Platfor</tspan><tspan x="138.67" y="38.56">m</tspan><tspan x="167.09" y="38.56">™</tspan></text>
  <g class="item">
    <text class="description">
      Lorem ipsum dolor sit amet, consectetur adipisicing elit. Qui atque eius quos, sapiente sed aspernatur perspiciatis minus veritatis, recusandae voluptatem vel eligendi nemo cum. Repellendus deserunt atque dolore reiciendis sequi.
    </text>
    <circle cx="531" cy="115" r="85" stroke="#999999" stroke-width="1" fill="transparent"></circle>
    <!-- <path class="cls-2 circle" d="M531.59,30.5a84,84,0,1,1-59.36,24.59A83.69,83.69,0,0,1,531.59,30.5m0-1a85,85,0,1,0,60.07,24.88A84.4,84.4,0,0,0,531.59,29.5h0Z"/> -->
    <text class="cls-3" transform="translate(301.83 108.9)">Bioinformatics<tspan class="cls-4"><tspan x="47.1" y="22">BioMax™</tspan></tspan></text>
    <path class="cls-2" d="M505.48,144.5a26.39,26.39,0,0,1,.68,7.21l-9.25-9.25c0.68,0.14,1.49.4,2.17,0.55C501.26,143.54,503.44,144.08,505.48,144.5Zm0.13-8c-0.13-.41-0.27-1.09-0.4-1.5l8.7,8.7a37.7,37.7,0,0,1-6.66-.68Q506.42,139.73,505.61,136.47Zm18.5-28q0.82,3.26,1.63,6.53c0.14,0.68.4,1.23,0.55,1.91l-9-9A23.45,23.45,0,0,1,524.11,108.46Zm1.08-8.44,8.84,8.84c-0.68-.14-1.09-0.27-1.77-0.41l-6.53-1.63A28.93,28.93,0,0,1,525.19,100ZM553.88,88.2l6.53,1.63a23,23,0,0,1,.54,6.8l-8.84-8.84A7.36,7.36,0,0,0,553.88,88.2Zm6.4-6.4c-0.14-.68-0.27-1.09-0.41-1.77l8.84,8.84a39.57,39.57,0,0,1-6.8-.54C561.5,86,560.82,84,560.27,81.81Zm10.88,6.8L558.91,76.37a29.84,29.84,0,0,1-1.08-7.61l18.09,18.09A12.72,12.72,0,0,1,571.15,88.61Zm-18.22,20.94a16.33,16.33,0,0,1-5.17,1.36L528.18,91.33c0.41-.41.68-0.95,1.09-1.36,0.68-.68,1.49-1.23,2.17-1.91Zm-4.49-22.7,12.24,12.24a12.55,12.55,0,0,1-1.77,4.76L540.82,85.75A72.19,72.19,0,0,1,548.44,86.84Zm-10.19-1,19.58,19.58c-0.41.41-.68,1-1.09,1.36-0.68.68-1.5,1.22-2.18,1.9L533.08,87.25A13.65,13.65,0,0,1,538.25,85.89ZM527.1,93L545,110.91a40,40,0,0,1-7.61-1.08L525.19,97.59A23.4,23.4,0,0,1,527.1,93Zm-1.36,44.31a12,12,0,0,1-1.77,2,5.41,5.41,0,0,1-1.36,1.09L503.17,121a13.86,13.86,0,0,1,1.36-5.17l21.34,21.34Zm2.44-6.79a14,14,0,0,1-1.36,5.17L505.47,114.3a15,15,0,0,1,1.77-2.31l1.22-1.22Zm-13.45-22.43,12.37,12.37a29.89,29.89,0,0,1,1.08,7.61L510,109.81A17,17,0,0,1,514.72,108.05ZM503,123.82L521,141.77a14.24,14.24,0,0,1-4.76,1.77l-12.1-12.1A56.33,56.33,0,0,1,503,123.82Zm-17.27,16.72a49.59,49.59,0,0,1,7.48.95h0L505.75,154a12.56,12.56,0,0,1-1.77,4.76Zm-12.51,2.72a1,1,0,0,0,1.36,1.36,14.36,14.36,0,0,1,8.69-4.08L503,160.26l-1.09,1.09a1,1,0,1,0,1.36,1.36c5-5,5.31-11.28,4.21-17.81a25.21,25.21,0,0,0,8.43.27l0.13-.13a15.09,15.09,0,0,0,9.24-4.62c7.21-7.21,4.76-17,2.18-26.38-0.55-1.91-.95-3.67-1.36-5.44,1.77,0.41,3.67.95,5.44,1.36,8,2,16.32,4.35,23,.4h0a14.81,14.81,0,0,0,3.26-2.44,10.31,10.31,0,0,0,1.64-1.9l0.14-.14c0.13-.13.27-0.27,0.13-0.4,3-4.62,3.13-9.93,2.17-15.5,6.53,1.09,12.78.81,17.81-4.21a1,1,0,0,0-1.36-1.36A5.39,5.39,0,0,1,577,85.48L557.82,66.32a14,14,0,0,1,4.08-9A1,1,0,1,0,560.53,56c-7.21,7.21-4.76,17-2.17,26.38,0.55,1.91.95,3.67,1.36,5.44-1.77-.41-3.67-0.95-5.44-1.36-8-2-16.32-4.35-23-.4l-0.14.14a13.73,13.73,0,0,0-3.26,2.44c-5,5-5.3,11.28-4.21,17.81-6.53-1.09-12.78-.81-17.81,4.21-7.21,7.21-4.76,17-2.17,26.38,0.55,1.91.95,3.67,1.36,5.44-1.77-.41-3.67-0.95-5.44-1.36C490.11,138.64,480.46,136.06,473.25,143.26Z"/>
  </g>
  <g class="item">
    <circle cx="399" cy="610" r="85" stroke="#999999" stroke-width="1" fill="transparent"></circle>
    <!-- <path class="cls-2 circle" d="M398.85,526.25a84,84,0,1,1-59.36,24.59,83.69,83.69,0,0,1,59.36-24.59m0-1a85,85,0,1,0,60.07,24.88,84.4,84.4,0,0,0-60.07-24.88h0Z"/> -->
    <text class="cls-3" transform="translate(164.47 615.82)">Humanization</text>
    <path class="cls-2" d="M418.33,623.37c-4.8,2.09-5.54,4.92-6.89,6.65s-8,5.42-8.5,5.78-1.47,0-2,0a9.9,9.9,0,0,0-1.35.12c-2.09-.24-2.22.49-2.59,1a2.36,2.36,0,0,0-1,.24c0.37-.37.74-0.86,1.11-1.23,1.23-1.23,2.22-5.3,2.34-5.91a19.86,19.86,0,0,0,4.19-6.65,3.15,3.15,0,0,0,2,.49,14.18,14.18,0,0,0,4.92-4.07c1,0.62,7.51,2.84,7.76,3S418.58,623.12,418.33,623.37Zm-19.7-39a3.23,3.23,0,0,0,.62-0.24,6.68,6.68,0,0,0,.12,1.35,4.85,4.85,0,0,1,.12,1.11,2.13,2.13,0,0,1-.37-0.74C399,585.21,398.51,584.34,398.63,584.34Zm30,36.45c-7.14-10.09-11.45-10.22-11.45-10.34a3.56,3.56,0,0,0-.37-0.62c-0.37-.49-3.94-1.73-3.94-2.09s0.37-2.58.49-2.71a5.79,5.79,0,0,0,0-1.48,2.69,2.69,0,0,1,.86-0.86c0-.12.74-1.47,0.86-2a8.83,8.83,0,0,0,.49-2.09c0-.74.37-1,1-2.58a25,25,0,0,0,1-7,6.08,6.08,0,0,1,1.6-1.35c0.37-.24,2.84-2.09,4.8-3.45a6.87,6.87,0,0,0,2.71-3.69,1.39,1.39,0,0,0-.62-1.23,1.66,1.66,0,0,1,.12-0.62,0.94,0.94,0,0,0-.37-1.11,0.65,0.65,0,0,0-.62-0.12,2,2,0,0,0-.12-0.49,2,2,0,0,0-1.47-.12,5,5,0,0,1-1,.24c0.37-1.35,0-1.6-.24-2s-0.86-.24-0.74.12a8.83,8.83,0,0,1-.86,2.84c-1.48,1.73-1,3.94-1.23,5s-2.34,2.34-2.46,2.34a1.43,1.43,0,0,1,0-.74,10,10,0,0,0-.86-4.31,14.12,14.12,0,0,1-.24-2.84c0-1.35-2.58-3.45-2.84-3.69a6,6,0,0,1-1.6-2.34c-0.24-1.85,1.6-1.85,2.58-1.85a1.72,1.72,0,0,0,1.35-1.23c0-.24-0.12-0.74.24-0.74a0.88,0.88,0,0,0,.86-0.86,2.69,2.69,0,0,0-.49-0.62,5.29,5.29,0,0,1,.86-0.86,1.34,1.34,0,0,0,0-1c0-.12-0.24-0.49,0-0.62a1,1,0,0,0,1.11-1.23c0-.49-1.23-1.35-1.23-1.48s0.12-.62.12-1a3.33,3.33,0,0,0-.62-1.35,6.18,6.18,0,0,0-.12-2.09,1,1,0,0,0,.37-0.86c0-.86-1-2.34-3.94-3.82a11.87,11.87,0,0,0-6-1.11c-5.17,1-5.78,5.66-5.78,8s3,5,3.57,5.91a4.8,4.8,0,0,1-.12,3.08,1.89,1.89,0,0,0-1.35.74,10,10,0,0,1-1.35,2.59,12.48,12.48,0,0,0-1.6,4.55,8.85,8.85,0,0,1-.86,2,12.19,12.19,0,0,0-6.77,6,5.53,5.53,0,0,0,.62,3.2c0.74,1.48,5.91,4.92,5.78,5.17s0,2.09-.24,2.71-0.62,3.08-.74,3.57a3,3,0,0,1-.86,1.85c-1.47,2-4.19,4.68-4.92,8.74a30.2,30.2,0,0,0-.49,8,3.38,3.38,0,0,1,.86,1.48,23.31,23.31,0,0,0-1.11,9.6A8.28,8.28,0,0,1,390,632.5a17,17,0,0,1-2.58,2.46c-4.92,2.71-6,6.65-6.16,7.39a27.57,27.57,0,0,1-3.08,6,29.3,29.3,0,0,1-4.8,5.42,3,3,0,0,0-.86.62,0.78,0.78,0,0,0-.62-0.37,11.27,11.27,0,0,1-1.11.86,1.75,1.75,0,0,0-.86.74l-0.24-.24a1.63,1.63,0,0,0-2,1.47A5.75,5.75,0,0,0,370,661.8c0.37,0.37,1.23.37,1.48,1.85s1.6,3,2.22,4.07,3.94,2,6.77,1.85,3-2.34,3-2.59a2.22,2.22,0,0,0-.49-0.62c-0.12-.62-1.85-1-2.22-1.6a7.37,7.37,0,0,1-.86-1.73,4.56,4.56,0,0,0-.12-2.09,3.78,3.78,0,0,0,.37-1.48,2.54,2.54,0,0,0-.37-1.47c0-.12.24-1.11,0.37-2.46s5.66-6.89,6.89-8.25,6.53-7.76,7.14-8.25l1.48-1.48a1.23,1.23,0,0,0-.12.49c-0.49,1.73.86,3.08,1.6,3.94a6.93,6.93,0,0,1,1.85,3.32c0.62,3.94,1.47,3.94,2,4.68s3.08,2.83,4.43,3.08,1.48-1.23,1.6-1.6a7.9,7.9,0,0,0-1.23-2.84c-0.37-.49,0-1.85,0-2.22a5.56,5.56,0,0,1,1-1.6c0.74-.24.49-1.23,0.49-1.35s-1.13-.14-1.13-0.38a1,1,0,0,0-.62-0.86c-0.24-.74.86-2,0.86-2,1.6-1.6,6.77-5.3,10.09-6.4s7.63-4.07,9-4.92c4.92-2.71,4.31-3.94,4.55-4.55A4.11,4.11,0,0,0,428.68,620.79Z"/>
  </g>
  <g class="item">
    <circle cx="818" cy="191" r="85" stroke="#999999" stroke-width="1" fill="transparent"></circle>
    <!-- <path class="cls-2 circle" d="M817.76,107.34a84,84,0,1,1-59.36,24.59,83.69,83.69,0,0,1,59.36-24.59m0-1a85,85,0,1,0,60.07,24.88,84.4,84.4,0,0,0-60.07-24.88h0Z"/> -->
    <text class="cls-3" transform="translate(926.79 185.75)">Antigen Generation<tspan class="cls-4"><tspan x="0" y="22">R</tspan><tspan x="12.46" y="22">aptor™</tspan></tspan></text>
    <path class="cls-5" d="M816.75,178.45l3.32,1.63,3.25-1.61v25.47c0,0.14,0,.28,0,0.41a2.59,2.59,0,0,0-.57-0.06h-5.54a3.09,3.09,0,0,0-.44,0c0-.12,0-0.24,0-0.37V178.45Zm-20.51,17.06a2.35,2.35,0,0,1,.49,1.76,2.39,2.39,0,0,1-4.25,1.2l-2.15-2.72-7,20.88a2.4,2.4,0,0,1-1.22,1.38,2.38,2.38,0,0,1-3.19-1.09,2.24,2.24,0,0,1-.13-1.83L787.22,190a2.31,2.31,0,0,1,1.06-1.3,2.23,2.23,0,0,1,1.64-.28,2.37,2.37,0,0,1,1.45.86Zm3.64-5.71a2.23,2.23,0,0,1,1.09-1.38,2.38,2.38,0,0,1,3.19.75l9.76,14.65a2.32,2.32,0,0,1,.34,1.79,2.39,2.39,0,0,1-4.33.86L803,196l-8.95,29.65a2.4,2.4,0,0,1-3,1.59,2.29,2.29,0,0,1-1.42-1.17,2.25,2.25,0,0,1-.18-1.81Zm50-1.33a2.23,2.23,0,0,1,1.64.28,2.34,2.34,0,0,1,1.07,1.3l8.46,25.07a2.4,2.4,0,0,1-1.51,3,2.28,2.28,0,0,1-1.83-.11,2.31,2.31,0,0,1-1.2-1.38l-7-20.88-2.15,2.72a2.36,2.36,0,0,1-1.61.9,2.41,2.41,0,0,1-2.65-2.1,2.29,2.29,0,0,1,.51-1.76l4.88-6.19A2.27,2.27,0,0,1,849.91,188.46Zm-12.8-.31a2.35,2.35,0,0,1,1.74.26,2.31,2.31,0,0,1,1.09,1.38l10.41,34.51a2.4,2.4,0,0,1-1.59,3,2.36,2.36,0,0,1-1.82-.18,2.27,2.27,0,0,1-1.16-1.42L836.83,196l-6.95,10.44a2.36,2.36,0,0,1-1.53,1,2.28,2.28,0,0,1-1.79-.36,2.32,2.32,0,0,1-1-1.51,2.28,2.28,0,0,1,.36-1.79l9.77-14.65A2.25,2.25,0,0,1,837.11,188.15Zm-20,17.79a3.1,3.1,0,0,1,.44,0h5.54a2.6,2.6,0,0,1,0,5.21h-5.54a2.6,2.6,0,0,1-1.84-4.45A2.57,2.57,0,0,1,817.1,205.93Zm15.51-59v24.72l-12.53,6.84-12.53-6.84V146.89L820.07,140Z"/>
  </g>
  <g class="item">
    <circle cx="895" cy="478" r="85" stroke="#999999" stroke-width="1" fill="transparent"></circle>
    <!-- <path class="cls-2 circle" d="M894.6,393.51a84,84,0,1,1-59.36,24.59,83.69,83.69,0,0,1,59.36-24.59m0-1a85,85,0,1,0,60.07,24.88,84.4,84.4,0,0,0-60.07-24.88h0Z"/> -->
    <text class="cls-3" transform="translate(1003.34 471.92)">Antibody Generation<tspan class="cls-4"><tspan x="0" y="22">ImmunoMax™</tspan></tspan></text>
    <path class="cls-2" d="M874.22,514.12l-5.05-5.05L905.27,473l5.05,5.05Zm67.45-43.58-1.85-6.9-34.52,9.25,1.85,6.9Zm3.12,10.6-1.85-6.9-29.58,7.93,1.85,6.9Zm-24,2.62L918.15,473l-3,.73,2.64,10.72Zm-15.37-6.6-7.52-7.52-2.17,2.17,7.52,7.52Zm-4.63,4-7.52-7.52-2.17,2.17,7.52,7.52Zm1.59-11.1L897.33,465l-36.09,36.09,5.05,5.05Zm0.09,0,9.25-34.52-6.9-1.85-9.25,34.52ZM893.2,462l7.93-29.58-6.9-1.85-7.93,29.58Zm8.39-1.81,0.73-3-10.72-2.64-0.73,3Z"/>
  </g>
  <g class="item">
    <circle cx="322" cy="324" r="85" stroke="#999999" stroke-width="1" fill="transparent"></circle>
    <!-- <path class="cls-2 circle" d="M322,240.08a84,84,0,1,1-59.36,24.59A83.69,83.69,0,0,1,322,240.08m0-1A85,85,0,1,0,382.07,264,84.4,84.4,0,0,0,322,239.08h0Z"/> -->
    <text class="cls-3" transform="translate(137.22 318.65)">Disease<tspan x="5.32" y="22">S</tspan><tspan x="16.7" y="22">tudies</tspan></text>
    <g>
      <rect class="cls-2" x="319.11" y="330.32" width="3.69" height="21.5" transform="translate(-134.9 448.46) rotate(-60)"/>
      <path class="cls-2" d="M348.34,354.16A27.69,27.69,0,0,0,344,310.35l9-15.54-1.41-.81,2.21-3.85-5.81-3.35-2.22,3.84-1.49-.86L322.16,328l1.93,1.11-2.74,4.73,4.85,2.8,2.74-4.74,1.92,1.11L340.14,317a20.17,20.17,0,0,1-10.84,37.19H313v7.64h45.77v-7.64H348.34Z"/>
      <path class="cls-2" d="M312.52,323.22H287.24V298h4.88V317.4a2.66,2.66,0,0,0,2.65,2.66,2.63,2.63,0,0,0,2.61-2.66V298h5.07V317.4a2.66,2.66,0,0,0,2.65,2.66,2.63,2.63,0,0,0,2.61-2.66V298h4.81v25.23Zm-4.81-27.81v-6.06h0.75V287.9h-6.8v1.45h0.8v6.06h-5.07v-6.06h0.74V287.9H291.3v1.45h0.8v6.06h-7.45v30.38h30.43V295.41h-7.39Z"/>
    </g>
  </g>
  <g class="item">
    <circle cx="685" cy="687" r="85" stroke="#999999" stroke-width="1" fill="transparent"></circle>
    <!-- <path class="cls-2 circle" d="M685,603.09a84,84,0,1,1-59.36,24.59A83.69,83.69,0,0,1,685,603.09m0-1A85,85,0,1,0,745.09,627,84.4,84.4,0,0,0,685,602.09h0Z"/> -->
    <text class="cls-3" transform="translate(797.76 670.5)">Optimization and<tspan x="0" y="22">Functional Screening</tspan><tspan class="cls-4"><tspan x="0" y="44">A</tspan><tspan x="13.28" y="44">ffiniMax™</tspan></tspan></text>
    <g>
      <path class="cls-2" d="M660.54,677.76a1.39,1.39,0,1,0-.8-1.79A1.39,1.39,0,0,0,660.54,677.76Z"/>
      <path class="cls-2" d="M660.25,671.17a0.93,0.93,0,1,0-.53-1.2A0.94,0.94,0,0,0,660.25,671.17Z"/>
      <path class="cls-2" d="M663.75,679.89a1,1,0,0,0-1.2.44h1.69A1,1,0,0,0,663.75,679.89Z"/>
      <path class="cls-2" d="M665.3,671.14a1.55,1.55,0,1,0-2-.9A1.54,1.54,0,0,0,665.3,671.14Z"/>
      <circle class="cls-2" cx="662.1" cy="666.39" r="0.77" transform="translate(-192.68 276.78) rotate(-20.68)"/>
      <path class="cls-2" d="M665.59,674.45a1.16,1.16,0,1,0,1.49.67A1.16,1.16,0,0,0,665.59,674.45Z"/>
      <path class="cls-2" d="M706.62,677.76a1.39,1.39,0,1,0-.81-1.79A1.38,1.38,0,0,0,706.62,677.76Z"/>
      <path class="cls-2" d="M706.34,671.17a0.93,0.93,0,1,0-.53-1.2A0.94,0.94,0,0,0,706.34,671.17Z"/>
      <path class="cls-2" d="M709.84,679.89a1,1,0,0,0-1.2.44h1.69A1,1,0,0,0,709.84,679.89Z"/>
      <path class="cls-2" d="M711.38,671.14a1.55,1.55,0,1,0-2-.9A1.54,1.54,0,0,0,711.38,671.14Z"/>
      <path class="cls-2" d="M708.45,667.11a0.78,0.78,0,1,0-1-.45A0.79,0.79,0,0,0,708.45,667.11Z"/>
      <path class="cls-2" d="M711.67,674.45a1.16,1.16,0,1,0,1.49.67A1.15,1.15,0,0,0,711.67,674.45Z"/>
      <path class="cls-2" d="M671.93,660.12a9.12,9.12,0,0,0-2.13,6.3v43.37c0,4.41-2.43,7.16-6.35,7.16s-6.35-2.74-6.35-7.16V666.42a9.12,9.12,0,0,0-2.13-6.31h17ZM653.05,660s2.87,1.73,2.83,6.38v43.37c0,5.09,3,8.39,7.58,8.39s7.58-3.29,7.58-8.39V666.41c0-4.61,2.71-6.31,2.83-6.38a0.62,0.62,0,0,0-.31-1.14H653.36a0.61,0.61,0,0,0-.59.45A0.62,0.62,0,0,0,653.05,660Z"/>
      <path class="cls-2" d="M659.62,689.26a1.67,1.67,0,1,1,1,2.15A1.67,1.67,0,0,1,659.62,689.26Zm5.06-5a1.49,1.49,0,1,1,.87,1.93A1.49,1.49,0,0,1,664.68,684.31Zm2,7.18a0.84,0.84,0,1,1-.48-1.07A0.84,0.84,0,0,1,666.64,691.48Zm-3.18,24.15c3.2,0,5-2.13,5-5.85V680.33h-4.25a1,1,0,0,1,.09.85,1,1,0,1,1-1.87-.71,1,1,0,0,1,.09-0.14h-4.13v29.45C658.42,713.5,660.26,715.63,663.46,715.63Z"/>
      <path class="cls-2" d="M683.58,677.76a1.39,1.39,0,1,0-.81-1.79A1.38,1.38,0,0,0,683.58,677.76Z"/>
      <path class="cls-2" d="M683.29,671.17a0.93,0.93,0,1,0-.53-1.2A0.94,0.94,0,0,0,683.29,671.17Z"/>
      <path class="cls-2" d="M686.8,679.89a1,1,0,0,0-1.2.44h1.69A1,1,0,0,0,686.8,679.89Z"/>
      <path class="cls-2" d="M688.34,671.14a1.55,1.55,0,1,0-2-.9A1.54,1.54,0,0,0,688.34,671.14Z"/>
      <path class="cls-2" d="M685.41,667.11a0.78,0.78,0,1,0-1-.45A0.79,0.79,0,0,0,685.41,667.11Z"/>
      <path class="cls-2" d="M688.63,674.45a1.16,1.16,0,1,0,1.49.67A1.15,1.15,0,0,0,688.63,674.45Z"/>
      <path class="cls-2" d="M678,660.12h17a9.12,9.12,0,0,0-2.13,6.3v43.37c0,4.41-2.43,7.16-6.35,7.16s-6.35-2.74-6.35-7.16V666.42A9.12,9.12,0,0,0,678,660.12Zm8.48,58.06c4.6,0,7.58-3.29,7.58-8.39V666.41c0-4.61,2.71-6.31,2.83-6.38a0.61,0.61,0,0,0-.31-1.14H676.41a0.61,0.61,0,0,0-.31,1.14s2.87,1.73,2.83,6.38v43.37C678.92,714.88,681.9,718.17,686.5,718.17Z"/>
      <path class="cls-2" d="M682.66,689.26a1.67,1.67,0,1,1,1,2.15A1.67,1.67,0,0,1,682.66,689.26Zm5.06-5a1.49,1.49,0,1,1,.87,1.93A1.49,1.49,0,0,1,687.72,684.31Zm2,7.18a0.84,0.84,0,1,1-.49-1.07A0.84,0.84,0,0,1,689.68,691.48Zm-3.18,24.15c3.2,0,5-2.13,5-5.85V680.33h-4.25a1,1,0,0,1,.09.85,1,1,0,1,1-1.87-.71,0.92,0.92,0,0,1,.09-0.14h-4.13v29.45C681.46,713.5,683.3,715.63,686.5,715.63Z"/>
      <path class="cls-2" d="M718,660.12a9.12,9.12,0,0,0-2.13,6.3v43.37c0,4.41-2.43,7.16-6.35,7.16s-6.35-2.74-6.35-7.16V666.42a9.12,9.12,0,0,0-2.13-6.31h17Zm-19.16-.77a0.62,0.62,0,0,0,.28.69s2.87,1.73,2.83,6.38v43.37c0,5.09,3,8.39,7.58,8.39s7.58-3.29,7.58-8.39V666.41c0-4.61,2.71-6.31,2.83-6.38a0.62,0.62,0,0,0-.31-1.14H699.45A0.61,0.61,0,0,0,698.85,659.34Z"/>
      <path class="cls-2" d="M705.7,689.26a1.67,1.67,0,1,1,1,2.15A1.67,1.67,0,0,1,705.7,689.26Zm5.06-5a1.49,1.49,0,1,1,.88,1.93A1.49,1.49,0,0,1,710.76,684.31Zm2,7.18a0.84,0.84,0,1,1-.49-1.07A0.84,0.84,0,0,1,712.72,691.48Zm-3.18,24.15c3.2,0,5-2.13,5-5.85V680.33h-4.25a1,1,0,0,1,.09.85,1,1,0,1,1-1.87-.71,0.85,0.85,0,0,1,.09-0.14H704.5v29.45C704.5,713.5,706.34,715.63,709.54,715.63Z"/>
    </g>
  </g>
</svg>
